<svg xmlns="http://www.w3.org/2000/svg" width="20.84" height="51.9"><path d="M8.41 5.41H.9a.5.5 0 0 0-.5.5V48a.5.5 0 0 0 .5.5h19a.5.5 0 0 0 .5-.5V5.91a.5.5 0 0 0-.5-.5h-6V.9a.5.5 0 0 0-.5-.5h-6a.5.5 0 0 0-.5.5v4.51h1.51zm-.48-4h5v4h-5zm11.51 5v11H1.4v-11zM1.4 47.48V18.43h18v29.05z" fill="#378fdb"/><path d="M19.94 48.88H.9A.9.9 0 0 1 0 48V5.91A.9.9 0 0 1 .9 5h5.63V.9a.9.9 0 0 1 .9-.9h6a.9.9 0 0 1 .9.9V5h5.6a.9.9 0 0 1 .9.9V48a.9.9 0 0 1-.89.88zM.9 5.81a.1.1 0 0 0-.1.1V48a.1.1 0 0 0 .1.1h19a.1.1 0 0 0 .1-.1V5.91a.1.1 0 0 0-.1-.1h-6.4V.9a.1.1 0 0 0-.1-.1h-6a.1.1 0 0 0-.1.1V5h.2V1h5.81v4.81zM8.33 5h4.21V1.8H8.33zm11.51 42.88H1V18h18.84zm-18-.8H19V18.82H1.8zm18-29.26H1V6h18.84zM1.8 17H19V6.81H1.8z" fill="#378fdb"/><path d="M13.78 23.59a.5.5 0 0 0-.71 0l-6 6a.5.5 0 0 0 .35.86h4.8l-5.16 5.16a.5.5 0 0 0 0 .71.5.5 0 0 0 .35.15.5.5 0 0 0 .35-.15l6-6a.5.5 0 0 0-.35-.86H8.62l5.15-5.15a.5.5 0 0 0 .01-.72z" fill="#378fdb"/><path d="M7.42 36.86a.89.89 0 0 1-.64-.27.9.9 0 0 1 0-1.27l4.47-4.47H7.42a.9.9 0 0 1-.64-1.54l6-6a.9.9 0 0 1 1.27 0 .9.9 0 0 1 0 1.27l-4.46 4.47h3.83a.9.9 0 0 1 .64 1.54l-6 6a.9.9 0 0 1-.64.27zm6-13a.1.1 0 0 0-.07 0l-6 6a.1.1 0 0 0 .07.17h5.77l-5.84 5.86a.1.1 0 0 0 0 .14s.08.06.14 0l6-6a.1.1 0 0 0 0-.11.1.1 0 0 0-.09-.06H7.66L13.5 24a.1.1 0 0 0-.07-.17zm2.97 28.04H4.45a1.78 1.78 0 0 1-1.78-1.78V47.4h15.5v2.72a1.78 1.78 0 0 1-1.78 1.78zm-12.22-3v1.22a.28.28 0 0 0 .28.28h11.94a.28.28 0 0 0 .28-.28V48.9z" fill="#378fdb"/></svg>