<svg xmlns="http://www.w3.org/2000/svg" width="16.4" height="49.9" viewBox="0 0 16.4 49.9"><title>battery</title><path d="M4.4,49.4H3.1a.53.53,0,0,1-.6-.6V47.1c0-.2-.1-.3-.3-.4H1.9c-.2,0-.3,0-.4-.1A1.63,1.63,0,0,1,.4,45.1V6.1a1.58,1.58,0,0,1,1-1.6c.1-.1.4-.1.6-.1H4.7c.2-.1.3-.2.3-.4V1.3A.53.53,0,0,1,5.6.7h5.1a.53.53,0,0,1,.6.6V4a.45.45,0,0,0,.3.4h2.6A1.68,1.68,0,0,1,16,6.2V45a1.65,1.65,0,0,1-1.7,1.8h-.1c-.2,0-.3.2-.3.4v1.7a.53.53,0,0,1-.6.6h-7Zm-.5-2.7a.43.43,0,0,0-.4.4V48a.43.43,0,0,0,.4.4h8.6a.43.43,0,0,0,.4-.4v-.9a.43.43,0,0,0-.4-.4Zm-2.1-28a.43.43,0,0,0-.4.4V44.9c0,.6.2.7.7.7H14.2c.6,0,.7-.2.7-.7V19.1c0-.2-.2-.3-.4-.3H1.8ZM2.1,5.4c-.6,0-.7.2-.7.7V17.2a.43.43,0,0,0,.4.4H14.7a.43.43,0,0,0,.4-.4V6.1c0-.6-.2-.7-.7-.7H2.1ZM6.5,1.7a.43.43,0,0,0-.4.4V4a.43.43,0,0,0,.4.4H9.9a.43.43,0,0,0,.4-.4V2.1a.43.43,0,0,0-.4-.4Z" style="fill:#3b91d8;stroke:#378fdb;stroke-miterlimit:10;stroke-width:0.15000000596046448px"/><path d="M10.7,28.8a.52.52,0,0,1-.2.4L6.6,33.1a.76.76,0,0,1-.4.2.52.52,0,0,1-.4-.2.61.61,0,0,1,0-.8l2.9-2.9H6.3a.65.65,0,0,1-.6-.6.52.52,0,0,1,.2-.4l3.9-3.9a.61.61,0,0,1,.8,0,.5.5,0,0,1,0,.8L7.7,28.2h2.5A.65.65,0,0,1,10.7,28.8ZM10.2,25h0v0h0l-4,3.8v.1H10L6.2,32.7v.1h.1l3.9-3.9v-.1H6.4Z" style="fill:#378fdb"/><path d="M10.2,24.9h0L6.4,28.8h3.8v.1L6.3,32.8H6.2v-.1L10,28.9H6.3v-.1l3.9-3.9Z" style="fill:#378fdb"/></svg>