<svg xmlns="http://www.w3.org/2000/svg" width="16.4" height="49.9"><path d="M4.4 49.4H3.1a.53.53 0 0 1-.6-.6v-1.7c0-.2-.1-.3-.3-.4h-.3c-.2 0-.3 0-.4-.1a1.63 1.63 0 0 1-1.1-1.5v-39a1.58 1.58 0 0 1 1-1.6c.1-.1.4-.1.6-.1h2.7c.2-.1.3-.2.3-.4V1.3a.53.53 0 0 1 .6-.6h5.1a.53.53 0 0 1 .6.6V4a.45.45 0 0 0 .3.4h2.6A1.68 1.68 0 0 1 16 6.2V45a1.65 1.65 0 0 1-1.7 1.8h-.1c-.2 0-.3.2-.3.4v1.7a.53.53 0 0 1-.6.6h-7zm-.5-2.7a.43.43 0 0 0-.4.4v.9a.43.43 0 0 0 .4.4h8.6a.43.43 0 0 0 .4-.4v-.9a.43.43 0 0 0-.4-.4zm-2.1-28a.43.43 0 0 0-.4.4v25.8c0 .6.2.7.7.7h12.1c.6 0 .7-.2.7-.7V19.1c0-.2-.2-.3-.4-.3H1.8zm.3-13.3c-.6 0-.7.2-.7.7v11.1a.43.43 0 0 0 .4.4h12.9a.43.43 0 0 0 .4-.4V6.1c0-.6-.2-.7-.7-.7H2.1zm4.4-3.7a.43.43 0 0 0-.4.4V4a.43.43 0 0 0 .4.4h3.4a.43.43 0 0 0 .4-.4V2.1a.43.43 0 0 0-.4-.4z" fill="#3b91d8" stroke="#378fdb" stroke-miterlimit="10" stroke-width="0.15000000596046448px"/><path d="M10.7 28.8a.52.52 0 0 1-.2.4l-3.9 3.9a.76.76 0 0 1-.4.2.52.52 0 0 1-.4-.2.61.61 0 0 1 0-.8l2.9-2.9H6.3a.65.65 0 0 1-.6-.6.52.52 0 0 1 .2-.4l3.9-3.9a.61.61 0 0 1 .8 0 .5.5 0 0 1 0 .8l-2.9 2.9h2.5a.65.65 0 0 1 .5.6zm-.5-3.8l-4 3.8v.1H10l-3.8 3.8v.1h.1l3.9-3.9v-.1H6.4z" fill="#378fdb"/><path d="M10.2 24.9l-3.8 3.9h3.8v.1l-3.9 3.9h-.1v-.1l3.8-3.8H6.3v-.1l3.9-3.9z" fill="#378fdb"/></svg>