<svg xmlns="http://www.w3.org/2000/svg" width="20.84" height="51.9" viewBox="0 0 20.84 51.9"><title>battery2</title><path d="M8.41,5.41H.9a.5.5,0,0,0-.5.5V48a.5.5,0,0,0,.5.5h19a.5.5,0,0,0,.5-.5V5.91a.5.5,0,0,0-.5-.5h-6V.9a.5.5,0,0,0-.5-.5h-6a.5.5,0,0,0-.5.5V5.41H8.41Zm-.48-4h5v4h-5Zm11.51,5v11H1.4v-11ZM1.4,47.48V18.43h18V47.48Z" style="fill:#378fdb"/><path d="M19.94,48.88H.9A.9.9,0,0,1,0,48V5.91A.9.9,0,0,1,.9,5H6.53V.9a.9.9,0,0,1,.9-.9h6a.9.9,0,0,1,.9.9V5h5.6a.9.9,0,0,1,.9.9V48A.9.9,0,0,1,19.94,48.88ZM.9,5.81a.1.1,0,0,0-.1.1V48a.1.1,0,0,0,.1.1h19A.1.1,0,0,0,20,48V5.91a.1.1,0,0,0-.1-.1h-6.4V.9a.1.1,0,0,0-.1-.1h-6a.1.1,0,0,0-.1.1V5h.2V1h5.81V5.81ZM8.33,5h4.21V1.8H8.33ZM19.84,47.88H1V18H19.84Zm-18-.8H19V18.82H1.8Zm18-29.26H1V6H19.84ZM1.8,17H19V6.81H1.8Z" style="fill:#378fdb"/><path d="M13.78,23.59a.5.5,0,0,0-.71,0l-6,6a.5.5,0,0,0,.35.86h4.8L7.06,35.61a.5.5,0,0,0,0,.71.5.5,0,0,0,.35.15.5.5,0,0,0,.35-.15l6-6a.5.5,0,0,0-.35-.86H8.62l5.15-5.15A.5.5,0,0,0,13.78,23.59Z" style="fill:#378fdb"/><path d="M7.42,36.86a.89.89,0,0,1-.64-.27.9.9,0,0,1,0-1.27l4.47-4.47H7.42a.9.9,0,0,1-.64-1.54l6-6a.9.9,0,0,1,1.27,0h0a.9.9,0,0,1,0,1.27L9.59,29.05h3.83a.9.9,0,0,1,.64,1.54l-6,6A.9.9,0,0,1,7.42,36.86Zm6-13a.1.1,0,0,0-.07,0l-6,6a.1.1,0,0,0,.07.17h5.77L7.35,35.89a.1.1,0,0,0,0,.14s.08.06.14,0l6-6a.1.1,0,0,0,0-.11.1.1,0,0,0-.09-.06H7.66L13.5,24a.1.1,0,0,0-.07-.17Z" style="fill:#378fdb"/><path d="M16.39,51.9H4.45a1.78,1.78,0,0,1-1.78-1.78V47.4h15.5v2.72A1.78,1.78,0,0,1,16.39,51.9Zm-12.22-3v1.22a.28.28,0,0,0,.28.28H16.39a.28.28,0,0,0,.28-.28V48.9Z" style="fill:#378fdb"/></svg>