<svg xmlns="http://www.w3.org/2000/svg" width="60.7" height="55.04"><path d="M11 23.08a2.36 2.36 0 0 0-2.16-1.35 2.39 2.39 0 0 0 0 4.79 2.39 2.39 0 0 0 2.39-2.39 2.44 2.44 0 0 0-.23-1.05zm-2.19 2.73a1.73 1.73 0 0 1-1.69-1.69 1.69 1.69 0 0 1 1.69-1.69 1.69 1.69 0 0 1 0 3.37zm12.39-9.95a2.4 2.4 0 0 0-4.69.7 2.43 2.43 0 0 0 .26 1.1 2.25 2.25 0 0 0 .41.58 2.4 2.4 0 0 0 4.12-1.67 2.51 2.51 0 0 0-.1-.71zm-.61.73a1.73 1.73 0 0 1-1.69 1.66 1.69 1.69 0 1 1 0-3.37 1.74 1.74 0 0 1 1.28.54 1.57 1.57 0 0 1 .41 1.17zM39.2 5.81a2.37 2.37 0 0 0-2.39 2.39 2.39 2.39 0 0 0 .38 1.31 2.32 2.32 0 0 0 .47.53 2.39 2.39 0 0 0 1.54.55 2.39 2.39 0 1 0 0-4.79zm0 4a1.63 1.63 0 0 1-.91-.28 1.71 1.71 0 0 1-.5-.51 1.63 1.63 0 0 1-.28-.9 1.69 1.69 0 1 1 1.69 1.72z" fill="#81d135" stroke="#81d135" stroke-miterlimit="10" stroke-width="0.5px"/><path fill="#81d135" d="M20.85 15.86H27.310000000000002V16.57H20.85z"/><path d="M27.56 16.82h-7v-1.21h7zm-6.46-.5h6v-.21h-6z" fill="#81d135"/><path fill="#81d135" d="M17.35 17.2L16.77 17.66 10.58 22.49 10.12 22.85 10.55 23.41 10.97 23.08 17.18 18.23 17.75 17.79"/><path fill="#81d135" d="M10.51 23.76L9.77 22.81 17.2 17.01 17.5 17.4 10.47 22.89 10.59 23.06 17.6 17.59 17.91 17.98 10.51 23.76z"/><path d="M38.29 9.81l-.63.49-6.26 4.89-.3.23-.43-.56.33-.26 6.2-4.84.6-.47a1.71 1.71 0 0 0 .49.52z" fill="#81d135"/><path d="M31.05 15.78l-.74-1 7.54-5.89.15.23a1.45 1.45 0 0 0 .43.43l.29.19zm0-.86l.13.16 6.74-5.27-.14-.15z" fill="#81d135"/><path d="M31.85 15.51a2.4 2.4 0 0 0-4.69.7 2.43 2.43 0 0 0 .26 1.1 2.25 2.25 0 0 0 .41.58 2.4 2.4 0 0 0 4.12-1.67 2.51 2.51 0 0 0-.1-.71zm-.61.73a1.73 1.73 0 0 1-1.69 1.66 1.69 1.69 0 1 1 0-3.37 1.74 1.74 0 0 1 1.28.54 1.57 1.57 0 0 1 .41 1.17z" fill="#81d135" stroke="#81d135" stroke-miterlimit="10" stroke-width="0.5px"/><path d="M57.42 54.29a2.51 2.51 0 0 1-1.83-.76l-6-6L53.24 44l6 6a2.57 2.57 0 0 1 0 3.62 2.35 2.35 0 0 1-1.82.67z" fill="#f2f2f2"/><path d="M57.42 55a3.28 3.28 0 0 1-2.36-1l-6.49-6.49 4.68-4.68 6.49 6.49a3.32 3.32 0 0 1 0 4.68 3.08 3.08 0 0 1-2.32 1zm-6.74-7.47L56.11 53a1.76 1.76 0 0 0 1.3.54 1.58 1.58 0 0 0 1.21-.5 1.83 1.83 0 0 0 .56-1.32 1.8 1.8 0 0 0-.53-1.28L53.24 45zm-3.21-.67H1.1A1.1 1.1 0 0 1 0 45.75V0h1.5v45.36h46z" fill="#59595c"/><path d="M6.68 41a.36.36 0 0 1-.35-.35v-8.32a.36.36 0 0 1 .35-.33h4.13a.36.36 0 0 1 .35.35v8.35a.33.33 0 0 1-.35.35z" fill="#f2f2f2"/><path d="M10.81 41.78H6.68a1.1 1.1 0 0 1-1.1-1.1v-8.35a1.1 1.1 0 0 1 1.1-1.1h4.13a1.1 1.1 0 0 1 1.1 1.1v8.35a1.08 1.08 0 0 1-1.1 1.1zm-3.73-1.5h3.33v-7.56H7.08z" fill="#59595c"/><path d="M27.37 41a.36.36 0 0 1-.35-.35V21.73a.36.36 0 0 1 .35-.35h4.13a.36.36 0 0 1 .35.35v18.9a.36.36 0 0 1-.35.35z" fill="#f2f2f2"/><path d="M31.5 41.73h-4.13a1.1 1.1 0 0 1-1.1-1.1v-18.9a1.1 1.1 0 0 1 1.1-1.1h4.13a1.1 1.1 0 0 1 1.1 1.1v18.9a1.1 1.1 0 0 1-1.1 1.1zm-3.73-1.5h3.33v-18.1h-3.33z" fill="#59595c"/><path d="M39 40.43v.71h-1.53a.36.36 0 0 1-.35-.35V16.16a.36.36 0 0 1 .35-.35h4.13a.36.36 0 0 1 .35.35v19.65h-.71" fill="#f2f2f2"/><path d="M39.76 41.88h-2.3a1.1 1.1 0 0 1-1.1-1.1V16.16a1.1 1.1 0 0 1 1.1-1.1h4.13a1.1 1.1 0 0 1 1.1 1.1v20.4h-1.45v-20h-3.38v23.82h1.9z" fill="#59595c"/><path d="M16.88 41a.36.36 0 0 1-.35-.35v-13.5a.36.36 0 0 1 .35-.35h4.38a.36.36 0 0 1 .35.35v13.48a.33.33 0 0 1-.35.35z" fill="#f2f2f2"/><path d="M21.25 41.73h-4.37a1.1 1.1 0 0 1-1.1-1.1V27.15a1.1 1.1 0 0 1 1.1-1.1h4.38a1.1 1.1 0 0 1 1.1 1.1v13.48a1.08 1.08 0 0 1-1.11 1.1zm-4-1.5h3.58V27.55h-3.56z" fill="#59595c"/><path d="M46.54 48.44a7.54 7.54 0 1 1 7.51-7.56 7.57 7.57 0 0 1-7.51 7.56z" fill="#f2f2f2"/><path d="M46.54 49.19a8.29 8.29 0 1 1 8.26-8.31 8.32 8.32 0 0 1-8.26 8.31zm0-15.08a6.79 6.79 0 1 0 6.76 6.76 6.8 6.8 0 0 0-6.76-6.75z" fill="#59595c"/></svg>