<svg xmlns="http://www.w3.org/2000/svg" width="60.7" height="55.04" viewBox="0 0 60.7 55.04"><title>commercial-data-icon</title><path d="M11,23.08a2.36,2.36,0,0,0-2.16-1.35,2.39,2.39,0,0,0,0,4.79,2.39,2.39,0,0,0,2.39-2.39A2.44,2.44,0,0,0,11,23.08ZM8.81,25.81a1.73,1.73,0,0,1-1.69-1.69,1.69,1.69,0,0,1,1.69-1.69,1.69,1.69,0,0,1,0,3.37Z" style="fill:#81d135;stroke:#81d135;stroke-miterlimit:10;stroke-width:0.5px"/><path d="M21.2,15.86a2.4,2.4,0,0,0-4.69.7,2.43,2.43,0,0,0,.26,1.1,2.25,2.25,0,0,0,.41.58,2.4,2.4,0,0,0,4.12-1.67h0A2.51,2.51,0,0,0,21.2,15.86Zm-.61.73a1.73,1.73,0,0,1-1.69,1.66,1.69,1.69,0,1,1,0-3.37,1.74,1.74,0,0,1,1.28.54A1.57,1.57,0,0,1,20.59,16.59Z" style="fill:#81d135;stroke:#81d135;stroke-miterlimit:10;stroke-width:0.5px"/><path d="M39.2,5.81a2.37,2.37,0,0,0-2.39,2.39,2.39,2.39,0,0,0,.38,1.31,2.32,2.32,0,0,0,.47.53,2.39,2.39,0,0,0,1.54.55,2.39,2.39,0,1,0,0-4.79Zm0,4a1.63,1.63,0,0,1-.91-.28,1.71,1.71,0,0,1-.5-.51,1.63,1.63,0,0,1-.28-.9A1.69,1.69,0,1,1,39.2,9.84Z" style="fill:#81d135;stroke:#81d135;stroke-miterlimit:10;stroke-width:0.5px"/><rect x="20.85" y="15.86" width="6.46" height="0.71" style="fill:#81d135"/><path d="M27.56,16.82h-7V15.61h7Zm-6.46-.5h6v-.21h-6Z" style="fill:#81d135"/><polyline points="17.35 17.2 16.77 17.66 10.58 22.49 10.12 22.85 10.55 23.41 10.97 23.08 17.18 18.23 17.75 17.79" style="fill:#81d135"/><polygon points="10.51 23.76 9.77 22.81 17.2 17.01 17.5 17.4 10.47 22.89 10.59 23.06 17.6 17.59 17.91 17.98 10.51 23.76" style="fill:#81d135"/><path d="M38.29,9.81l-.63.49L31.4,15.19l-.3.23-.43-.56.33-.26,6.2-4.84.6-.47A1.71,1.71,0,0,0,38.29,9.81Z" style="fill:#81d135"/><path d="M31.05,15.78l-.74-1,7.54-5.89.15.23a1.45,1.45,0,0,0,.43.43l.29.19Zm0-.86.13.16,6.74-5.27-.14-.15Z" style="fill:#81d135"/><path d="M31.85,15.51a2.4,2.4,0,0,0-4.69.7,2.43,2.43,0,0,0,.26,1.1,2.25,2.25,0,0,0,.41.58,2.4,2.4,0,0,0,4.12-1.67h0A2.51,2.51,0,0,0,31.85,15.51Zm-.61.73a1.73,1.73,0,0,1-1.69,1.66,1.69,1.69,0,1,1,0-3.37,1.74,1.74,0,0,1,1.28.54A1.57,1.57,0,0,1,31.24,16.24Z" style="fill:#81d135;stroke:#81d135;stroke-miterlimit:10;stroke-width:0.5px"/><path d="M57.42,54.29a2.51,2.51,0,0,1-1.83-.76l-6-6L53.24,44l6,6a2.57,2.57,0,0,1,0,3.62l0,0A2.35,2.35,0,0,1,57.42,54.29Z" style="fill:#f2f2f2"/><path d="M57.42,55a3.28,3.28,0,0,1-2.36-1l-6.49-6.49,4.68-4.68,6.49,6.49a3.32,3.32,0,0,1,0,4.68A3.08,3.08,0,0,1,57.42,55Zm-6.74-7.47L56.11,53a1.76,1.76,0,0,0,1.3.54,1.58,1.58,0,0,0,1.21-.5,1.83,1.83,0,0,0,.56-1.32,1.8,1.8,0,0,0-.53-1.28L53.24,45Z" style="fill:#59595c"/><path d="M47.47,46.86H1.1A1.1,1.1,0,0,1,0,45.75V0H1.5V45.36h46Z" style="fill:#59595c"/><path d="M6.68,41a.36.36,0,0,1-.35-.35V32.33A.36.36,0,0,1,6.68,32h4.13a.36.36,0,0,1,.35.35v8.35a.33.33,0,0,1-.35.35Z" style="fill:#f2f2f2"/><path d="M10.81,41.78H6.68a1.1,1.1,0,0,1-1.1-1.1V32.33a1.1,1.1,0,0,1,1.1-1.1h4.13a1.1,1.1,0,0,1,1.1,1.1v8.35A1.08,1.08,0,0,1,10.81,41.78Zm-3.73-1.5h3.33V32.72H7.08Z" style="fill:#59595c"/><path d="M27.37,41a.36.36,0,0,1-.35-.35V21.73a.36.36,0,0,1,.35-.35H31.5a.36.36,0,0,1,.35.35v18.9a.36.36,0,0,1-.35.35Z" style="fill:#f2f2f2"/><path d="M31.5,41.73H27.37a1.1,1.1,0,0,1-1.1-1.1V21.73a1.1,1.1,0,0,1,1.1-1.1H31.5a1.1,1.1,0,0,1,1.1,1.1v18.9A1.1,1.1,0,0,1,31.5,41.73Zm-3.73-1.5H31.1V22.13H27.77Z" style="fill:#59595c"/><path d="M39,40.43v.71H37.47a.36.36,0,0,1-.35-.35V16.16a.36.36,0,0,1,.35-.35h4.13a.36.36,0,0,1,.35.35V35.81h-.71" style="fill:#f2f2f2"/><path d="M39.76,41.88h-2.3a1.1,1.1,0,0,1-1.1-1.1V16.16a1.1,1.1,0,0,1,1.1-1.1h4.13a1.1,1.1,0,0,1,1.1,1.1v20.4H41.24l0-20H37.86V40.38l1.9,0Z" style="fill:#59595c"/><path d="M16.88,41a.36.36,0,0,1-.35-.35V27.15a.36.36,0,0,1,.35-.35h4.38a.36.36,0,0,1,.35.35V40.63a.33.33,0,0,1-.35.35Z" style="fill:#f2f2f2"/><path d="M21.25,41.73H16.88a1.1,1.1,0,0,1-1.1-1.1V27.15a1.1,1.1,0,0,1,1.1-1.1h4.38a1.1,1.1,0,0,1,1.1,1.1V40.63A1.08,1.08,0,0,1,21.25,41.73Zm-4-1.5h3.58V27.55H17.27Z" style="fill:#59595c"/><path d="M46.54,48.44a7.54,7.54,0,1,1,7.51-7.56A7.57,7.57,0,0,1,46.54,48.44Z" style="fill:#f2f2f2"/><path d="M46.54,49.19a8.29,8.29,0,1,1,8.26-8.31A8.32,8.32,0,0,1,46.54,49.19Zm0-15.08a6.79,6.79,0,1,0,6.76,6.76A6.8,6.8,0,0,0,46.54,34.12Z" style="fill:#59595c"/></svg>