<svg xmlns="http://www.w3.org/2000/svg" width="124.92" height="66.3" viewBox="0 0 124.92 66.3"><title>customer-access</title><path d="M47.74,36.95a23,23,0,0,1-1.89,9.14c-.35-.6-2.38-4.22-3.32-5.57a6.31,6.31,0,0,0-5.62-3l-7-.08a1.6,1.6,0,0,1-1.34-1.69v-2.5a11.39,11.39,0,0,0,3.87-2.43c1.34,3.47,4.88,5.5,9.72,5.5a.73.73,0,0,0,.71-.62c.75-5-.95-9.08-4.67-11.46a3.08,3.08,0,0,0-.2-4.66l0-.07c0-.47,0-.94,0-1.4A23,23,0,0,1,47.74,36.95Z" style="fill:#f2f2f2"/><path d="M37.72,16.1A24.62,24.62,0,1,1,0,36.95,24.5,24.5,0,0,1,11.53,16.1a12.05,12.05,0,0,1,3.09-6.16,13.54,13.54,0,0,1,10-4,13.52,13.52,0,0,1,9.91,4A12.45,12.45,0,0,1,37.72,16.1Zm8.13,30a23.1,23.1,0,0,0-7.88-28c0,.46,0,.93,0,1.4l0,.07a3.08,3.08,0,0,1,.2,4.66c3.73,2.38,5.42,6.49,4.67,11.46a.73.73,0,0,1-.71.62c-4.84,0-8.37-2-9.72-5.5a11.39,11.39,0,0,1-3.87,2.43v2.5a1.6,1.6,0,0,0,1.34,1.69l7,.08a6.31,6.31,0,0,1,5.63,3C43.48,41.86,45.51,45.48,45.86,46.08Zm-.74,1.55c-.56-.91-2.86-5-3.76-6.3a4.93,4.93,0,0,0-4.5-2.43l-4.94-.11a7.34,7.34,0,0,1-7.28,6.49h0a7.33,7.33,0,0,1-7.29-6.55l-5,.17c-1.82.07-3.3.28-4.45,2.36-1.43,2.58-2.36,4.11-3.74,6.35A23.35,23.35,0,0,0,11.58,56c-.12-2.08-.32-4-.55-5.65a.72.72,0,0,1,1.43-.21c.28,1.91.5,4.31.63,6.8a23,23,0,0,0,23,0c.09-1.84.27-4.37.63-6.84a.72.72,0,1,1,1.43.21c-.29,2-.46,4-.56,5.69A23.21,23.21,0,0,0,45.11,47.64ZM41.54,34.82c.47-4.39-1.27-7.94-4.83-9.83a3.18,3.18,0,0,1-.62.06l-.39,0a11.28,11.28,0,0,1-2.13,4.52C34.42,32.7,37.35,34.65,41.54,34.82ZM37.74,22a1.65,1.65,0,0,0-1.65-1.65,1.72,1.72,0,0,0-1.16.46.71.71,0,0,1-.59.31.7.7,0,0,1-.41-.13.72.72,0,0,1-.18-1,1.93,1.93,0,0,1,.19-.22l-.62-2.34a5.8,5.8,0,0,1-5.23-3.69C27,16,24.76,18.57,22.23,18.92a.73.73,0,0,1-.8-.89,12.78,12.78,0,0,0,.36-2.21,11.8,11.8,0,0,1-6.21,4.24.73.73,0,0,1-.25.89.72.72,0,0,1-.74,0,.68.68,0,0,1-.27-.23,1.71,1.71,0,0,0-1.15-.46A1.65,1.65,0,0,0,11.51,22L10.07,22a.33.33,0,0,1,0-.07,3.08,3.08,0,0,1,1.25-2.47c0-.49,0-1,0-1.43a23.1,23.1,0,0,0-7.92,28c1.14-1.84,2-3.24,3.22-5.51,1.52-2.73,3.63-3,5.67-3.1l7-.25a1.44,1.44,0,0,0,1.3-1.66V33.16a11.37,11.37,0,0,1-7-8.13l-.39,0h-.07l.07-1.44.18,0c0-.33-.05-.66-.05-1a.72.72,0,1,1,1.45,0,9.89,9.89,0,0,0,19.79,0,.72.72,0,0,1,.32-.6.69.69,0,0,1,.4-.12.73.73,0,0,1,.73.72c0,.34,0,.68,0,1l.17,0A1.65,1.65,0,0,0,37.74,22Zm-1.65-3.09a3.65,3.65,0,0,1,.47,0,11.3,11.3,0,0,0-3.06-8,12.08,12.08,0,0,0-8.87-3.56,12.1,12.1,0,0,0-9,3.59,11.09,11.09,0,0,0-2.93,8,2.86,2.86,0,0,1,.42,0A3,3,0,0,1,14,19a11.08,11.08,0,0,0,7.7-5.65.72.72,0,0,1,1.32.18,8.94,8.94,0,0,1,0,3.64,9,9,0,0,0,4.27-5.81.72.72,0,0,1,1.4-.09h0c.92,3.37,2.35,4.68,5.11,4.68a.72.72,0,0,1,.7.54l.65,2.5A3.2,3.2,0,0,1,36.09,18.86Zm-5.63,20-.57,0h-.15a3,3,0,0,1-2.59-3.12V33.64a11.27,11.27,0,0,1-2.52.28A11.46,11.46,0,0,1,22,33.61v2a2.9,2.9,0,0,1-2.59,3.09h-.06l-.56,0a5.9,5.9,0,0,0,11.68.14Z" style="fill:#59595c"/><path d="M41.35,41.34c.9,1.29,3.2,5.38,3.76,6.3a23.21,23.21,0,0,1-7.51,8.43c.1-1.66.27-3.71.56-5.69a.72.72,0,1,0-1.43-.21c-.36,2.46-.54,5-.63,6.84a23,23,0,0,1-23,0c-.12-2.48-.34-4.88-.62-6.8a.72.72,0,0,0-1.43.21c.24,1.61.43,3.57.55,5.65a23.35,23.35,0,0,1-7.44-8.39c1.39-2.24,2.31-3.77,3.75-6.35C9,39.2,10.51,39,12.33,38.92l5-.17a7.33,7.33,0,0,0,7.29,6.56h0a7.34,7.34,0,0,0,7.29-6.49l4.94.11A4.93,4.93,0,0,1,41.35,41.34Z" style="fill:#fff"/><path d="M36.71,25c3.56,1.89,5.3,5.44,4.83,9.83-4.18-.17-7.12-2.12-8-5.28A11.28,11.28,0,0,0,35.7,25l.39,0A3.18,3.18,0,0,0,36.71,25Z" style="fill:#e6e6e6"/><path d="M36.09,20.31a1.65,1.65,0,0,1,0,3.3l-.17,0c0-.33,0-.66,0-1a.73.73,0,0,0-.73-.72.69.69,0,0,0-.4.13l-.5-.91a.71.71,0,0,0,.59-.31A1.72,1.72,0,0,1,36.09,20.31Z" style="fill:#fff"/><path d="M36.56,18.9a3.65,3.65,0,0,0-.47,0,3.2,3.2,0,0,0-.86.13l-.65-2.5a.72.72,0,0,0-.7-.54c-2.76,0-4.19-1.31-5.11-4.68h0a.72.72,0,0,0-1.4.09,9,9,0,0,1-4.27,5.81,8.94,8.94,0,0,0,0-3.64.72.72,0,0,0-1.32-.18A11.08,11.08,0,0,1,14,19a3,3,0,0,0-.86-.13,2.86,2.86,0,0,0-.42,0,11.09,11.09,0,0,1,2.93-8,12.1,12.1,0,0,1,9-3.59,12.08,12.08,0,0,1,8.87,3.56A11.3,11.3,0,0,1,36.56,18.9Z" style="fill:#e6e6e6"/><path d="M34.34,21.08l.5.91a.72.72,0,0,0-.32.6,9.89,9.89,0,0,1-19.78,0,.72.72,0,0,0-.72-.72l.57-.87a.72.72,0,0,0,.74,0,.73.73,0,0,0,.25-.89,11.8,11.8,0,0,0,6.22-4.24A12.78,12.78,0,0,1,21.43,18a.73.73,0,0,0,.8.89C24.76,18.57,27,16,28.09,13.7a5.8,5.8,0,0,0,5.23,3.69l.62,2.34a1.93,1.93,0,0,0-.19.22.72.72,0,0,0,.18,1A.7.7,0,0,0,34.34,21.08Z" style="fill:#fff"/><path d="M29.88,38.85l.57,0a5.9,5.9,0,0,1-11.68-.14l.56,0h.06A2.9,2.9,0,0,0,22,35.57v-2a11.46,11.46,0,0,0,2.64.31,11.27,11.27,0,0,0,2.52-.28v2.07a3,3,0,0,0,2.59,3.12h.15Z" style="fill:#fff"/><path d="M20.54,33.16v2.41a1.44,1.44,0,0,1-1.3,1.66l-7,.25c-2,.07-4.14.38-5.66,3.1-1.25,2.27-2.08,3.67-3.22,5.51a23.1,23.1,0,0,1,7.92-28c0,.46,0,.94,0,1.43A3.08,3.08,0,0,0,10.07,22a.33.33,0,0,0,0,.07,3.09,3.09,0,0,0,3,3h.07l.39,0A11.37,11.37,0,0,0,20.54,33.16Z" style="fill:#f2f2f2"/><path d="M14.58,21l-.57.87a.73.73,0,0,0-.72.72c0,.34,0,.68.05,1l-.18,0a1.65,1.65,0,1,1,0-3.3,1.71,1.71,0,0,1,1.15.46A.68.68,0,0,0,14.58,21Z" style="fill:#fff"/><path d="M13.16,23.61,13.09,25a3.09,3.09,0,0,1-3-3L11.51,22A1.65,1.65,0,0,0,13.16,23.61Z" style="fill:#59595c"/><path d="M113.52,27.77a.71.71,0,0,1,.71-.71h5.7a.71.71,0,0,1,0,1.42h-5.7A.71.71,0,0,1,113.52,27.77Z" style="fill:#81d135"/><path d="M115.65,24.2a.71.71,0,0,1,.71-.71h5.7a.71.71,0,0,1,0,1.42h-5.7A.71.71,0,0,1,115.65,24.2Z" style="fill:#81d135"/><path d="M117.79,20.64a.71.71,0,0,1,.71-.71h5.7a.71.71,0,1,1,0,1.42h-5.7A.71.71,0,0,1,117.79,20.64Z" style="fill:#81d135"/><path d="M97.57,17.94l7.52,5.79a2.14,2.14,0,0,0,2.61,0l7.52-5.79a.71.71,0,0,1,.87,1.13l-7.52,5.79a3.57,3.57,0,0,1-4.34,0L96.7,19.07a.71.71,0,0,1,.87-1.13Z" style="fill:#81d135"/><path d="M95.71,14.94h22.8a.71.71,0,1,1,0,1.42H95.71a.71.71,0,0,0-.71.71V31.33a.71.71,0,0,0,.71.71h22.8a.71.71,0,1,1,0,1.42H95.71a2.14,2.14,0,0,1-2.14-2.14V17.08A2.14,2.14,0,0,1,95.71,14.94Z" style="fill:#81d135"/><path d="M101.91,25.13a.71.71,0,0,1,0,1l-4.27,4.27a.71.71,0,0,1-1-1l4.27-4.27A.71.71,0,0,1,101.91,25.13Z" style="fill:#81d135"/><path d="M83.76,10a8.79,8.79,0,0,1-3.08,6.49.7.7,0,0,1-.48.18.72.72,0,0,1-.53-.23.71.71,0,0,1,0-1A7.41,7.41,0,0,0,82.34,10c0-4.71-5.11-8.55-11.4-8.55a13.25,13.25,0,0,0-8.82,3.15,16.52,16.52,0,0,1,3.13-.3c7.07,0,12.82,4.47,12.82,10A8.26,8.26,0,0,1,76.5,19l3,1.79v-2.3a.71.71,0,0,1,1.42,0v3.56a.71.71,0,0,1-.36.62.75.75,0,0,1-.35.09.67.67,0,0,1-.36-.1l-4.27-2.56a14.22,14.22,0,0,1-10.33,4.08,16.14,16.14,0,0,1-2.4-.18,3.55,3.55,0,0,0-2.33.43L56.34,27a.73.73,0,0,1-.36.1.67.67,0,0,1-.35-.09.72.72,0,0,1-.36-.62V22.8a.71.71,0,0,1,1.43,0v2.31l3.08-1.85A4.93,4.93,0,0,1,63,22.64a14.69,14.69,0,0,0,2.19.16,12.59,12.59,0,0,0,9.66-4,7,7,0,0,0,1.74-4.53c0-4.71-5.12-8.55-11.4-8.55a14.47,14.47,0,0,0-4.91.84C56.39,8,53.84,11,53.84,14.25a7.39,7.39,0,0,0,2.62,5.44.72.72,0,0,1,0,1,.72.72,0,0,1-1,0,8.81,8.81,0,0,1-3.08-6.49c0-3.81,2.82-7.3,7.21-9C61.85,2,66.16,0,70.94,0,78,0,83.76,4.47,83.76,10Z" style="fill:#81d135"/><path d="M82.34,10a7.41,7.41,0,0,1-2.62,5.44.71.71,0,0,0,0,1,.72.72,0,0,0,.53.23v1.16a.71.71,0,0,0-.71.71v2.3L76.5,19a8.26,8.26,0,0,0,1.57-4.78c0-5.5-5.75-10-12.82-10a16.52,16.52,0,0,0-3.13.3,13.25,13.25,0,0,1,8.82-3.15C77.23,1.43,82.34,5.26,82.34,10Z" style="fill:#f2f2f2"/><path d="M70.94,12.11a2.14,2.14,0,1,1-2.14,2.14A2.15,2.15,0,0,1,70.94,12.11Zm.72,2.14a.71.71,0,1,0-.72.71A.72.72,0,0,0,71.65,14.25Z" style="fill:#81d135"/><path d="M65.24,12.11a2.14,2.14,0,1,1-2.14,2.14A2.14,2.14,0,0,1,65.24,12.11ZM66,14.25a.71.71,0,1,0-.71.71A.71.71,0,0,0,66,14.25Z" style="fill:#81d135"/><path d="M59.54,12.11a2.14,2.14,0,1,1-2.14,2.14A2.14,2.14,0,0,1,59.54,12.11Zm.71,2.14a.71.71,0,1,0-.71.71A.71.71,0,0,0,60.25,14.25Z" style="fill:#81d135"/><path d="M93.29,57v5.7a3.56,3.56,0,0,1-3.56,3.56H73.34a3.56,3.56,0,0,1-3.56-3.56.71.71,0,0,1,.71-.71h2.14a.71.71,0,0,0,.71-.71V57.13a2.64,2.64,0,0,0-.28-1.19,4.12,4.12,0,0,1-.43-1.83V45a4.11,4.11,0,0,1,.43-1.83A2.65,2.65,0,0,0,73.34,42V38.52a.71.71,0,0,0-.71-.71H68.35a.71.71,0,0,0-.71.71V42a2.64,2.64,0,0,0,.28,1.19A4.11,4.11,0,0,1,68.35,45v9.1a4.11,4.11,0,0,1-.43,1.83,2.68,2.68,0,0,0-.28,1.19v4.19a.71.71,0,0,0,.71.71.71.71,0,1,1,0,1.42,2.13,2.13,0,0,1-2-1.42H64.08a2.14,2.14,0,0,1-2.14-2.14V39.95a2.14,2.14,0,0,1,2.14-2.14.71.71,0,1,1,0,1.42.71.71,0,0,0-.71.71V59.9a.71.71,0,0,0,.71.71h2.14V57.13a4.1,4.1,0,0,1,.43-1.83,2.65,2.65,0,0,0,.28-1.19V45a2.64,2.64,0,0,0-.28-1.19A4.12,4.12,0,0,1,66.22,42V38.52a2.14,2.14,0,0,1,2.14-2.14h4.27a2.13,2.13,0,0,1,2,1.43H88.3a2.14,2.14,0,0,1,2.14,2.14V53.56A3.56,3.56,0,0,1,93.29,57Zm-1.42,5.7V57a2.13,2.13,0,0,0-1.42-2V59.9A2.14,2.14,0,0,1,88.3,62H76.9a.71.71,0,0,1,0-1.42H88.3A.71.71,0,0,0,89,59.9V39.95a.71.71,0,0,0-.71-.71H74.76V42a4.11,4.11,0,0,1-.43,1.83A2.65,2.65,0,0,0,74.05,45v9.09a2.65,2.65,0,0,0,.28,1.19,4.1,4.1,0,0,1,.43,1.83v4.19a2.14,2.14,0,0,1-2.14,2.14h-1.3a2.14,2.14,0,0,0,2,1.42H89.73A2.14,2.14,0,0,0,91.86,62.74Z" style="fill:#81d135"/><path d="M86.16,42.08v5a.71.71,0,0,1-.71.71H76.9a.71.71,0,0,1-.71-.71v-5a.71.71,0,0,1,.71-.71h8.55A.71.71,0,0,1,86.16,42.08Zm-1.42,4.27V42.8H77.61v3.56Z" style="fill:#81d135"/><circle cx="84.74" cy="50.63" r="0.71" style="fill:#81d135"/><circle cx="84.74" cy="54.2" r="0.71" style="fill:#81d135"/><circle cx="84.74" cy="57.76" r="0.71" style="fill:#81d135"/><circle cx="81.18" cy="50.63" r="0.71" style="fill:#81d135"/><circle cx="81.18" cy="54.2" r="0.71" style="fill:#81d135"/><circle cx="81.18" cy="57.76" r="0.71" style="fill:#81d135"/><circle cx="77.61" cy="50.63" r="0.71" style="fill:#81d135"/><circle cx="77.61" cy="54.2" r="0.71" style="fill:#81d135"/><circle cx="77.61" cy="57.76" r="0.71" style="fill:#81d135"/><path d="M73.34,57.13v4.19a.71.71,0,0,1-.71.71H70.49a.71.71,0,0,0-.71.71h-.71a.71.71,0,0,0-.71-.71.71.71,0,0,1-.71-.71V57.13a2.68,2.68,0,0,1,.28-1.19,4.11,4.11,0,0,0,.43-1.83V45a4.11,4.11,0,0,0-.43-1.83A2.64,2.64,0,0,1,67.64,42V38.52a.71.71,0,0,1,.71-.71h4.27a.71.71,0,0,1,.71.71V42a2.65,2.65,0,0,1-.28,1.19A4.11,4.11,0,0,0,72.63,45v9.09a4.12,4.12,0,0,0,.43,1.83A2.64,2.64,0,0,1,73.34,57.13Z" style="fill:#f2f2f2"/></svg>