<svg xmlns="http://www.w3.org/2000/svg" width="95.18" height="62.61" viewBox="0 0 95.18 62.61"><title>improve-loyalty</title><path d="M48.39,62.61A31.11,31.11,0,0,1,36.2,60.15a.75.75,0,1,1,.58-1.38,29.84,29.84,0,0,0,33.92-7.71.75.75,0,0,1,1.12,1A31.34,31.34,0,0,1,48.39,62.61Z" style="fill:#81d135"/><path d="M71.27,11.81a.75.75,0,0,1-.56-.25A29.84,29.84,0,0,0,36.35,4a.75.75,0,1,1-.61-1.37,31.34,31.34,0,0,1,36.09,7.9.75.75,0,0,1-.56,1.25Z" style="fill:#81d135"/><path d="M47.56,33.95a23.12,23.12,0,0,1-1.77,8.9c-.48-1-2.23-4.33-2.7-5.26-1.4-2.74-3.56-3-5.65-3.12l-3.95-.12s-1-1.74-1.19-2.1c-.34-.75-.86-1.12-1.41-1a7.54,7.54,0,0,1-1.31.08H29.2V30.23a10.35,10.35,0,0,0,6.42-8.15l.33,0a3.08,3.08,0,0,0,1.84-5.55c0-.48,0-1,0-1.42A22.9,22.9,0,0,1,47.56,33.95Z" style="fill:#f2f2f2"/><path d="M37.59,13.19A24.53,24.53,0,0,1,26.92,58.36c-.46.67-1,1.49-1.36,2a1.15,1.15,0,0,1-2,0c-.25-.33-.85-1.25-1.38-2A24.53,24.53,0,0,1,11.48,13.17,12.4,12.4,0,0,1,14.65,7a13.47,13.47,0,0,1,9.88-4,12.22,12.22,0,0,1,3.1.31A3.55,3.55,0,0,1,29.7,4.66,3.24,3.24,0,0,1,32.17,5,11.49,11.49,0,0,1,37.59,13.19Zm8.2,29.66a23.1,23.1,0,0,0-8-27.72c0,.47,0,.94,0,1.42a3.08,3.08,0,0,1-1.84,5.55l-.33,0a10.35,10.35,0,0,1-6.42,8.15v1.05h.39a7.54,7.54,0,0,0,1.31-.08c.55-.08,1.07.29,1.41,1,.19.36,1.19,2.1,1.19,2.1l3.95.12c2.09.08,4.25.38,5.65,3.12C43.57,38.51,45.31,41.88,45.79,42.84ZM45,44.52c-.7-1.43-2.73-5.36-3.21-6.29-1-2.05-2.56-2.26-4.42-2.33l-3.88-.12-3,6a.73.73,0,0,1-1,.31l-2.59-1.35,0,.29a1.37,1.37,0,0,1-.6,1.32l-.31.19c.31,2,2,12.79,2,13A2.31,2.31,0,0,1,28,56.71a23,23,0,0,0,8.68-3.15V47.21a.72.72,0,0,1,1.44,0V52.6A22.87,22.87,0,0,0,45,44.52ZM37.59,19a1.64,1.64,0,0,0-1.64-1.64,1.71,1.71,0,0,0-1.15.45.72.72,0,0,1-.59.31.72.72,0,0,1-.72-.72h0v-2.8c0-2.22-.73-2.41-1.47-2.41a2.84,2.84,0,0,1-2.31-.92,5.09,5.09,0,0,1-1.86.79,21.73,21.73,0,0,1-9.63.26,2.28,2.28,0,0,0-1.9.39,2.36,2.36,0,0,0-.74,1.89v2.83h0a.71.71,0,0,1-.3.56.72.72,0,0,1-.82,0,.7.7,0,0,1-.19-.19,1.71,1.71,0,0,0-1.15-.45,1.64,1.64,0,1,0,0,3.29l.16,0c0-.33,0-.66,0-1a.72.72,0,0,1,1.44,0c0,5.89,4,10,9.85,10,6,0,9.86-3.92,9.86-10a.72.72,0,0,1,.31-.6.7.7,0,0,1,.4-.12.72.72,0,0,1,.72.72c0,.34,0,.67,0,1l.16,0A1.65,1.65,0,0,0,37.59,19Zm-1.23-3c.06-4.26-1.71-7.78-4.94-9.7a1.73,1.73,0,0,0-1-.25,4.91,4.91,0,0,1,.22,1.44s0,1.78,0,2h0c0,.81.24,1.3,1.44,1.3,1.93,0,2.91,1.29,2.91,3.84v1.5a3.19,3.19,0,0,1,1-.18A3.11,3.11,0,0,1,36.36,16ZM32.25,35.07l-.7-1.23c-1.51,1.39-3.71,3.23-5.68,4.73l3.64,1.9ZM30.7,32.68a8.72,8.72,0,0,1-1.12,0H29.2a.89.89,0,0,0,.55.81ZM29.14,9.51s0-2.05,0-2.05a2.68,2.68,0,0,0-1.85-2.72,10.89,10.89,0,0,0-2.79-.27A12,12,0,0,0,15.69,8a11.24,11.24,0,0,0-3,8,3.27,3.27,0,0,1,.46,0,3.21,3.21,0,0,1,1,.18v-1.5a3.79,3.79,0,0,1,1.26-3,3.69,3.69,0,0,1,3.08-.7,20.05,20.05,0,0,0,9-.23C28.74,10.35,29.06,10.12,29.14,9.51Zm-.51,25a2.34,2.34,0,0,1-.87-1.94V30.69a13.41,13.41,0,0,1-3.23.38,12.71,12.71,0,0,1-3.11-.37v2a2.37,2.37,0,0,1-.93,2,47.26,47.26,0,0,0,4,3.13C25.84,36.8,27.31,35.62,28.62,34.51Zm-2,21.87a.69.69,0,0,0,.07-.57c0-.23-1.23-7.93-1.95-12.58a.8.8,0,0,1-.41,0c-.72,4.66-1.91,12.36-1.94,12.55s-.05.44.07.6c.29.4,1.64,2.38,2.08,3C24.93,58.81,26.32,56.78,26.61,56.38ZM25.56,41.21c0-.36-.12-.82-.18-1.2H23.69c-.09.4-.15.83-.2,1.2l1,.61C24.81,41.66,25.56,41.21,25.56,41.21Zm-5.94-.72,3.54-1.88a42.9,42.9,0,0,1-5.61-4.74l-.67,1.21ZM23,42.54l-.31-.19a1.38,1.38,0,0,1-.6-1.31c0-.09,0-.18,0-.27L19.64,42.1a.73.73,0,0,1-1-.31l-3-6-3.88.12c-1.86.07-3.38.28-4.42,2.33-.5,1-2.56,4.94-3.24,6.34a22.84,22.84,0,0,0,7,8.06V47.21a.72.72,0,0,1,1.44,0V53.6a22.94,22.94,0,0,0,8.61,3.12A2.21,2.21,0,0,1,21,55.61C21.05,55.33,22.72,44.54,23,42.54ZM20,31.25v-1a10.56,10.56,0,0,1-6.53-8.17l-.34,0a3.08,3.08,0,0,1-1.92-5.49l0-.07c0-.47,0-.94,0-1.39A22.9,22.9,0,0,0,1.5,33.95a23.2,23.2,0,0,0,1.79,9c.48-1,2.24-4.35,2.74-5.33,1.4-2.74,3.56-3,5.65-3.12l3.94-.12L17,31.76a1.36,1.36,0,0,1,1.15-.56,8.83,8.83,0,0,0,1.29.06Zm-.58,2.42a1.14,1.14,0,0,0,.58-1h-.46a9.19,9.19,0,0,1-1.12,0S19.07,33.35,19.4,33.67Z" style="fill:#59595c"/><path d="M41.81,38.24c.48.93,2.51,4.86,3.21,6.29a22.87,22.87,0,0,1-6.92,8.07V47.21a.72.72,0,0,0-1.44,0v6.35A23,23,0,0,1,28,56.71,2.31,2.31,0,0,0,28,55.58c0-.25-1.71-11-2-13l.31-.19a1.37,1.37,0,0,0,.6-1.32l0-.29,2.59,1.35a.73.73,0,0,0,1-.31l3-6,3.88.12C39.25,36,40.76,36.19,41.81,38.24Z" style="fill:#fff"/><path d="M35.95,17.37a1.64,1.64,0,1,1,0,3.29l-.16,0c0-.33,0-.66,0-1a.72.72,0,0,0-.72-.72.7.7,0,0,0-.4.12l-.49-.9a.72.72,0,0,0,.59-.31A1.71,1.71,0,0,1,35.95,17.37Z" style="fill:#fff"/><path d="M31.43,6.26c3.23,1.93,5,5.44,4.94,9.7a3.11,3.11,0,0,0-.42,0,3.19,3.19,0,0,0-1,.18v-1.5c0-2.55-1-3.84-2.91-3.84-1.2,0-1.44-.5-1.44-1.3h0c0-.22,0-2,0-2A4.91,4.91,0,0,0,30.39,6,1.73,1.73,0,0,1,31.43,6.26Z" style="fill:#fff"/><path d="M34.2,18.13l.49.9a.72.72,0,0,0-.31.6c0,6.08-3.87,10-9.86,10-5.8,0-9.85-4.11-9.85-10a.72.72,0,0,0-.72-.72l.49-.9a.72.72,0,0,0,.82,0,.71.71,0,0,0,.3-.56h0V14.61a2.36,2.36,0,0,1,.74-1.89,2.28,2.28,0,0,1,1.9-.39,21.73,21.73,0,0,0,9.63-.26,5.09,5.09,0,0,0,1.86-.79A2.84,2.84,0,0,0,32,12.2c.74,0,1.47.19,1.47,2.41v2.8h0a.72.72,0,0,0,.72.72Z" style="fill:#fff"/><path d="M31.55,33.85l.7,1.23-2.74,5.41-3.64-1.9C27.84,37.07,30,35.24,31.55,33.85Z" style="fill:#fff"/><path d="M29.17,7.45s0,2,0,2.05c-.08.62-.4.85-1.65,1.17a20.05,20.05,0,0,1-9,.23,3.69,3.69,0,0,0-3.08.7,3.79,3.79,0,0,0-1.26,3v1.5a3.21,3.21,0,0,0-1-.18,3.27,3.27,0,0,0-.46,0,11.24,11.24,0,0,1,3-8,12,12,0,0,1,8.84-3.54,10.89,10.89,0,0,1,2.79.27A2.68,2.68,0,0,1,29.17,7.45Z" style="fill:#fff"/><path d="M27.76,32.57a2.34,2.34,0,0,0,.87,1.94c-1.31,1.11-2.78,2.3-4.1,3.29a47.26,47.26,0,0,1-4-3.13,2.37,2.37,0,0,0,.93-2v-2a12.71,12.71,0,0,0,3.11.37,13.41,13.41,0,0,0,3.23-.38Z" style="fill:#fff"/><path d="M26.68,55.81a.69.69,0,0,1-.07.57c-.29.4-1.68,2.43-2.08,3-.44-.64-1.79-2.62-2.08-3-.12-.17-.11-.33-.07-.6s1.22-7.89,1.94-12.55a.8.8,0,0,0,.41,0C25.45,47.88,26.65,55.58,26.68,55.81Z" style="fill:#ccc"/><path d="M23.16,38.6l-3.54,1.88-2.74-5.41.67-1.21A42.9,42.9,0,0,0,23.16,38.6Z" style="fill:#fff"/><path d="M22.72,42.35l.31.19c-.31,2-2,12.79-2,13.07a2.21,2.21,0,0,0,.07,1.11,22.94,22.94,0,0,1-8.61-3.12V47.21a.72.72,0,0,0-1.44,0v5.43a22.84,22.84,0,0,1-7-8.06c.68-1.4,2.74-5.36,3.24-6.34,1-2.05,2.56-2.26,4.42-2.33l3.88-.12,3,6a.73.73,0,0,0,1,.31l2.52-1.33c0,.09,0,.19,0,.27A1.38,1.38,0,0,0,22.72,42.35Z" style="fill:#fff"/><path d="M20,30.25v1h-.5a8.83,8.83,0,0,1-1.29-.06,1.36,1.36,0,0,0-1.15.56l-1.42,2.59-3.94.12c-2.09.08-4.25.38-5.65,3.12-.5,1-2.26,4.37-2.74,5.33a23.2,23.2,0,0,1-1.79-9,22.9,22.9,0,0,1,9.73-18.8c0,.46,0,.92,0,1.39l0,.07a3.08,3.08,0,0,0,1.92,5.49l.34,0A10.56,10.56,0,0,0,20,30.25Z" style="fill:#f2f2f2"/><path d="M14.45,18l-.49.9a.72.72,0,0,0-.72.72c0,.34,0,.67,0,1l-.16,0a1.64,1.64,0,1,1,0-3.29,1.71,1.71,0,0,1,1.15.45A.7.7,0,0,0,14.45,18Z" style="fill:#fff"/><path d="M94.14,41.49A1.68,1.68,0,0,1,95,43.7L92.4,49.92a1.54,1.54,0,0,1-1.06,1,2.27,2.27,0,0,1-.51.09,1.9,1.9,0,0,1-.94-.3c-1-.63-2.42-1.57-3.7-2.38-1.58-1-2.34-.59-2.34-.59l-.08,0-.12,0s-2.47.73-4.77,1.53-2.89.68-3.62.51l-.09,0a4.55,4.55,0,0,1-1.06-.47,20.5,20.5,0,0,1-2.64-1.66l-7-5.28a2.58,2.58,0,0,1-.85-2.81,2.36,2.36,0,0,1,2.81-1.7h.08l6,2.55a1.21,1.21,0,0,1,.22-.26,2.76,2.76,0,0,1,2.94-.76,3.44,3.44,0,0,0,2,0L79.11,39a25.91,25.91,0,0,1,3.36-1.15,6.77,6.77,0,0,1,2.08,0,11.57,11.57,0,0,1,2.77.77Zm-3.32,7.79L93.46,43l-2.17-.9L88.82,48C89.59,48.47,90.27,48.94,90.82,49.28ZM87.42,47l2.38-5.62L86.73,40a9.17,9.17,0,0,0-2.3-.64,5.17,5.17,0,0,0-.81,0,3.24,3.24,0,0,0-.68,0,19.91,19.91,0,0,0-3.11,1.06L78.3,41a5,5,0,0,1-3.19-.09,1.2,1.2,0,0,0-1.2.43.62.62,0,0,0-.12.17.31.31,0,0,1,0,.22v0a1.74,1.74,0,0,0,.39.42,4.69,4.69,0,0,0,1.28.81l0,0a4,4,0,0,0,1.83.46c.93-.12,3.19-.72,3.23-.72a.83.83,0,0,1,1,.59.86.86,0,0,1-.6,1.07,31.15,31.15,0,0,1-3.49.77,5.37,5.37,0,0,1-2.81-.64,7.51,7.51,0,0,1-1.71-1.07,4,4,0,0,1-.85-1.15A.82.82,0,0,1,72,42l-6-2.51c-.21,0-.72,0-.81.38-.17.73.22,1.06.3,1l7,5.28A16.28,16.28,0,0,0,74.9,47.7a3.18,3.18,0,0,0,.68.34l.13,0c.34.09.68.21,2.64-.47s4.34-1.36,4.77-1.49,1.87-.64,4,.68Z" style="fill:#81d135"/><path d="M91.67,27.48a.85.85,0,0,1,0,1.7h-3.4a.85.85,0,1,1,0-1.7Z" style="fill:#81d135"/><path d="M89.8,41.36,87.42,47l-.3-.17c-2.13-1.32-3.53-.89-4-.68s-2.69.77-4.77,1.49-2.3.55-2.64.47l-.13,0a3.18,3.18,0,0,1-.68-.34,16.28,16.28,0,0,1-2.39-1.53l-7-5.28c-.09.09-.47-.25-.3-1,.09-.38.6-.43.81-.38L72,42a.82.82,0,0,0,.08.3,4,4,0,0,0,.85,1.15,7.51,7.51,0,0,0,1.71,1.07,5.37,5.37,0,0,0,2.81.64,31.15,31.15,0,0,0,3.49-.77.86.86,0,0,0,.6-1.07.83.83,0,0,0-1-.59s-2.3.59-3.23.72A4,4,0,0,1,75.45,43l0,0a4.69,4.69,0,0,1-1.28-.81,1.74,1.74,0,0,1-.39-.42v0a.31.31,0,0,0,0-.22.62.62,0,0,1,.13-.17,1.2,1.2,0,0,1,1.2-.43A5,5,0,0,0,78.3,41l1.53-.51a19.91,19.91,0,0,1,3.11-1.06,3.24,3.24,0,0,1,.68,0,5.17,5.17,0,0,1,.81,0,9.17,9.17,0,0,1,2.3.64Z" style="fill:#f2f2f2"/><path d="M87.8,16.58a.86.86,0,0,1,.09,1.19l-2.25,2.6a.83.83,0,0,1-1.19.09.87.87,0,0,1-.09-1.2l2.26-2.59A.86.86,0,0,1,87.8,16.58Z" style="fill:#81d135"/><path d="M85,26.76c0,2.81-1.83,4.77-3.79,6.52l-5.7,4.56A.83.83,0,0,1,75,38a.75.75,0,0,1-.51-.17l-5.71-4.6c-1.92-1.7-3.7-3.66-3.7-6.55a.85.85,0,1,1,1.7,0c0,2.13,1.2,3.57,3.11,5.28l5.15,4.13L80.22,32c1.91-1.7,3.1-3.15,3.1-5.28a4.85,4.85,0,0,0-4.85-4.85,4.76,4.76,0,0,0-2.9,1,.9.9,0,0,1-1,0,4.76,4.76,0,0,0-5.19-.39.84.84,0,0,1-1.15-.34l0-.11a.83.83,0,0,1,.39-1,6.61,6.61,0,0,1,3.11-.77,6.37,6.37,0,0,1,3.41,1,6.53,6.53,0,0,1,10,5.58Z" style="fill:#81d135"/><path d="M75.92,13.86v3.4a.85.85,0,0,1-1.7,0v-3.4a.85.85,0,0,1,1.7,0Z" style="fill:#81d135"/><path d="M67.45,22.67a.88.88,0,0,1,.22,1.2l-.39.59a.9.9,0,0,1-.77.47,1,1,0,0,1-.29-.06l-.09,0a.86.86,0,0,1-.39-1.15c.17-.25.34-.55.52-.81a.9.9,0,0,1,.71-.36A.86.86,0,0,1,67.45,22.67Z" style="fill:#81d135"/><path d="M65.74,19.22a.86.86,0,0,1-.08,1.19.68.68,0,0,1-.55.25.77.77,0,0,1-.64-.3l-2.25-2.55a.85.85,0,1,1,1.27-1.11Z" style="fill:#81d135"/><path d="M61.87,27.48a.85.85,0,0,1,0,1.7H58.46a.85.85,0,0,1,0-1.7Z" style="fill:#81d135"/></svg>