<svg xmlns="http://www.w3.org/2000/svg" xmlns:xlink="http://www.w3.org/1999/xlink" width="90" height="68.9" viewBox="0 0 90 68.9"><defs><clipPath id="a"><rect width="90" height="68.9" style="fill:none"/></clipPath></defs><title>media-icon</title><g style="clip-path:url(#a)"><path d="M12.4,49.8a4.2,4.2,0,1,1,4.2-4.2,4.23,4.23,0,0,1-4.2,4.2m0-7.4a3.1,3.1,0,1,0,3.1,3.1,3.12,3.12,0,0,0-3.1-3.1" style="fill:#3c90d8"/><path d="M12.4,49.8a4.2,4.2,0,1,1,4.2-4.2A4.23,4.23,0,0,1,12.4,49.8Zm0-7.4a3.1,3.1,0,1,0,3.1,3.1A3.12,3.12,0,0,0,12.4,42.4Z" style="fill:none;stroke:#3c90d8;stroke-miterlimit:10"/><path d="M45.5,57.7a.65.65,0,0,1-.6-.6V51a.65.65,0,0,1,.6-.6H66.4a.65.65,0,0,1,.6.6v6.1a.65.65,0,0,1-.6.6Zm.6-1.1H65.9v-5H46.1Z" style="fill:#3c90d8"/><path d="M45.5,57.7a.65.65,0,0,1-.6-.6V51a.65.65,0,0,1,.6-.6H66.4a.65.65,0,0,1,.6.6v6.1a.65.65,0,0,1-.6.6Zm.6-1.1H65.9v-5H46.1Z" style="fill:none;stroke:#3c90d8;stroke-miterlimit:10"/><path d="M27.6,19a.76.76,0,0,1-.4-.2l-2.9-2.9a.52.52,0,0,1-.2-.4.76.76,0,0,1,.2-.4.5.5,0,0,1,.8,0l2.5,2.5L33,12.2a.57.57,0,1,1,.8.8L28,18.8a.76.76,0,0,1-.4.2" style="fill:#3c90d8"/><path d="M27.6,19a.76.76,0,0,1-.4-.2l-2.9-2.9a.52.52,0,0,1-.2-.4.76.76,0,0,1,.2-.4.5.5,0,0,1,.8,0l2.5,2.5L33,12.2a.57.57,0,1,1,.8.8L28,18.8A.76.76,0,0,1,27.6,19Z" style="fill:none;stroke:#3c90d8;stroke-miterlimit:10"/><path d="M40.6,16.1a.6.6,0,1,1,0-1.2H58.1a.6.6,0,1,1,0,1.2Z" style="fill:#3c90d8"/><path d="M40.6,16.1a.6.6,0,1,1,0-1.2H58.1a.6.6,0,1,1,0,1.2Z" style="fill:none;stroke:#3c90d8;stroke-miterlimit:10"/><path d="M27.6,31.6a.76.76,0,0,1-.4-.2l-2.9-2.9a.57.57,0,1,1,.8-.8l2.5,2.5L33,24.8a.5.5,0,0,1,.8,0,.61.61,0,0,1,0,.8L28,31.4a.76.76,0,0,1-.4.2" style="fill:#3c90d8"/><path d="M27.6,31.6a.76.76,0,0,1-.4-.2l-2.9-2.9a.57.57,0,1,1,.8-.8l2.5,2.5L33,24.8a.5.5,0,0,1,.8,0,.61.61,0,0,1,0,.8L28,31.4A.76.76,0,0,1,27.6,31.6Z" style="fill:none;stroke:#3c90d8;stroke-miterlimit:10"/><path d="M15.5,60.1a.5.5,0,0,1-.8,0l-4.6-4.6L1.5,64.1v3.1H39.1V57.5L28.7,47Z" style="fill:none;stroke:#3c90d8;stroke-miterlimit:10"/><path d="M36.5,34.8h.3l-.2-.7a12.25,12.25,0,0,1-.2-1.9,9.5,9.5,0,0,1,17.7-4.8l.2.3h3.8l.2-.3a9.49,9.49,0,0,1,8.2-4.7h.7V1.7H15.7V34.8H36.5Z" style="fill:none;stroke:#3c90d8;stroke-miterlimit:10"/><path d="M74.8,32.1a8.45,8.45,0,0,0-6.9-8.2h-.5c-.3,0-.6-.1-1-.1a8.4,8.4,0,1,0,0,16.8,4.83,4.83,0,0,0,1.2-.1A8.66,8.66,0,0,0,74.8,32.1Z" style="fill:none;stroke:#3c90d8;stroke-miterlimit:10"/><path d="M1.6,62.5l8.2-8.2a.5.5,0,0,1,.8,0l4.6,4.6L28.3,45.8a.5.5,0,0,1,.8,0L39.2,55.9v-20H1.6Z" style="fill:none;stroke:#3c90d8;stroke-miterlimit:10"/><path d="M54.9,28.8h0l.2.6a7.66,7.66,0,0,1,.4,2.7,9.48,9.48,0,0,1-3.1,7l-1.1,1h6.8a.6.6,0,1,1,0,1.2H48.4a10.07,10.07,0,0,1-2.5.3,10.68,10.68,0,0,1-2.5-.3H40.2v2.1H67V41.6h-.7a9.56,9.56,0,0,1-9.5-9.5,8.42,8.42,0,0,1,.4-2.7l.2-.8H54.9Z" style="fill:none;stroke:#3c90d8;stroke-miterlimit:10"/><polygon points="75.8 55.8 84.1 64.2 88.2 64.2 88.2 47.5 84.1 47.5 75.8 55.8" style="fill:none;stroke:#3c90d8;stroke-miterlimit:10"/><path d="M43.5,40.1h.1a9,9,0,0,0,4.6,0h.1a8.56,8.56,0,0,0,6-8,8.4,8.4,0,0,0-16.8,0,7.8,7.8,0,0,0,.3,2.2l.1.4h1.7a.65.65,0,0,1,.6.6v2.9l.2.2A8.65,8.65,0,0,0,43.5,40.1Z" style="fill:none;stroke:#3c90d8;stroke-miterlimit:10"/><polygon points="40.3 66.2 40.3 67.1 74.4 67.1 74.4 44.5 40.3 44.5 40.3 46.5 40.3 66.2" style="fill:none;stroke:#3c90d8;stroke-miterlimit:10"/><path d="M88.7,46.3H83.9a.76.76,0,0,0-.4.2l-8,8V43.9a.64.64,0,0,0-.6-.6H68.2V41.4l.5-.1a9.48,9.48,0,0,0,0-18.4l-.5-.1V1.1a.58.58,0,0,0-.6-.6H15.1a.65.65,0,0,0-.6.6V34.8h1.1V1.7H67.1V22.6h-.7a9.61,9.61,0,0,0-8.2,4.7l-.2.3-.5,1.1-.2.7a8,8,0,0,0-.4,2.7,9.56,9.56,0,0,0,9.5,9.5h.7v1.8H40.3v1.1H74.4V67.1H40.3v1.1H75a.64.64,0,0,0,.6-.6V57.2l8,8a.52.52,0,0,0,.4.2h4.9a.58.58,0,0,0,.6-.6V46.9c-.2-.3-.4-.6-.8-.6M66.4,40.5a8.4,8.4,0,0,1,0-16.8,3.4,3.4,0,0,1,1,.1h.5a8.36,8.36,0,0,1-.2,16.5,5.11,5.11,0,0,1-1.3.2M88.2,64.2H84.1l-8.4-8.4,8.4-8.3h4.1Z" style="fill:#3c90d8"/><path d="M88.7,46.3H83.9a.76.76,0,0,0-.4.2l-8,8V43.9a.64.64,0,0,0-.6-.6H68.2V41.4l.5-.1a9.48,9.48,0,0,0,0-18.4l-.5-.1V1.1a.58.58,0,0,0-.6-.6H15.1a.65.65,0,0,0-.6.6V34.8h1.1V1.7H67.1V22.6h-.7a9.61,9.61,0,0,0-8.2,4.7l-.2.3-.5,1.1-.2.7a8,8,0,0,0-.4,2.7,9.56,9.56,0,0,0,9.5,9.5h.7v1.8H40.3v1.1H74.4V67.1H40.3v1.1H75a.64.64,0,0,0,.6-.6V57.2l8,8a.52.52,0,0,0,.4.2h4.9a.58.58,0,0,0,.6-.6V46.9C89.3,46.6,89.1,46.3,88.7,46.3ZM66.4,40.5a8.4,8.4,0,0,1,0-16.8,3.4,3.4,0,0,1,1,.1h.5a8.36,8.36,0,0,1-.2,16.5A5.11,5.11,0,0,1,66.4,40.5ZM88.2,64.2H84.1l-8.4-8.4,8.4-8.3h4.1Z" style="fill:none;stroke:#3c90d8;stroke-miterlimit:10"/><polygon points="54.9 28.8 54.9 28.7 57.5 28.7 58.1 27.5 54.3 27.5 54.9 28.8" style="fill:#3c90d8"/><polygon points="54.9 28.8 54.9 28.7 57.5 28.7 58.1 27.5 54.3 27.5 54.9 28.8" style="fill:none;stroke:#3c90d8;stroke-miterlimit:10"/><path d="M40.3,66.2V35.4a.65.65,0,0,0-.6-.6H1.1a.65.65,0,0,0-.6.6V67.8a.65.65,0,0,0,.6.6H40.3V66.2Zm-1.1.9H1.6V64l8.6-8.6L14.8,60a.52.52,0,0,0,.4.2.76.76,0,0,0,.4-.2L28.7,46.9,39.2,57.4Zm0-11.2L29,45.8a.5.5,0,0,0-.8,0L15.1,58.9l-4.6-4.6a.5.5,0,0,0-.8,0L1.5,62.5V35.9H39.1Z" style="fill:#3c90d8"/><path d="M40.3,66.2V35.4a.65.65,0,0,0-.6-.6H1.1a.65.65,0,0,0-.6.6V67.8a.65.65,0,0,0,.6.6H40.3V66.2Zm-1.1.9H1.6V64l8.6-8.6L14.8,60a.52.52,0,0,0,.4.2.76.76,0,0,0,.4-.2L28.7,46.9,39.2,57.4Zm0-11.2L29,45.8a.5.5,0,0,0-.8,0L15.1,58.9l-4.6-4.6a.5.5,0,0,0-.8,0L1.5,62.5V35.9H39.1Z" style="fill:none;stroke:#3c90d8;stroke-miterlimit:10"/><path d="M40.3,39.5v1.7h3.1s-2.4-.7-3.1-1.7" style="fill:#3c90d8"/><path d="M40.3,39.5v1.7h3.1S41,40.5,40.3,39.5Z" style="fill:none;stroke:#3c90d8;stroke-miterlimit:10"/><path d="M58.1,40.1H51.3l1.1-1a9.32,9.32,0,0,0,3.1-7,8.42,8.42,0,0,0-.4-2.7l-.2-.6-.6-1.3-.2-.3A9.5,9.5,0,0,0,36.4,32a11.08,11.08,0,0,0,.2,1.9l.2.7H38l-.1-.3a8.33,8.33,0,0,1-.3-2.2,8.4,8.4,0,1,1,10.8,8h-.1a9,9,0,0,1-4.6,0h-.1a7.53,7.53,0,0,1-3-1.7l-.2-.2v1.2c.7,1,3.1,1.7,3.1,1.7h.1a10.57,10.57,0,0,0,5,0h9.7a.65.65,0,0,0,.6-.6c0-.3-.5-.4-.8-.4" style="fill:#3c90d8"/><path d="M58.1,40.1H51.3l1.1-1a9.32,9.32,0,0,0,3.1-7,8.42,8.42,0,0,0-.4-2.7l-.2-.6-.6-1.3-.2-.3A9.5,9.5,0,0,0,36.4,32a11.08,11.08,0,0,0,.2,1.9l.2.7H38l-.1-.3a8.33,8.33,0,0,1-.3-2.2,8.4,8.4,0,1,1,10.8,8h-.1a9,9,0,0,1-4.6,0h-.1a7.53,7.53,0,0,1-3-1.7l-.2-.2v1.2c.7,1,3.1,1.7,3.1,1.7h.1a10.57,10.57,0,0,0,5,0h9.7a.65.65,0,0,0,.6-.6C58.9,40.2,58.4,40.1,58.1,40.1Z" style="fill:none;stroke:#3c90d8;stroke-miterlimit:10"/></g></svg>