<svg xmlns="http://www.w3.org/2000/svg" xmlns:xlink="http://www.w3.org/1999/xlink" width="76.19" height="68.9" viewBox="0 0 76.19 68.9"><defs><clipPath id="a"><rect width="76.19" height="68.9" style="fill:none"/></clipPath><clipPath id="b"><rect x="55.53" y="3.3" width="20.11" height="20.11" style="fill:none"/></clipPath></defs><title>press-icon</title><g style="clip-path:url(#a)"><path d="M55,68.35v-3.4H15v3.4H7.36v-3.4H2.82V35.47H.55V14.61a5,5,0,0,1,5-5H23.22V5.53a5,5,0,0,1,5-5h13.6a5,5,0,0,1,5,5V9.62h17.7a5,5,0,0,1,5,5V35.47H67.2V64.95H62.66v3.4Zm.89-.9h5.92V64.93H55.87Zm-47.64,0h5.92V64.93H8.23ZM3.71,64H66.32V35.45H40V46.79H30V35.45H3.71ZM30.91,45.92h8.19V42.26H30.91Zm0-4.54h8.19V35.45H30.91ZM5.53,10.5a4.1,4.1,0,0,0-4.1,4.1v20H68.58v-20a4.1,4.1,0,0,0-4.1-4.1ZM28.22,1.44a4.1,4.1,0,0,0-4.1,4.1v4.1h21.8V5.53a4.1,4.1,0,0,0-4.1-4.1Z" style="fill:#3c90d8"/><path d="M63.21,68.9H54.43V65.5H15.59v3.4H6.81V65.5H2.27V36H0V14.61A5.54,5.54,0,0,1,5.53,9.08H22.67V5.53A5.54,5.54,0,0,1,28.2,0h13.6a5.54,5.54,0,0,1,5.53,5.53V9.06H64.49A5.54,5.54,0,0,1,70,14.6V36H67.75V65.5H63.21Zm-6.8-2h4.82V65.48H56.42Zm-47.64,0H13.6V65.48H8.78ZM4.26,63.5H65.78V36H40.54V47.34H29.48V36H4.26ZM31.46,45.37h7.09V42.81H31.46Zm0-4.54h7.09V36H31.46ZM2,34H68V14.6a3.55,3.55,0,0,0-3.55-3.55h-59A3.55,3.55,0,0,0,2,14.6ZM24.67,9.08h20.7V5.53A3.55,3.55,0,0,0,41.82,2H28.22a3.55,3.55,0,0,0-3.55,3.55Z" style="fill:#3c90d8"/><rect x="6.22" y="15.29" width="14.49" height="0.89" style="fill:#3c90d8"/><rect x="5.67" y="14.74" width="15.59" height="1.99" style="fill:#3c90d8"/><rect x="6.22" y="22.1" width="14.49" height="0.89" style="fill:#3c90d8"/><rect x="5.67" y="21.55" width="15.59" height="1.99" style="fill:#3c90d8"/><rect x="6.22" y="28.89" width="14.49" height="0.89" style="fill:#3c90d8"/><rect x="5.67" y="28.34" width="15.59" height="1.99" style="fill:#3c90d8"/><rect x="49.31" y="15.29" width="14.49" height="0.89" style="fill:#3c90d8"/><rect x="48.76" y="14.74" width="15.59" height="1.99" style="fill:#3c90d8"/><rect x="49.31" y="22.1" width="14.49" height="0.89" style="fill:#3c90d8"/><rect x="48.76" y="21.55" width="15.59" height="1.99" style="fill:#3c90d8"/><rect x="49.31" y="28.89" width="14.49" height="0.89" style="fill:#3c90d8"/><rect x="48.76" y="28.34" width="15.59" height="1.99" style="fill:#3c90d8"/><g style="clip-path:url(#b)"><g style="clip-path:url(#b)"><path d="M75.23,12.95a.4.4,0,1,1,0,.8A9.26,9.26,0,0,0,66,23a.4.4,0,1,1-.8,0,9.26,9.26,0,0,0-9.25-9.25.4.4,0,1,1,0-.8A9.26,9.26,0,0,0,65.18,3.7a.4.4,0,0,1,.8,0,9.26,9.26,0,0,0,9.25,9.25m-2.82.4a10.09,10.09,0,0,1-6.83-6.83,10.1,10.1,0,0,1-6.83,6.83,10.1,10.1,0,0,1,6.83,6.83,10.09,10.09,0,0,1,6.83-6.83" style="fill:#3c90d8"/><path d="M65.58,6.52a10.09,10.09,0,0,0,6.83,6.83,10.09,10.09,0,0,0-6.83,6.83,10.1,10.1,0,0,0-6.83-6.83,10.1,10.1,0,0,0,6.83-6.83" style="fill:#fff"/></g></g><path d="M65.58,24a1,1,0,0,1-1-1,8.73,8.73,0,0,0-8.7-8.7,1,1,0,0,1,0-1.9,8.73,8.73,0,0,0,8.7-8.7,1,1,0,0,1,1.9,0,8.72,8.72,0,0,0,8.7,8.7,1,1,0,1,1,0,1.9,8.72,8.72,0,0,0-8.7,8.7A1,1,0,0,1,65.58,24Zm.15-1h0Zm-8.11-9.65a9.85,9.85,0,0,1,8,8,9.84,9.84,0,0,1,8-8,9.84,9.84,0,0,1-8-8A9.85,9.85,0,0,1,57.62,13.35ZM65.73,3.7Z" style="fill:#3c90d8"/></g></svg>