<svg xmlns="http://www.w3.org/2000/svg" width="80.63" height="56.36"><path d="M54.72 5.35v16.31c-.35-.83-.59-1.45-.75-1.86l-.26-.74c-1-2.95-2.16-5.53-4.91-4.89a3 3 0 0 0-2 1.25c-.8 1.36-.18 3.68.32 5.54s2.4 7.82 4.46 14v.19c1 3 1.89 5.62 2.63 7.73l.09.26a3.76 3.76 0 0 1-1.21 1.48c-.57-1.61-1.24-3.57-2.11-6.14l-.26-.76-.22.77a17.21 17.21 0 0 0-.68 6.91H33.67a3.9 3.9 0 0 1-3.89-3.89V5.35a3.9 3.9 0 0 1 3.89-3.89h17.16a3.9 3.9 0 0 1 3.89 3.89z" fill="none"/><path d="M42.35 36.46a3.49 3.49 0 1 0 3.48 3.48 3.49 3.49 0 0 0-3.48-3.48zm0 4.84a1.35 1.35 0 1 1 1.34-1.36 1.35 1.35 0 0 1-1.34 1.36z" fill="#59595c" stroke="#f2f2f2" stroke-miterlimit="10"/><path d="M43.57 6.58h-5.69a1 1 0 0 1-1.07-.85 1 1 0 0 1 1.07-.85h5.69a1 1 0 0 1 1.07.85 1 1 0 0 1-1.07.85zm3.24 0h-.34a1 1 0 0 1-1.07-.85 1 1 0 0 1 1.07-.85h.34a1 1 0 0 1 1.07.85 1 1 0 0 1-1.07.85z" fill="#59595c"/><path d="M55.08 21.19a.82.82 0 0 0 .82-.82V4.81A4.42 4.42 0 0 0 51.48.4H33.21a4.42 4.42 0 0 0-4.41 4.41V42.3a4.42 4.42 0 0 0 4.41 4.41h15.9a.82.82 0 0 0 0-1.63h-15.9a2.78 2.78 0 0 1-2.78-2.78V4.81A2.78 2.78 0 0 1 33.21 2h18.27a2.78 2.78 0 0 1 2.78 2.78v15.6a.82.82 0 0 0 .82.81z" fill="#59595c"/><path d="M80 27.43a.82.82 0 0 1-1-.62 5.41 5.41 0 0 0-2-3.12 2.25 2.25 0 0 0-1.86-.23 3.47 3.47 0 0 0-2.43 3 .82.82 0 0 1-.56.7.85.85 0 0 1-.87-.23 2.85 2.85 0 0 0-3.26-1.07 2.66 2.66 0 0 0-1.72 2.36.82.82 0 0 1-1.25.72 3.74 3.74 0 0 0-3.24-.71 3.47 3.47 0 0 0-1.76 2.09v.07a.82.82 0 0 1-1.53.11l-.2-.45c-.56-1.26-2.26-5.08-3.41-7.8l-.23-.55c-.35-.83-.59-1.45-.75-1.86l-.26-.74c-1-2.95-2.16-5.53-4.91-4.89a3 3 0 0 0-2 1.25c-.8 1.36-.18 3.68.32 5.54s2.4 7.82 4.46 14v.19c1 3 1.89 5.62 2.63 7.73l.09.26c.57 1.64 1.1 3.1 1.52 4.21a.83.83 0 0 1-.47 1.06.86.86 0 0 1-.97-.45c-.35-.91-.74-2-1.18-3.24v-.07c-.57-1.61-1.24-3.57-2.11-6.14l-.26-.76-.22.77a17.21 17.21 0 0 0-.68 6.91 12.14 12.14 0 0 0 .92 3.53 10.52 10.52 0 0 0 6.57 5.78.82.82 0 0 1-.53 1.55 12.23 12.23 0 0 1-7.53-6.67 13 13 0 0 1-.9-2.93c-.08-.41-.14-.83-.18-1.25v-.35a20.88 20.88 0 0 1 1.72-9.65v-.18c-2-5.93-3.9-12-4.4-13.86-.58-2.16-1.3-4.85-.15-6.79a4.52 4.52 0 0 1 3-2 5.49 5.49 0 0 1 1.3-.16c1.91 0 3.38 1.17 4.54 3.59.08.16.16.32.23.5l.23.54c.2.51.38 1 .54 1.46l.1.29.15.42c.09.25.22.58.39 1 .6 1.48 1.69 4 3.29 7.62l.17.37.26-.31a4.22 4.22 0 0 1 1.67-1.22 4.53 4.53 0 0 1 3.42.17l.23.1.09-.23a4.46 4.46 0 0 1 2.48-2.42 4.15 4.15 0 0 1 3.77.39l.24.15.12-.26a4.7 4.7 0 0 1 3.16-2.71 4 4 0 0 1 3.14.42 7 7 0 0 1 2.7 4.15.83.83 0 0 1-.63.92zm-37.77-6.69a.82.82 0 0 0-.51-1.42.81.81 0 0 0-.55.21l-1.89 1.72a.82.82 0 0 0-.06 1.15.84.84 0 0 0 1.15.05zM42 14.21a.82.82 0 0 0-.2-1.14l-2.12-1.47a.82.82 0 0 0-.47-.15h-.14a.81.81 0 0 0-.53.33.82.82 0 0 0 .2 1.14l2.09 1.47a.84.84 0 0 0 1.17-.18zm-4.44 2.37a.82.82 0 0 0 .61 1.36l3.31-.2a.82.82 0 0 0 .77-.87.82.82 0 0 0-.82-.77l-3.31.2a.81.81 0 0 0-.56.28z" fill="#81d135"/><path d="M16.89 20.74a6.08 6.08 0 0 0 4.6 1.26.42.42 0 0 0 .12-.79 5.07 5.07 0 0 1-2.21-2.51l.1-.07a10.7 10.7 0 1 0-2.61 2.16z" fill="#f2f2f2"/><path d="M11.47 22.91a11.45 11.45 0 1 1 8.77-4.12 4.06 4.06 0 0 0 1.67 1.75 1.08 1.08 0 0 1 .62 1.13 1.14 1.14 0 0 1-.92 1 6.67 6.67 0 0 1-4.73-1.1 11.42 11.42 0 0 1-5.41 1.34zm9.83-1.11zM11.45 1.4a10.05 10.05 0 1 0 5 18.78l.39-.39.49.37a5.57 5.57 0 0 0 3.21 1.16 6.35 6.35 0 0 1-1.78-2.37l-.23-.51.49-.37A10.05 10.05 0 0 0 11.45 1.4z" fill="#59595c"/><path d="M11.79 6.63a1.28 1.28 0 0 1 0 2.56 1.28 1.28 0 1 1 0-2.56zm-2.04 8.22c.05-.45.13-.92.22-1.37.13-.79.27-1.59.42-2.38v-.14c0-.33-.11-.45-.43-.49a2.84 2.84 0 0 1-.42-.07.29.29 0 0 1-.22-.33.28.28 0 0 1 .29-.25 1.55 1.55 0 0 1 .29 0h2.42a.43.43 0 0 1 .49.43 4.9 4.9 0 0 1-.07.74c-.16.9-.33 1.82-.51 2.73-.05.31-.11.6-.14.9a1.15 1.15 0 0 0 0 .43.34.34 0 0 0 .38.27 2 2 0 0 0 .47-.13l.36-.18a.2.2 0 0 1 .29.25.77.77 0 0 1-.18.31 2.39 2.39 0 0 1-1.68.76 5.26 5.26 0 0 1-.92-.05 1.42 1.42 0 0 1-1.06-1.43z" fill="#81d135"/></svg>