<svg xmlns="http://www.w3.org/2000/svg" width="55.5" height="49.85"><path d="M14.36 49.85H6.48A.87.87 0 0 1 5.6 49V22.28a.88.88 0 0 1 1.75 0V48.1h7a.88.88 0 0 1 0 1.75zm16.49 0A.87.87 0 0 1 30 49V31.07h-7.5v13.21a.87.87 0 0 1-1.75 0V30.19a.87.87 0 0 1 .88-.87h9.22a.87.87 0 0 1 .88.88V49a.87.87 0 0 1-.88.85z" fill="#378fdb"/><path d="M.88 23.66a.88.88 0 0 1-.56-1.56L10.3 14V2.79a.87.87 0 0 1 .88-.88h5.76a.87.87 0 0 1 .88.88v4.08L26.13.19a.87.87 0 0 1 1.06 0l9 6.54a.87.87 0 1 1-1 1.42L26.7 2l-9.23 7.4a.87.87 0 0 1-1.42-.68v-5H12v10.73a.87.87 0 0 1-.32.68L1.43 23.46a.87.87 0 0 1-.55.2zm38 8.34a.87.87 0 0 1-.66-1.44c6.29-7.36.26-14.58 0-14.88a.87.87 0 1 1 1.33-1.14c.07.09 7.25 8.68 0 17.15a.87.87 0 0 1-.67.31z" fill="#378fdb"/><path d="M43.12 36.82a.88.88 0 0 1-.65-1.46c11-12.1.46-24 0-24.53a.88.88 0 0 1 1.29-1.18c.12.13 12.13 13.6 0 26.89a.87.87 0 0 1-.64.28z" fill="#378fdb"/><path d="M48 41.67a.87.87 0 0 1-.67-1.44c14.4-16.94.15-34.1 0-34.27a.87.87 0 1 1 1.33-1.13c.16.18 15.35 18.48 0 36.54a.87.87 0 0 1-.66.3z" fill="#378fdb"/></svg>