<svg xmlns="http://www.w3.org/2000/svg" width="44.88" height="37.65" viewBox="0 0 44.88 37.65"><title>wireless</title><path d="M22.44.44A36,36,0,0,0,.68,7.68a.53.53,0,0,0-.15.75.53.53,0,0,0,.76.07,35.29,35.29,0,0,1,42.3,0,.51.51,0,1,0,.61-.81A36,36,0,0,0,22.44.44Zm0,9.7A24.69,24.69,0,0,0,6.8,15.36a.51.51,0,1,0,.64.78,23.66,23.66,0,0,1,15-5,23.66,23.66,0,0,1,15,5,.51.51,0,1,0,.64-.78A24.69,24.69,0,0,0,22.44,10.14Zm0,9.19a15.32,15.32,0,0,0-9.51,3.18.51.51,0,1,0,.64.8,14.3,14.3,0,0,1,8.87-3,14.3,14.3,0,0,1,8.87,3,.51.51,0,1,0,.64-.8A15.32,15.32,0,0,0,22.44,19.34Zm0,8.68a4.6,4.6,0,1,0,4.6,4.6,4.6,4.6,0,0,0-4.6-4.6Zm0,1a3.58,3.58,0,1,1-3.58,3.58A3.57,3.57,0,0,1,22.44,29Z" style="fill:#378fdb"/><path d="M22.44,37.65a5,5,0,0,1,0-10.07h0a5,5,0,0,1,0,10.07Zm0-9.19a4.16,4.16,0,1,0,4.16,4.16,4.16,4.16,0,0,0-4.16-4.16Zm0,8.17a4,4,0,1,1,4-4A4,4,0,0,1,22.44,36.63Zm0-7.15a3.14,3.14,0,1,0,3.14,3.14A3.14,3.14,0,0,0,22.44,29.48Zm9.19-5.63a.94.94,0,0,1-.59-.2,13.86,13.86,0,0,0-8.6-2.86,13.86,13.86,0,0,0-8.6,2.86,1,1,0,0,1-1.33-.15,1,1,0,0,1,.15-1.33,15.77,15.77,0,0,1,9.79-3.27,15.77,15.77,0,0,1,9.78,3.27.94.94,0,0,1-.49,1.68Zm-9.19-4.08a14.89,14.89,0,0,0-9.24,3.08.11.11,0,0,0,0,.1.08.08,0,0,0,.1,0,14.74,14.74,0,0,1,9.15-3,14.74,14.74,0,0,1,9.15,3h.06l0,0a.08.08,0,0,0,0-.05.09.09,0,0,0,0-.05A14.89,14.89,0,0,0,22.44,19.77Zm15.38-3a.94.94,0,0,1-.67-.27A23.12,23.12,0,0,0,22.44,11.6,23.12,23.12,0,0,0,7.73,16.47a.92.92,0,0,1-.7.27A.95.95,0,0,1,6.54,15a25,25,0,0,1,15.9-5.3A25,25,0,0,1,38.33,15a.94.94,0,0,1-.49,1.73ZM22.44,10.58A24.12,24.12,0,0,0,7.07,15.7l-.05,0a.09.09,0,0,0,0,.05.09.09,0,0,0,0,.06l.06,0h.06l.05,0a24,24,0,0,1,15.28-5.08A24,24,0,0,1,37.72,15.8l0,0h.06l.06,0a.09.09,0,0,0,0-.06.09.09,0,0,0,0-.05l-.05,0A24.12,24.12,0,0,0,22.44,10.58ZM6.8,15.36h0ZM.95,9.06H.86a1,1,0,0,1-.68-.37A1,1,0,0,1,.44,7.32a36.72,36.72,0,0,1,44,0,.95.95,0,1,1-1.15,1.5,34.86,34.86,0,0,0-41.73,0A.89.89,0,0,1,.95,9.06ZM22.44.88A35.78,35.78,0,0,0,.95,8l0,0a.09.09,0,0,0,0,.05.09.09,0,0,0,0,.06l.05,0H1a35.72,35.72,0,0,1,42.86,0,.12.12,0,0,0,.09,0l.05,0a.09.09,0,0,0,0-.06.09.09,0,0,0,0-.05l0,0A35.78,35.78,0,0,0,22.44.88ZM.68,7.68h0Z" style="fill:#378fdb"/></svg>