<svg xmlns="http://www.w3.org/2000/svg" width="25.84" height="49.88"><path d="M24.94 6.41h-1.5V.9a.5.5 0 0 0-.5-.5h-6a.5.5 0 0 0-.5.5v5.51h-7V.9a.5.5 0 0 0-.5-.5h-6a.5.5 0 0 0-.5.5v5.51H.9a.5.5 0 0 0-.5.5V49a.5.5 0 0 0 .5.5h24a.5.5 0 0 0 .5-.5V6.91a.5.5 0 0 0-.46-.5zm-7.51-5h5v5h-5zm-14 0h5v5h-5zm21 6v7H1.4v-7zM1.4 48.48V15.42h23v33.06z" fill="#378fdb"/><path d="M24.94 49.88H.9A.9.9 0 0 1 0 49V6.91A.9.9 0 0 1 .9 6H2V.9a.9.9 0 0 1 .9-.9h6a.9.9 0 0 1 .9.9V6H16V.9a.9.9 0 0 1 .9-.9h6a.9.9 0 0 1 .9.9V6h1.1a.9.9 0 0 1 .9.9V49a.9.9 0 0 1-.86.88zM.9 6.81a.1.1 0 0 0-.1.1V49a.1.1 0 0 0 .1.1h24a.1.1 0 0 0 .1-.1V6.91a.1.1 0 0 0-.1-.1H23V.9a.1.1 0 0 0-.1-.1h-6a.1.1 0 0 0-.1.1v5.91H9V.9a.1.1 0 0 0-.1-.1h-6a.1.1 0 0 0-.1.1v5.91zm23.94 42.07H1V15h23.84zm-23-.8H24V15.82H1.8zm23-33.26H1V7h23.84zM1.8 14H24V7.81H1.8zm21-7.21H17V1h5.81zm-5-.8H22V1.8h-4.17zm-9 .8H3V1h5.81zM3.8 6H8V1.8H3.8z" fill="#378fdb"/><path d="M16.28 24.59a.5.5 0 0 0-.71 0l-6 6a.5.5 0 0 0 .35.86h4.8l-5.16 5.16a.5.5 0 0 0 0 .71.5.5 0 0 0 .35.15.5.5 0 0 0 .35-.15l6-6a.5.5 0 0 0-.35-.86h-4.8l5.15-5.15a.5.5 0 0 0 .02-.72z" fill="#378fdb"/><path d="M9.92 37.86a.89.89 0 0 1-.64-.27.9.9 0 0 1 0-1.27l4.47-4.47H9.92a.9.9 0 0 1-.64-1.54l6-6a.9.9 0 0 1 1.27 0 .9.9 0 0 1 0 1.27l-4.47 4.47h3.84a.9.9 0 0 1 .64 1.54l-6 6a.9.9 0 0 1-.64.27zm6-13a.1.1 0 0 0-.07 0l-6 6a.1.1 0 0 0 .07.17h5.77l-5.85 5.86a.1.1 0 0 0 0 .14c.05.05.09.05.14 0l6-6a.1.1 0 0 0 0-.11.1.1 0 0 0-.09-.06h-5.73L16 25a.1.1 0 0 0-.07-.17z" fill="#378fdb"/></svg>