<svg xmlns="http://www.w3.org/2000/svg" width="25.84" height="49.88" viewBox="0 0 25.84 49.88"><title>battery-powered</title><path d="M24.94,6.41h-1.5V.9a.5.5,0,0,0-.5-.5h-6a.5.5,0,0,0-.5.5V6.41h-7V.9a.5.5,0,0,0-.5-.5h-6a.5.5,0,0,0-.5.5V6.41H.9a.5.5,0,0,0-.5.5V49a.5.5,0,0,0,.5.5h24a.5.5,0,0,0,.5-.5V6.91A.5.5,0,0,0,24.94,6.41Zm-7.51-5h5v5h-5Zm-14,0h5v5h-5Zm21,6v7H1.4v-7ZM1.4,48.48V15.42h23V48.48Z" style="fill:#378fdb"/><path d="M24.94,49.88H.9A.9.9,0,0,1,0,49V6.91A.9.9,0,0,1,.9,6H2V.9A.9.9,0,0,1,2.9,0h6a.9.9,0,0,1,.9.9V6H16V.9a.9.9,0,0,1,.9-.9h6a.9.9,0,0,1,.9.9V6h1.1a.9.9,0,0,1,.9.9V49A.9.9,0,0,1,24.94,49.88ZM.9,6.81a.1.1,0,0,0-.1.1V49a.1.1,0,0,0,.1.1h24A.1.1,0,0,0,25,49V6.91a.1.1,0,0,0-.1-.1H23V.9a.1.1,0,0,0-.1-.1h-6a.1.1,0,0,0-.1.1V6.81H9V.9a.1.1,0,0,0-.1-.1h-6a.1.1,0,0,0-.1.1V6.81ZM24.84,48.88H1V15H24.84Zm-23-.8H24V15.82H1.8Zm23-33.26H1V7H24.84ZM1.8,14H24V7.81H1.8Zm21-7.21H17V1h5.81Zm-5-.8H22V1.8H17.83Zm-9,.8H3V1H8.81ZM3.8,6H8V1.8H3.8Z" style="fill:#378fdb"/><path d="M16.28,24.59a.5.5,0,0,0-.71,0l-6,6a.5.5,0,0,0,.35.86h4.8L9.56,36.61a.5.5,0,0,0,0,.71.5.5,0,0,0,.35.15.5.5,0,0,0,.35-.15l6-6a.5.5,0,0,0-.35-.86h-4.8l5.15-5.15A.5.5,0,0,0,16.28,24.59Z" style="fill:#378fdb"/><path d="M9.92,37.86a.89.89,0,0,1-.64-.27.9.9,0,0,1,0-1.27l4.47-4.47H9.92a.9.9,0,0,1-.64-1.54l6-6a.9.9,0,0,1,1.27,0h0a.9.9,0,0,1,0,1.27l-4.47,4.47h3.84a.9.9,0,0,1,.64,1.54l-6,6A.9.9,0,0,1,9.92,37.86Zm6-13a.1.1,0,0,0-.07,0l-6,6a.1.1,0,0,0,.07.17h5.77L9.84,36.89a.1.1,0,0,0,0,.14c.05.05.09.05.14,0l6-6a.1.1,0,0,0,0-.11.1.1,0,0,0-.09-.06H10.16L16,25a.1.1,0,0,0-.07-.17Z" style="fill:#378fdb"/></svg>