<svg xmlns="http://www.w3.org/2000/svg" width="56.4" height="49.92" viewBox="0 0 56.4 49.92"><title>cusomter-engagement</title><path d="M28.24,21A6.25,6.25,0,1,0,22,14.76,6.28,6.28,0,0,0,28.24,21Zm0-11.12a5,5,0,1,1-5,5A5,5,0,0,1,28.24,9.89Z" style="fill:#378fdb"/><path d="M28.24,21.26a6.5,6.5,0,1,1,6.5-6.5A6.54,6.54,0,0,1,28.24,21.26Zm0-12.49a6,6,0,1,0,6,6A6,6,0,0,0,28.24,8.77Zm0,11.29A5.22,5.22,0,0,1,23,14.85a5.21,5.21,0,1,1,10.42,0A5.22,5.22,0,0,1,28.24,20.06Zm0-9.92a4.77,4.77,0,0,0-4.71,4.72,4.71,4.71,0,1,0,4.71-4.72Z" style="fill:#378fdb"/><path d="M16.43,25.37a6.39,6.39,0,0,0-.94,3.08s-.43,4.11-.6,8v.68H41.67v-.68c-.17-3.94-.6-8-.6-8a6.7,6.7,0,0,0-.94-3.17,5.05,5.05,0,0,0-2.82-2.31l-4.36-1.54-4,7.27H27.56l-3.94-7.36L19.26,23A5.57,5.57,0,0,0,16.43,25.37ZM23,23l3.76,7H29.7l3.76-7,3.34,1.2A3.73,3.73,0,0,1,38.94,26a5.36,5.36,0,0,1,.77,2.57s.43,3.59.6,7.27H36.88l-.26-4.45-1.28.09.26,4.36H20.88l.26-4.36-1.28-.09-.26,4.45H16.18c.17-3.68.6-7.19.6-7.36A5,5,0,0,1,17.55,26a4.07,4.07,0,0,1,2.14-1.8Z" style="fill:#378fdb"/><path d="M41.92,37.43H14.64v-.93c.17-3.91.6-8,.6-8.07a6.65,6.65,0,0,1,1-3.18,5.78,5.78,0,0,1,2.94-2.5l4.58-1.62,4,7.42h1.07l4.05-7.33,4.56,1.61a5.27,5.27,0,0,1,3,2.43,6.88,6.88,0,0,1,1,3.28s.43,4,.6,7.95Zm-26.78-.5H41.42v-.43c-.17-3.87-.59-7.89-.6-7.93a6.44,6.44,0,0,0-.91-3.07,4.78,4.78,0,0,0-2.69-2.19l-4.16-1.47-4,7.22H27.41l-3.9-7.3-4.16,1.47a5.28,5.28,0,0,0-2.69,2.28h0a6.17,6.17,0,0,0-.91,3c0,.07-.43,4.17-.6,8.05Zm25.42-.87H36.65l-.26-4.43-.78.05.26,4.38H20.62l.26-4.38-.78-.05-.26,4.43H15.92V35.8c.13-2.86.42-5.61.54-6.79,0-.32.05-.51.06-.56a5.24,5.24,0,0,1,.8-2.6,4.3,4.3,0,0,1,2.27-1.91l3.54-1.27,3.8,7.07h2.61l3.8-7.07,3.54,1.27a4,4,0,0,1,2.28,1.92,5.52,5.52,0,0,1,.8,2.68s.43,3.61.6,7.26Zm-3.45-.5H40c-.18-3.54-.58-7-.58-7a5.17,5.17,0,0,0-.74-2.47,3.49,3.49,0,0,0-2-1.69l-3.13-1.12-3.73,7H26.64l-3.73-7-3.13,1.13a3.85,3.85,0,0,0-2,1.68A4.78,4.78,0,0,0,17,28.45s0,.26-.06.61c-.12,1.14-.39,3.75-.53,6.5h2.92l.26-4.47,1.78.12-.26,4.35H35.33l-.26-4.35,1.78-.12Z" style="fill:#378fdb"/><path d="M26.7,1.59A23.35,23.35,0,0,1,51.51,21.95l-3.68-2.48-.68,1,5.3,3.59L56,18.78l-1-.68-2.31,3.34a24.61,24.61,0,0,0-8.3-15.14,25,25,0,0,0-18-6A25,25,0,0,0,3.69,23L5,23.06A23.62,23.62,0,0,1,26.7,1.59Z" style="fill:#378fdb"/><path d="M52.52,24.44,46.8,20.56l1-1.44,3.43,2.31A23.1,23.1,0,0,0,26.72,1.84,23.44,23.44,0,0,0,5.22,23.08l0,.25-1.78-.12,0-.25a25.17,25.17,0,0,1,23-22.9,25.13,25.13,0,0,1,18.15,6,24.68,24.68,0,0,1,8.29,14.68l2.09-3,1.44,1Zm-5-4,4.89,3.31,3.31-4.89-.61-.41L52.55,22.1l-.09-.63a24.2,24.2,0,0,0-8.22-15A24.64,24.64,0,0,0,26.46.55,24.67,24.67,0,0,0,4,22.74l.78.05A24,24,0,0,1,26.68,1.34h0A23.6,23.6,0,0,1,51.76,21.92l.06.54L47.9,19.82Z" style="fill:#378fdb"/><path d="M30,48.3A23.51,23.51,0,0,1,5.14,28l3.42,2.57.77-1L4.2,25.71.35,30.85l1,.77,2.48-3.25a24.81,24.81,0,0,0,24.47,21.3,12.64,12.64,0,0,0,1.8-.09,24.88,24.88,0,0,0,22.93-23l-1.28-.09A23.66,23.66,0,0,1,30,48.3Z" style="fill:#378fdb"/><path d="M28.33,49.92A24.61,24.61,0,0,1,12,43.78,24.77,24.77,0,0,1,3.7,29L1.42,32,0,30.9l4.15-5.53,5.53,4.15L8.61,30.94,5.48,28.59A23.27,23.27,0,0,0,30,48.05a23.46,23.46,0,0,0,21.5-21.59l0-.25,1.78.12,0,.25A25.12,25.12,0,0,1,30.14,49.83,12.79,12.79,0,0,1,28.33,49.92ZM4,27.74l.09.59a24,24,0,0,0,8.21,15.07,24.12,24.12,0,0,0,16,6,12.52,12.52,0,0,0,1.76-.08A24.63,24.63,0,0,0,52.78,26.8L52,26.75a24,24,0,0,1-21.94,21.8h0A23.77,23.77,0,0,1,4.89,28.06l-.08-.59,3.7,2.77L9,29.61,4.25,26.06.7,30.8l.63.47Z" style="fill:#378fdb"/></svg>