<svg xmlns="http://www.w3.org/2000/svg" width="32.18" height="38.51" viewBox="0 0 32.18 38.51"><title>data-security</title><path d="M5.51,38.51A5.53,5.53,0,0,1,0,33.06V11.37H3.38l.07-.67C4.12,4.2,9.08,0,16.09,0s12,4.2,12.64,10.69l.07.67h3.38V33.05c0,.12,0,.24,0,.35a5.51,5.51,0,0,1-5.51,5.1h0l-.44,0H5.95l-.37,0ZM1.87,33.06c0,2.46,2.07,3.56,4.12,3.56H26.19c2,0,4.12-1.1,4.12-3.56V13.23H1.87ZM16.09,1.87c-6,0-10,3.23-10.73,8.65l-.11.84H26.92l-.11-.84C26.13,5.1,22.11,1.87,16.09,1.87Z" style="fill:#378fdb"/><path d="M15.15,31.75V27.62l-.51-.17a5.16,5.16,0,0,1,.4-9.88,5.21,5.21,0,0,1,1.28-.16,5.16,5.16,0,0,1,1.26,10.16l-.56.14v4Zm.4-12.32a3.21,3.21,0,1,0,.75-.1l-.75,0Z" style="fill:#378fdb"/></svg>