<svg xmlns="http://www.w3.org/2000/svg" width="32.18" height="38.51"><path d="M5.51 38.51A5.53 5.53 0 0 1 0 33.06V11.37h3.38l.07-.67C4.12 4.2 9.08 0 16.09 0s12 4.2 12.64 10.69l.07.67h3.38V33.4a5.51 5.51 0 0 1-5.51 5.1H5.58zm-3.64-5.45c0 2.46 2.07 3.56 4.12 3.56h20.2c2 0 4.12-1.1 4.12-3.56V13.23H1.87zM16.09 1.87c-6 0-10 3.23-10.73 8.65l-.11.84h21.67l-.11-.84c-.68-5.42-4.7-8.65-10.72-8.65z" fill="#378fdb"/><path d="M15.15 31.75v-4.13l-.51-.17a5.16 5.16 0 0 1 .4-9.88 5.21 5.21 0 0 1 1.28-.16 5.16 5.16 0 0 1 1.26 10.16l-.56.14v4zm.4-12.32a3.21 3.21 0 1 0 .75-.1h-.75z" fill="#378fdb"/></svg>