<svg xmlns="http://www.w3.org/2000/svg" width="59.03" height="47.74"><path d="M16.67 26.9a.86.86 0 0 1-.86-.86v-8.75a.86.86 0 0 1 1.72 0V26a.86.86 0 0 1-.86.9z" fill="#378fdb"/><path d="M16.67 31.69a2.85 2.85 0 1 1 2.86-2.85 2.86 2.86 0 0 1-2.86 2.85zm0-4a1.14 1.14 0 1 0 1.14 1.14 1.14 1.14 0 0 0-1.14-1.13zm24.86-6.74a2 2 0 0 1 .86.2v-3.86a.86.86 0 0 0-1.72 0v3.86a2 2 0 0 1 .86-.2zm0 3.99a2 2 0 0 1-.86-.2v.2a.86.86 0 0 0 1.72 0v-.2a2 2 0 0 1-.86.2z" fill="#378fdb"/><path d="M41.53 25.8a2.86 2.86 0 1 1 2.86-2.86 2.86 2.86 0 0 1-2.86 2.86zm0-4a1.14 1.14 0 1 0 1.14 1.14 1.14 1.14 0 0 0-1.14-1.13zm-.39-3.65H17.06a.86.86 0 1 1 0-1.72h24.08a.86.86 0 0 1 0 1.72zM29.1 11.11A2.86 2.86 0 1 1 32 8.25a2.86 2.86 0 0 1-2.9 2.86zm0-4a1.14 1.14 0 1 0 1.14 1.14 1.14 1.14 0 0 0-1.14-1.13z" fill="#378fdb"/><path d="M29.1 17.55a.86.86 0 0 1-.86-.86v-6.3a.86.86 0 1 1 1.72 0v6.3a.86.86 0 0 1-.86.86zm4.7 6.35a2 2 0 0 1 .86.2v-6.81a.86.86 0 1 0-1.72 0v6.81a2 2 0 0 1 .86-.2z" fill="#378fdb"/><path d="M33.8 28.75a2.85 2.85 0 1 1 2.86-2.85 2.86 2.86 0 0 1-2.86 2.85zm0-4a1.14 1.14 0 1 0 1.14 1.14 1.14 1.14 0 0 0-1.14-1.13zm-8.9.87a2 2 0 0 1 .86.2v-8.53a.86.86 0 0 0-1.72 0v8.53a2 2 0 0 1 .86-.2z" fill="#378fdb"/><path d="M24.9 30.47a2.85 2.85 0 1 1 2.86-2.85 2.86 2.86 0 0 1-2.86 2.85zm0-4a1.14 1.14 0 1 0 1.1 1.14 1.14 1.14 0 0 0-1.1-1.13zM46.8 6.76h-9.14a.86.86 0 0 1 0-1.72h9.14a.86.86 0 0 1 0 1.72zm3.26 3.87h-12.4a.86.86 0 1 1 0-1.72h12.4a.86.86 0 1 1 0 1.72z" fill="#378fdb"/><path d="M4.49 36.5A4.32 4.32 0 0 1 0 32.05V4.49A4.32 4.32 0 0 1 4.49.05h50A4.32 4.32 0 0 1 59 4.49v27.56a4.32 4.32 0 0 1-4.44 4.44zm0-34.87a2.69 2.69 0 0 0-2.86 2.86v27.56a2.7 2.7 0 0 0 2.87 2.86h50a2.71 2.71 0 0 0 2.87-2.86V4.49a2.7 2.7 0 0 0-2.86-2.87H4.48z" fill="#378fdb"/><path d="M54.54 36.55h-50A4.37 4.37 0 0 1 0 32.05V4.49A4.37 4.37 0 0 1 4.49 0h50A4.37 4.37 0 0 1 59 4.49v27.56a4.37 4.37 0 0 1-4.46 4.5zM4.49.1A4.27 4.27 0 0 0 .1 4.49v27.56a4.27 4.27 0 0 0 4.39 4.39h50a4.27 4.27 0 0 0 4.39-4.39V4.49A4.27 4.27 0 0 0 54.54.1zm0 34.9a2.74 2.74 0 0 1-2.92-2.91V4.49a2.74 2.74 0 0 1 2.91-2.91h50.06a2.74 2.74 0 0 1 2.91 2.91v27.56A2.75 2.75 0 0 1 54.54 35zm0-33.34v.05a2.65 2.65 0 0 0-2.81 2.78v27.56a2.65 2.65 0 0 0 2.82 2.81h50a2.66 2.66 0 0 0 2.82-2.81V4.49a2.65 2.65 0 0 0-2.81-2.82H4.49z" fill="#378fdb"/><path d="M20.31 47.69a1.7 1.7 0 0 1-1.4-.6 1.94 1.94 0 0 1-.32-1.54l2.09-9.34h1.62l-2.22 9.9H39l-2.22-9.91h1.62l2.09 9.34a1.69 1.69 0 0 1-.28 1.5 2 2 0 0 1-1.44.65z" fill="#378fdb"/><path d="M38.72 47.74H20.31a1.75 1.75 0 0 1-1.44-.62 2 2 0 0 1-.33-1.59l2.1-9.37h1.72l-2.22 9.9h18.75l-2.22-9.91h1.72l2.1 9.37a1.74 1.74 0 0 1-.29 1.54 2 2 0 0 1-1.48.68zm-18-11.48l-2.09 9.3a1.88 1.88 0 0 0 .31 1.5 1.65 1.65 0 0 0 1.36.59h18.42a1.9 1.9 0 0 0 1.4-.63 1.64 1.64 0 0 0 .27-1.46l-2.09-9.3h-1.51L39 46.17H20l2.22-9.9zM34.48 8.8a1.1 1.1 0 1 0 1.1 1.1 1.1 1.1 0 0 0-1.1-1.1" fill="#378fdb"/></svg>