<svg xmlns="http://www.w3.org/2000/svg" width="31.72" height="50.33" viewBox="0 0 31.72 50.33"><title>launch</title><path d="M16.07,38.51c-1.58,0-3.71-.43-4.53-1.64a28.31,28.31,0,0,1-3.27-6.59l-.12-.36-3,2.79a2.84,2.84,0,0,1-1.88.71h-.7a3,3,0,0,1-2-1.75,8.56,8.56,0,0,1,2.2-9.41A9.34,9.34,0,0,1,6.45,20L6.62,20V19.8C6.78,12.73,9.78,6.08,15.31.54L15.86,0l.54.54c5.53,5.53,8.53,12.19,8.69,19.25V20l.17.05a9.34,9.34,0,0,1,3.66,2.21,8.56,8.56,0,0,1,2.21,9.42,3,3,0,0,1-2,1.75h-.69a2.85,2.85,0,0,1-1.9-.71l-3-2.78-.13.36A31.25,31.25,0,0,1,20,37.17c-.87,1.2-3,1.33-3.86,1.33Zm-6-7.85a28.15,28.15,0,0,0,2.81,5.41c.26.39,1.44.94,3.25.94h.05a4,4,0,0,0,2.5-.59,29.68,29.68,0,0,0,3-5.75l.21-.55-.54.23a14,14,0,0,1-10.93,0l-.55-.23Zm15-8.71a29.46,29.46,0,0,1-.51,4.19l-.49,2.2,3.56,3.24a1.28,1.28,0,0,0,1.15.32,1.33,1.33,0,0,0,.9-.76,7,7,0,0,0-1.81-7.7,9.71,9.71,0,0,0-2.43-1.69l-.34-.17ZM6.27,21.73a9.74,9.74,0,0,0-2.43,1.69A7,7,0,0,0,2,31.12a1.33,1.33,0,0,0,.89.77,1.29,1.29,0,0,0,.28,0,1.27,1.27,0,0,0,.88-.35l3.56-3.24-.5-2.05c-.24-1.42-.41-2.88-.51-4.34l0-.37ZM10.95,9A25.68,25.68,0,0,0,8.71,26c.1.61.26,1.24.41,1.85l0,.1.09.07a12.51,12.51,0,0,0,13.25,0l.09-.05.49-2.06A25.69,25.69,0,0,0,20.77,9l-.11-.22-.22.11A10,10,0,0,1,15.86,10a10,10,0,0,1-4.57-1.11l-.22-.11Zm4.73-6.6A28.82,28.82,0,0,0,12,7.19l-.14.23.24.12a8.24,8.24,0,0,0,7.55,0l.24-.12-.14-.23A28.79,28.79,0,0,0,16,2.41l-.18-.19Z" style="fill:#378fdb"/><path d="M15.86,50.33a.78.78,0,0,1-.78-.78V43.14a.78.78,0,1,1,1.56,0v6.42A.78.78,0,0,1,15.86,50.33Z" style="fill:#378fdb"/><path d="M21.06,47.81a.78.78,0,0,1-.78-.78V42.1a.78.78,0,1,1,1.56,0V47A.78.78,0,0,1,21.06,47.81Z" style="fill:#378fdb"/><path d="M10.65,47.24a.78.78,0,0,1-.78-.78V42.1a.78.78,0,1,1,1.56,0v4.36A.78.78,0,0,1,10.65,47.24Z" style="fill:#378fdb"/><path d="M15.86,22.58a5.06,5.06,0,1,1,5.06-5.06A5.06,5.06,0,0,1,15.86,22.58Zm0-8.55a3.5,3.5,0,1,0,3.5,3.5A3.5,3.5,0,0,0,15.86,14Z" style="fill:#378fdb"/></svg>