<svg xmlns="http://www.w3.org/2000/svg" width="45.5" height="48.93" viewBox="0 0 45.5 48.93"><title>lower-cost</title><path d="M20.6,12.63a2.33,2.33,0,0,1-2.33-2.33.61.61,0,0,1,1.22,0A1.11,1.11,0,1,0,20.6,9.19a2.33,2.33,0,1,1,2.33-2.33.61.61,0,1,1-1.22,0A1.11,1.11,0,1,0,20.6,8a2.33,2.33,0,0,1,0,4.65Z" style="fill:#378fdb"/><path d="M20.6,5.76A.61.61,0,0,1,20,5.15V4.29a.61.61,0,0,1,1.22,0v.86A.61.61,0,0,1,20.6,5.76Z" style="fill:#378fdb"/><path d="M20.6,13.49a.61.61,0,0,1-.61-.61V12a.61.61,0,1,1,1.22,0v.86A.61.61,0,0,1,20.6,13.49Z" style="fill:#378fdb"/><path d="M36.92,25.5a2.33,2.33,0,0,1-2.33-2.33.61.61,0,1,1,1.22,0,1.11,1.11,0,1,0,1.11-1.11,2.33,2.33,0,1,1,2.33-2.33.61.61,0,0,1-1.22,0,1.11,1.11,0,1,0-1.11,1.11,2.33,2.33,0,1,1,0,4.65Z" style="fill:#378fdb"/><path d="M36.92,18.64a.61.61,0,0,1-.61-.61v-.86a.61.61,0,1,1,1.22,0V18A.61.61,0,0,1,36.92,18.64Z" style="fill:#378fdb"/><path d="M36.92,26.36a.61.61,0,0,1-.61-.61V24.9a.61.61,0,1,1,1.22,0v.86A.61.61,0,0,1,36.92,26.36Z" style="fill:#378fdb"/><path d="M11.16,48.93H.86A.86.86,0,0,1,0,48.08V29.19a.86.86,0,0,1,.86-.86h10.3a.86.86,0,0,1,.86.86V48.08A.86.86,0,0,1,11.16,48.93ZM1.72,47.22H10.3V30H1.72Z" style="fill:#378fdb"/><path d="M35.2,39.49a.86.86,0,0,1-.86-.86V36.92a1.9,1.9,0,0,0-1.72-1.72H25.75a.86.86,0,0,1-.77-.47c-1.48-3-3.57-3-5.24-3a11.92,11.92,0,0,0-4,.81,13.44,13.44,0,0,1-4.56.9.86.86,0,1,1,0-1.72,11.92,11.92,0,0,0,4-.81,13.44,13.44,0,0,1,4.56-.9c1.73,0,4.57,0,6.52,3.43h6.35a3.59,3.59,0,0,1,3.43,3.43v1.72A.86.86,0,0,1,35.2,39.49Z" style="fill:#378fdb"/><path d="M28.33,48.08a24.88,24.88,0,0,1-5.88-.68,47.09,47.09,0,0,0-11.29-1,.86.86,0,1,1,0-1.72A49,49,0,0,1,22.8,45.71a23.5,23.5,0,0,0,5.53.64c5.47,0,12-4.17,13.26-5,1.46-1,2.19-1.88,2.19-2.72s-.08-.8-.38-.95c-.61-.3-1.76.29-2.77.81a6.69,6.69,0,0,1-2.86,1H27.47a.86.86,0,0,1,0-1.72h10.3A6,6,0,0,0,39.85,37c1.37-.71,2.93-1.51,4.32-.82a2.38,2.38,0,0,1,1.33,2.48c0,1.46-1,2.82-3,4.15S34.15,48.08,28.33,48.08Z" style="fill:#378fdb"/><path d="M20.6,17.17a8.58,8.58,0,1,1,8.58-8.58A8.59,8.59,0,0,1,20.6,17.17Zm0-15.45a6.87,6.87,0,1,0,6.87,6.87A6.88,6.88,0,0,0,20.6,1.72Z" style="fill:#378fdb"/><path d="M36.92,30a8.58,8.58,0,1,1,8.58-8.58A8.59,8.59,0,0,1,36.92,30Zm0-15.45a6.87,6.87,0,1,0,6.87,6.87A6.88,6.88,0,0,0,36.92,14.59Z" style="fill:#378fdb"/></svg>