<svg xmlns="http://www.w3.org/2000/svg" width="45.5" height="48.93"><path d="M20.6 12.63a2.33 2.33 0 0 1-2.33-2.33.61.61 0 0 1 1.22 0 1.11 1.11 0 1 0 1.11-1.11 2.33 2.33 0 1 1 2.33-2.33.61.61 0 1 1-1.22 0A1.11 1.11 0 1 0 20.6 8a2.33 2.33 0 0 1 0 4.65z" fill="#378fdb"/><path d="M20.6 5.76a.61.61 0 0 1-.6-.61v-.86a.61.61 0 0 1 1.22 0v.86a.61.61 0 0 1-.62.61zm0 7.73a.61.61 0 0 1-.61-.61V12a.61.61 0 1 1 1.22 0v.86a.61.61 0 0 1-.61.63zM36.92 25.5a2.33 2.33 0 0 1-2.33-2.33.61.61 0 1 1 1.22 0 1.11 1.11 0 1 0 1.11-1.11 2.33 2.33 0 1 1 2.33-2.33.61.61 0 0 1-1.22 0 1.11 1.11 0 1 0-1.11 1.11 2.33 2.33 0 1 1 0 4.65z" fill="#378fdb"/><path d="M36.92 18.64a.61.61 0 0 1-.61-.61v-.86a.61.61 0 1 1 1.22 0V18a.61.61 0 0 1-.61.64zm0 7.72a.61.61 0 0 1-.61-.61v-.85a.61.61 0 1 1 1.22 0v.86a.61.61 0 0 1-.61.6zM11.16 48.93H.86a.86.86 0 0 1-.86-.85V29.19a.86.86 0 0 1 .86-.86h10.3a.86.86 0 0 1 .86.86v18.89a.86.86 0 0 1-.86.85zm-9.44-1.71h8.58V30H1.72z" fill="#378fdb"/><path d="M35.2 39.49a.86.86 0 0 1-.86-.86v-1.71a1.9 1.9 0 0 0-1.72-1.72h-6.87a.86.86 0 0 1-.77-.47c-1.48-3-3.57-3-5.24-3a11.92 11.92 0 0 0-4 .81 13.44 13.44 0 0 1-4.56.9.86.86 0 1 1 0-1.72 11.92 11.92 0 0 0 4-.81 13.44 13.44 0 0 1 4.56-.9c1.73 0 4.57 0 6.52 3.43h6.35a3.59 3.59 0 0 1 3.43 3.43v1.72a.86.86 0 0 1-.84.9z" fill="#378fdb"/><path d="M28.33 48.08a24.88 24.88 0 0 1-5.88-.68 47.09 47.09 0 0 0-11.29-1 .86.86 0 1 1 0-1.72 49 49 0 0 1 11.64 1.03 23.5 23.5 0 0 0 5.53.64c5.47 0 12-4.17 13.26-5 1.46-1 2.19-1.88 2.19-2.72s-.08-.8-.38-.95c-.61-.3-1.76.29-2.77.81a6.69 6.69 0 0 1-2.86 1h-10.3a.86.86 0 0 1 0-1.72h10.3a6 6 0 0 0 2.08-.77c1.37-.71 2.93-1.51 4.32-.82a2.38 2.38 0 0 1 1.33 2.48c0 1.46-1 2.82-3 4.15s-8.35 5.27-14.17 5.27zM20.6 17.17a8.58 8.58 0 1 1 8.58-8.58 8.59 8.59 0 0 1-8.58 8.58zm0-15.45a6.87 6.87 0 1 0 6.87 6.87 6.88 6.88 0 0 0-6.87-6.87zM36.92 30a8.58 8.58 0 1 1 8.58-8.58A8.59 8.59 0 0 1 36.92 30zm0-15.45a6.87 6.87 0 1 0 6.87 6.87 6.88 6.88 0 0 0-6.87-6.83z" fill="#378fdb"/></svg>