<svg xmlns="http://www.w3.org/2000/svg" width="32.53" height="50"><path d="M31.68 29.76a2.29 2.29 0 0 0-1.14-.53 3.9 3.9 0 0 0 .07-.43 5.63 5.63 0 0 0-1.42-4.4s-5-4.17-7.12-3.74c-.54.11-2.09.66-3.84 1.3.83-1.76 2.06-4.38 2.7-5.64.51-1 1.06-2 1.6-2.91 1.59-2.79 2.85-5 2.35-6.73a2.62 2.62 0 0 0-1.35-1.6c-2.1-1.13-4.41 1.8-6.65 4.8L18 6.82l.35-.93c.76-2 1.3-3.38.72-4.49A2.37 2.37 0 0 0 17.46.26c-2.74-.67-3.91 1.26-5.15 3.31-.24.41-.5.83-.79 1.28-.42.64-1.21 2.05-2.18 3.83A3.7 3.7 0 0 0 8.83 6a3.07 3.07 0 0 0-2.27-1c-2-.22-2.33 2-2.66 4.4-.13.92-.27 2-.5 3-.34 1.52-.7 3.74-1.08 6.09-.29 1.76-.58 3.58-.87 5.12 0 .07-1 7-1.3 10.78a62.7 62.7 0 0 0 .73 8.92c.29 2.39.56 4.65.56 5.67a.79.79 0 0 0 1.58 0c0-1.11-.27-3.31-.57-5.86a64.24 64.24 0 0 1-.72-8.6C2 31.2 2.86 25.05 3 24.07c.77-1.47 8.28-15.92 9.85-18.36.3-.46.57-.9.82-1.32 1.28-2.12 1.86-3 3.41-2.59a1 1 0 0 1 .62.34c.25.47-.28 1.85-.8 3.18l-.36.94c-1 2.61-2.61 7.09-2.87 7.82-2.32 3.06-5.51 7.56-6.43 9a.79.79 0 1 0 1.33.87c1.11-1.71 5.57-8 7.72-10.63.51-.64 1-1.34 1.59-2.09 1.47-2 3.92-5.28 4.91-4.74a1 1 0 0 1 .58.64c.31 1.09-.91 3.24-2.2 5.51-.54 1-1.11 1.94-1.63 3-.9 1.76-2.87 6-3.42 7.16-2.09.8-4 1.55-4.43 1.72a.79.79 0 1 0 .59 1.48c1.38-.55 3.08-1.21 4.7-1.82 2.52-1 4.83-1.8 5.42-1.92.77-.15 3.9 1.78 5.78 3.39a4.11 4.11 0 0 1 .88 3 1.32 1.32 0 0 1-.5 1 6.09 6.09 0 0 1-1.18-1A8 8 0 0 0 26 27.38l-.52-.32c-1.61-1-2.65-1.61-3.45-1.2l-.43.22c-.92.48-2.85 1.47-4.53 2.42-.32.18-1 .76-.61 2.21s2.72 4.84 4.19 4.84h.05a13.7 13.7 0 0 0 6.12-2.77 14.7 14.7 0 0 1 2.34-1.68c.62-.31 1.1-.37 1.43-.09a.74.74 0 0 1 .16.58 5.31 5.31 0 0 1-1.94 3.37c-.53.39-1.87 1.28-3.43 2.32-3.78 2.51-6.72 4.49-7.45 5.21-.89.87-1.07 3-1.21 5.59 0 .39 0 .73-.06 1a.79.79 0 0 0 .72.86h.07a.79.79 0 0 0 .79-.72c0-.27 0-.63.07-1 .06-1.1.22-4 .74-4.54.68-.66 4.46-3.18 7.22-5 1.58-1 2.94-2 3.49-2.36a6.85 6.85 0 0 0 2.59-4.59 2.19 2.19 0 0 0-.67-1.97zM5 12.81c.25-1.12.4-2.19.53-3.14.21-1.52.44-3.09.92-3 .68.07 1 .18 1.18.37.39.51.13 2.23 0 2.8-.18 1.18-.33 2.37-.38 2.78-1.18 2.16-2.38 4.45-3.39 6.38v-.17c.41-2.34.77-4.54 1.14-6.02zm20.81 18.74A12.69 12.69 0 0 1 20.68 34c-1-.39-2.87-3.38-2.78-4.11 1.65-.92 3.52-1.89 4.42-2.36l.33-.17a10.58 10.58 0 0 1 2 1.08l.53.33a7.12 7.12 0 0 1 1.07 1c.28.28.57.58.86.83-.48.27-.91.63-1.3.95z" fill="#378fdb"/><path d="M17.52 50h-.08a.92.92 0 0 1-.84-1c0-.26 0-.6.06-1 .14-2.57.33-4.77 1.25-5.67.73-.72 3.69-2.7 7.47-5.22 1.49-1 2.89-1.92 3.43-2.32a5.16 5.16 0 0 0 1.89-3.27.62.62 0 0 0-.12-.48c-.27-.23-.69-.19-1.29.1h-.07a14.27 14.27 0 0 0-2.31 1.66 13.86 13.86 0 0 1-6.19 2.8h-.06c-1.54 0-3.84-3.3-4.31-4.93s.32-2.15.67-2.35c1.68-.94 3.6-1.94 4.52-2.41l.44-.23c.85-.44 1.92.16 3.57 1.2h.06l.46.29a8.05 8.05 0 0 1 1.4 1.23 7.65 7.65 0 0 0 1.08 1 1.28 1.28 0 0 0 .39-.88 4 4 0 0 0-.83-2.89c-2-1.71-5-3.5-5.67-3.37-.49.1-2.41.78-5.4 1.91-1.5.57-3.22 1.23-4.7 1.82a.92.92 0 1 1-.67-1.71c.69-.27 2.48-1 4.38-1.7.76-1.62 2.55-5.45 3.4-7.11.53-1 1.09-2 1.63-3 1.28-2.25 2.49-4.37 2.19-5.42a.92.92 0 0 0-.52-.57c-.89-.48-3.5 3-4.75 4.7-.55.74-1.07 1.43-1.57 2.06C14.24 16 9.79 22.29 8.67 24a.92.92 0 1 1-1.54-1c.88-1.35 4-5.81 6.43-9 .33-.9 1.91-5.26 2.87-7.81l.34-.9c.48-1.25 1-2.66.8-3.08a.88.88 0 0 0-.54-.27c-1.45-.35-2 .37-3.28 2.53-.28.46-.53.88-.82 1.32C11.41 8.18 4 22.39 3.12 24.11c-.11.81-1 7.05-1.26 10.53a64.41 64.41 0 0 0 .72 8.58c.31 2.55.57 4.75.57 5.87a.92.92 0 1 1-1.83 0c0-1-.27-3.27-.56-5.65A62.61 62.61 0 0 1 0 34.49c.3-3.78 1.29-10.73 1.3-10.79.28-1.51.57-3.31.86-5v-.07c.38-2.36.74-4.58 1.08-6.1.23-1 .38-2.08.5-3 .32-2.31.65-4.7 2.79-4.48a3.17 3.17 0 0 1 2.4.95 3.31 3.31 0 0 1 .56 2.18c.93-1.69 1.57-2.82 1.92-3.36s.54-.85.78-1.26c1.27-2.1 2.46-4.08 5.29-3.38a2.49 2.49 0 0 1 1.73 1.21c.6 1.16.05 2.6-.72 4.59l-.35.93-.84 2.25c1.92-2.55 4.2-5.28 6.29-4.15A2.74 2.74 0 0 1 25 6.64c.51 1.79-.75 4-2.36 6.83-.53.94-1.09 1.91-1.59 2.9s-1.36 2.78-2.57 5.36a36.53 36.53 0 0 1 3.57-1.2c2.21-.44 7.18 3.73 7.23 3.77a5.77 5.77 0 0 1 1.46 4.51v.31a2.45 2.45 0 0 1 1.07.54 2.31 2.31 0 0 1 .77 1.94 7 7 0 0 1-2.68 4.7c-.54.4-1.85 1.27-3.36 2.28l-.13.09c-2.76 1.83-6.53 4.35-7.2 5-.49.48-.65 3.47-.7 4.46 0 .41 0 .77-.07 1a.92.92 0 0 1-.92.87zm12.63-19.33a.89.89 0 0 1 .6.21.85.85 0 0 1 .21.68A5.45 5.45 0 0 1 29 35c-.54.4-1.95 1.33-3.44 2.32-3.77 2.51-6.71 4.49-7.43 5.19s-1 3-1.17 5.5c0 .39 0 .73-.06 1a.67.67 0 0 0 .61.72h.06a.67.67 0 0 0 .66-.61c0-.27 0-.63.06-1 .1-1.9.28-4.14.78-4.62.69-.67 4.47-3.19 7.24-5l.13-.09c1.51-1 2.82-1.88 3.35-2.27a6.71 6.71 0 0 0 2.53-4.5 2.06 2.06 0 0 0-.68-1.74 2.18 2.18 0 0 0-1.08-.51h-.13v-.13a3.84 3.84 0 0 0 .07-.41 5.49 5.49 0 0 0-1.37-4.29s-4.93-4.13-7-3.72a39.9 39.9 0 0 0-3.82 1.3l-.29.11.13-.28c.89-1.9 2.09-4.43 2.71-5.64.51-1 1.06-2 1.6-2.92 1.58-2.77 2.82-5 2.34-6.64a2.49 2.49 0 0 0-1.29-1.53C21.56 4.14 19.41 6.73 17 10l-.52.69.3-.81 1.13-3.06.35-.93c.74-1.97 1.29-3.37.74-4.42A2.25 2.25 0 0 0 17.43.39c-2.66-.65-3.8 1.24-5 3.25-.25.42-.51.84-.79 1.28s-1.12 1.87-2.18 3.82l-.27.5v-.57a3.59 3.59 0 0 0-.49-2.55 3 3 0 0 0-2.18-.93C4.65 5 4.36 7.14 4 9.44c-.13.93-.27 2-.51 3-.34 1.51-.7 3.73-1.08 6.08v.08c-.28 1.74-.57 3.53-.86 5v.05s-1 7-1.29 10.75a62.71 62.71 0 0 0 .74 9c.29 2.39.56 4.65.56 5.68a.67.67 0 1 0 1.33 0c0-1.11-.26-3.3-.57-5.84a64.23 64.23 0 0 1-.72-8.63c.28-3.51 1.17-9.85 1.27-10.56.84-1.63 8.29-16 9.86-18.37.28-.44.54-.86.82-1.32 1.28-2.12 1.92-3 3.55-2.64a1 1 0 0 1 .7.4c.27.52-.24 1.86-.79 3.29l-.34.9c-1 2.56-2.56 7-2.87 7.82-2.39 3.16-5.55 7.62-6.43 9a.67.67 0 0 0 .2.92.68.68 0 0 0 .92-.2c1.11-1.71 5.58-8 7.73-10.64.51-.63 1-1.32 1.57-2.06 2-2.72 4.08-5.32 5.07-4.78a1.16 1.16 0 0 1 .64.72c.33 1.14-.91 3.31-2.21 5.61-.54 1-1.1 1.93-1.63 3-.85 1.68-2.67 5.56-3.41 7.15-1.92.73-3.73 1.44-4.42 1.72a.67.67 0 0 0 .49 1.24c1.49-.59 3.2-1.25 4.7-1.82 2.13-.81 4.79-1.8 5.44-1.93.88-.18 4.13 1.92 5.88 3.42a4.18 4.18 0 0 1 .92 3.11 1.43 1.43 0 0 1-.56 1.1h-.11a5.69 5.69 0 0 1-1.22-1.06 7.87 7.87 0 0 0-1.35-1.19l-.46-.29h-.06c-1.58-1-2.59-1.57-3.32-1.19l-.43.22c-.93.48-2.85 1.47-4.53 2.41-.3.17-.95.7-.55 2.06.44 1.52 2.65 4.75 4.07 4.75a13.55 13.55 0 0 0 6-2.74A14.45 14.45 0 0 1 29.1 31h.07a2.27 2.27 0 0 1 .98-.33zm-9.48 3.41c-1-.4-3-3.46-2.85-4.24v-.06h.05c1.66-.93 3.53-1.89 4.42-2.36l.37-.19a9.59 9.59 0 0 1 2 1.09l.53.33a7.05 7.05 0 0 1 1.08 1c.28.28.57.58.87.84l.12.1-.13.09c-.46.34-.9.7-1.28 1a12.73 12.73 0 0 1-5.19 2.43zM18 29.92a8.16 8.16 0 0 0 2.67 3.9 12.71 12.71 0 0 0 5-2.37c.35-.29.75-.62 1.17-.93-.27-.24-.52-.5-.75-.74a7.08 7.08 0 0 0-1-.95l-.54-.34a11.89 11.89 0 0 0-1.89-1l-.29.15c-.87.42-2.71 1.36-4.37 2.28zM3.61 19.73l.16-1c.37-2.3.73-4.47 1.05-5.93.25-1.12.4-2.19.53-3.13.27-1.94.47-3.21 1.06-3.15s1.09.2 1.26.42c.38.49.22 1.89.06 2.9s-.3 2.16-.37 2.76C6.37 14.49 5.26 16.59 4 19zm2.76-13c-.37 0-.63 1.91-.77 2.93s-.28 2-.53 3.15c-.3 1.35-.62 3.3-1 5.41 1.13-2.16 2.12-4 3-5.7.07-.57.21-1.67.38-2.76.23-1.49.22-2.4 0-2.71S7 6.82 6.39 6.76z" fill="#378fdb"/></svg>