<svg xmlns="http://www.w3.org/2000/svg" width="48.25" height="48.26"><path d="M46.94 16.49A3.3 3.3 0 0 0 41.5 19v8.22l-.66-.22a3.32 3.32 0 0 0-.7-.16 3.24 3.24 0 0 0-2.66.95L28.21 37a6.39 6.39 0 0 0-1.85 4.52v5.84a.75.75 0 0 0 1.5 0v-5.81a4.89 4.89 0 0 1 1.42-3.46l9.25-9.25a1.83 1.83 0 0 1 2.53 0 1.79 1.79 0 0 1 0 2.53l-5.36 5.36a.75.75 0 0 0 .11 1 .75.75 0 0 0 1 0l5.33-5.33a3.3 3.3 0 0 0 .87-3v-.16a.85.85 0 0 0 0-.15V19a1.8 1.8 0 1 1 3.6 0v14a5.81 5.81 0 0 1-1.7 4.11l-7.38 7.45a.75.75 0 0 0-.22.53v2.29a.75.75 0 0 0 1.5 0v-2L46 38.19A7.31 7.31 0 0 0 48.13 33V19a3.29 3.29 0 0 0-1.19-2.51z" fill="#378fdb"/><path d="M38 48.26a.88.88 0 0 1-.87-.87V45.1a.87.87 0 0 1 .26-.62L44.77 37a5.69 5.69 0 0 0 1.67-4V19a1.68 1.68 0 1 0-3.35 0v10.09a.93.93 0 0 1 0 .16v.12a3.42 3.42 0 0 1-.9 3.15l-5.33 5.33a.87.87 0 0 1-1.45-.58.86.86 0 0 1 .18-.61L41 31.29a1.66 1.66 0 0 0-2.35-2.35l-9.25 9.25a4.76 4.76 0 0 0-1.4 3.36v5.84a.87.87 0 0 1-1.75 0v-5.84a6.52 6.52 0 0 1 1.89-4.61l9.27-9.25a3.36 3.36 0 0 1 2.76-1 3.44 3.44 0 0 1 .73.16l.5.17V19a3.42 3.42 0 0 1 3.15-3.42 3.39 3.39 0 0 1 2.49.81l-.08.1.08-.1A3.41 3.41 0 0 1 48.25 19v14A7.44 7.44 0 0 1 46 38.28l-7.16 7.2v1.9a.88.88 0 0 1-.84.88zm6.75-31.19A1.93 1.93 0 0 1 46.69 19v14A5.94 5.94 0 0 1 45 37.2l-7.38 7.45a.62.62 0 0 0-.18.44v2.29a.63.63 0 1 0 1.25 0v-2l7.2-7.24A7.19 7.19 0 0 0 48 33V19a3.16 3.16 0 0 0-1.14-2.43 3.17 3.17 0 0 0-4.48.36 3.18 3.18 0 0 0-.75 2.07v8.4l-.83-.28a3.2 3.2 0 0 0-.67-.15 3.12 3.12 0 0 0-2.56.91l-9.27 9.24a6.26 6.26 0 0 0-1.82 4.43v5.84a.63.63 0 0 0 1.25 0v-5.84A5 5 0 0 1 29.18 38l9.25-9.25a1.91 1.91 0 1 1 2.7 2.7l-5.36 5.36a.61.61 0 0 0-.11.42.63.63 0 0 0 1 .42l5.34-5.3a3.17 3.17 0 0 0 .83-2.92v-.2a.68.68 0 0 0 0-.13V19a1.93 1.93 0 0 1 1.93-1.93zM10.77 27.79a3.24 3.24 0 0 0-2.68-.94 3.34 3.34 0 0 0-.7.16l-.66.23V19a3.3 3.3 0 1 0-6.6 0v14a7.3 7.3 0 0 0 2.17 5.19l7.22 7.24v2a.75.75 0 0 0 1.5 0V45.1a.75.75 0 0 0-.23-.52l-7.44-7.45A5.8 5.8 0 0 1 1.63 33V19a1.8 1.8 0 1 1 3.6 0v10.09a.71.71 0 0 0 0 .14v.16a3.3 3.3 0 0 0 .87 3l5.41 5.35a.75.75 0 1 0 1.06-1.06l-5.36-5.31a1.79 1.79 0 1 1 2.53-2.53L19 38.1a4.89 4.89 0 0 1 1.43 3.46v5.83a.75.75 0 0 0 1.5 0v-5.84A6.39 6.39 0 0 0 20.06 37z" fill="#378fdb"/><path d="M21.16 48.26a.88.88 0 0 1-.87-.87v-5.83a4.76 4.76 0 0 0-1.39-3.37l-9.25-9.26a1.66 1.66 0 1 0-2.35 2.35l5.36 5.35a.88.88 0 0 1-.62 1.5.87.87 0 0 1-.62-.26L6 32.52a3.42 3.42 0 0 1-.9-3.16v-.12a.89.89 0 0 1 0-.17V19a1.68 1.68 0 1 0-3.35 0v14a5.67 5.67 0 0 0 1.69 4l7.43 7.45a.87.87 0 0 1 .27.61v2.29a.87.87 0 0 1-1.75 0v-1.87l-7.19-7.2A7.43 7.43 0 0 1 0 33V19a3.43 3.43 0 1 1 6.85 0v8.05l.5-.17a3.47 3.47 0 0 1 .73-.16 3.37 3.37 0 0 1 2.78 1l9.28 9.24A6.52 6.52 0 0 1 22 41.55v5.83a.88.88 0 0 1-.84.88zM8.47 28.2a1.9 1.9 0 0 1 1.35.56L19.07 38a5 5 0 0 1 1.47 3.55v5.83a.63.63 0 0 0 1.25 0v-5.83A6.26 6.26 0 0 0 20 37.12l-9.28-9.24A3.12 3.12 0 0 0 8.1 27a3.21 3.21 0 0 0-.67.15l-.83.28V19a3.18 3.18 0 1 0-6.35 0v14a7.18 7.18 0 0 0 2.13 5.1l7.26 7.28v2a.63.63 0 0 0 1.25 0V45.1a.63.63 0 0 0-.2-.43l-7.43-7.45A5.92 5.92 0 0 1 1.5 33V19a1.93 1.93 0 1 1 3.85 0v10.09a.62.62 0 0 0 0 .13v.2a3.17 3.17 0 0 0 .84 2.93l5.41 5.35a.62.62 0 0 0 .44.19.63.63 0 0 0 .44-1.07l-5.36-5.36a1.91 1.91 0 0 1 1.35-3.26zm19.78.16A14.41 14.41 0 1 0 9.79 14.54V15a14.47 14.47 0 0 0 10.34 13.36l.2.06 2.1 3.8a2 2 0 0 0 1.76 1 2 2 0 0 0 1.76-1l2.1-3.8zm-1.37-1l-2.72 4.87-2.68-4.85A.75.75 0 0 0 21 27a12.9 12.9 0 1 1 15.9-14.63l.19-.48v2.65A12.87 12.87 0 0 1 27.36 27a.75.75 0 0 0-.47.39z" fill="#378fdb"/><path d="M24.2 33.39a2.13 2.13 0 0 1-1.88-1.11l-2.07-3.75h-.15A14.68 14.68 0 0 1 9.67 15v-.5A14.61 14.61 0 0 1 20.11.59 14.52 14.52 0 0 1 36.94 21.5a14.43 14.43 0 0 1-8.66 7h-.15l-2.08 3.76a2.13 2.13 0 0 1-1.85 1.13zm0-33.14A14.3 14.3 0 0 0 9.92 14.54V15a14.42 14.42 0 0 0 10.24 13.2l.25.07 2.12 3.85a1.89 1.89 0 0 0 3.31 0L28 28.31l.25-.07a14.3 14.3 0 0 0 9.65-17.72A14.3 14.3 0 0 0 24.22.25zm-.05 32.27l-2.79-5a.63.63 0 0 0-.4-.3 13 13 0 1 1 16-15.26l.27-.69v3.31a13 13 0 0 1-9.82 12.61.63.63 0 0 0-.4.31zm0-30.75A12.78 12.78 0 0 0 21 26.93a.88.88 0 0 1 .56.43L24.17 32l2.61-4.68a.88.88 0 0 1 .55-.43A12.75 12.75 0 0 0 37 14.54v-2l-.11.28-.08-.45a12.78 12.78 0 0 0-12.63-10.6z" fill="#378fdb"/><circle cx="24.13" cy="14.56" r="1.13" fill="#378fdb"/><circle cx="18.19" cy="14.56" r="1.13" fill="#378fdb"/><circle cx="30.06" cy="14.56" r="1.13" fill="#378fdb"/></svg>