<svg xmlns="http://www.w3.org/2000/svg" width="35.83" height="50.05" viewBox="0 0 35.83 50.05"><title>realt-time-notifications</title><path d="M25,.15A10.66,10.66,0,0,0,14.59,8.68H3.7A3.56,3.56,0,0,0,.15,12.23V46.34A3.56,3.56,0,0,0,3.7,49.9H20.76a3.56,3.56,0,0,0,3.55-3.55V21.45l.71,0A10.66,10.66,0,1,0,25,.15Zm0,1.42a9.24,9.24,0,1,1-9.24,9.24A9.23,9.23,0,0,1,25,1.57ZM24.94,5.1a.71.71,0,0,0-.62.73v6.4a.71.71,0,1,0,1.42,0s0,0,0,0V5.84a.71.71,0,0,0-.68-.74ZM3.7,10.1H14.39c0,.24,0,.47,0,.71a10.68,10.68,0,0,0,.38,2.84H1.57V12.23A2.11,2.11,0,0,1,3.7,10.1Zm-2.13,5H15.25a10.66,10.66,0,0,0,7.64,6.17V38.53H1.57Zm23.45,0a.71.71,0,1,0,.71.71A.71.71,0,0,0,25,15.07ZM1.57,39.95H22.89v6.4a2.11,2.11,0,0,1-2.13,2.13H3.7a2.11,2.11,0,0,1-2.13-2.13Zm7,3.55a.71.71,0,1,0,.13,1.42h7.11a.71.71,0,1,0,0-1.42H8.54Z" style="fill:#378fdb"/><path d="M20.76,50H3.7A3.71,3.71,0,0,1,0,46.34V12.23a3.71,3.71,0,0,1,3.7-3.7H14.46A10.81,10.81,0,1,1,25,21.62h-.56V46.34A3.71,3.71,0,0,1,20.76,50ZM3.7,8.83a3.41,3.41,0,0,0-3.4,3.4V46.34a3.41,3.41,0,0,0,3.4,3.4H20.76a3.41,3.41,0,0,0,3.4-3.4V21.29h.16l.7,0A10.51,10.51,0,1,0,14.73,8.71l0,.12Zm17.06,39.8H3.7a2.26,2.26,0,0,1-2.28-2.28V39.8H23v6.55A2.26,2.26,0,0,1,20.76,48.63Zm-19-8.53v6.25a2,2,0,0,0,2,2H20.76a2,2,0,0,0,2-2V40.1Zm6.88,5a.86.86,0,0,1-.85-.78.87.87,0,0,1,.78-.94h7.25a.87.87,0,0,1,.87.87.85.85,0,0,1-.26.61.8.8,0,0,1-.61.24H8.6Zm0-1.43a.56.56,0,0,0-.51.61.56.56,0,0,0,.2.38.55.55,0,0,0,.41.13h7.13a.56.56,0,0,0,0-1.12H8.56Zm14.48-5H1.42V14.92H15.35l0,.09a10.52,10.52,0,0,0,7.53,6.09l.12,0Zm-21.32-.3h21v-17a10.82,10.82,0,0,1-7.59-6.15H1.72ZM25,20.2a9.39,9.39,0,1,1,9.39-9.39A9.4,9.4,0,0,1,25,20.2ZM25,1.72a9.09,9.09,0,1,0,9.09,9.09A9.1,9.1,0,0,0,25,1.72Zm0,14.92a.86.86,0,1,1,.86-.86A.86.86,0,0,1,25,16.65Zm0-1.42a.56.56,0,1,0,.56.56A.56.56,0,0,0,25,15.22ZM14.94,13.8H1.42V12.23A2.26,2.26,0,0,1,3.7,9.95H14.55v.16c0,.23,0,.46,0,.7a10.54,10.54,0,0,0,.37,2.8ZM1.72,13.5H14.55a10.9,10.9,0,0,1-.33-2.69c0-.19,0-.37,0-.56H3.7a2,2,0,0,0-2,2ZM25,13.1h0a.86.86,0,0,1-.85-.87V5.84A.85.85,0,0,1,24.92,5h.14a.86.86,0,0,1,.83.89v6.39a.87.87,0,0,1-.26.63A.86.86,0,0,1,25,13.1Zm0-7.86H25a.56.56,0,0,0-.49.58v6.4a.56.56,0,0,0,.55.57.61.61,0,0,0,.4-.16.56.56,0,0,0,.17-.39V5.84A.56.56,0,0,0,25,5.25Z" style="fill:#378fdb"/></svg>