<svg xmlns="http://www.w3.org/2000/svg" width="35.83" height="50.05"><path d="M25 .15a10.66 10.66 0 0 0-10.41 8.53H3.7a3.56 3.56 0 0 0-3.55 3.55v34.11A3.56 3.56 0 0 0 3.7 49.9h17.06a3.56 3.56 0 0 0 3.55-3.55v-24.9h.71A10.66 10.66 0 1 0 25 .15zm0 1.42a9.24 9.24 0 1 1-9.24 9.24A9.23 9.23 0 0 1 25 1.57zm-.06 3.53a.71.71 0 0 0-.62.73v6.4a.71.71 0 1 0 1.42 0V5.84a.71.71 0 0 0-.68-.74zm-21.24 5h10.69v.71a10.68 10.68 0 0 0 .38 2.84H1.57v-1.42A2.11 2.11 0 0 1 3.7 10.1zm-2.13 5h13.68a10.66 10.66 0 0 0 7.64 6.17v17.26H1.57zm23.45 0a.71.71 0 1 0 .71.71.71.71 0 0 0-.73-.74zM1.57 39.95h21.32v6.4a2.11 2.11 0 0 1-2.13 2.13H3.7a2.11 2.11 0 0 1-2.13-2.13zm7 3.55a.71.71 0 1 0 .13 1.42h7.11a.71.71 0 1 0 0-1.42H8.54z" fill="#378fdb"/><path d="M20.76 50H3.7A3.71 3.71 0 0 1 0 46.34V12.23a3.71 3.71 0 0 1 3.7-3.7h10.76A10.81 10.81 0 1 1 25 21.62h-.56v24.72A3.71 3.71 0 0 1 20.76 50zM3.7 8.83a3.41 3.41 0 0 0-3.4 3.4v34.11a3.41 3.41 0 0 0 3.4 3.4h17.06a3.41 3.41 0 0 0 3.4-3.4V21.29h.86A10.51 10.51 0 1 0 14.73 8.71v.12zm17.06 39.8H3.7a2.26 2.26 0 0 1-2.28-2.28V39.8H23v6.55a2.26 2.26 0 0 1-2.24 2.28zm-19-8.53v6.25a2 2 0 0 0 2 2h17a2 2 0 0 0 2-2V40.1zm6.88 5a.86.86 0 0 1-.85-.78.87.87 0 0 1 .78-.94h7.25a.87.87 0 0 1 .87.87.85.85 0 0 1-.26.61.8.8 0 0 1-.61.24H8.6zm0-1.43a.56.56 0 0 0-.51.61.56.56 0 0 0 .2.38.55.55 0 0 0 .41.13h7.13a.56.56 0 0 0 0-1.12H8.56zm14.48-5H1.42V14.92h13.93v.09a10.52 10.52 0 0 0 7.53 6.09H23zm-21.32-.3h21v-17a10.82 10.82 0 0 1-7.59-6.15H1.72zM25 20.2a9.39 9.39 0 1 1 9.39-9.39A9.4 9.4 0 0 1 25 20.2zm0-18.48a9.09 9.09 0 1 0 9.09 9.09A9.1 9.1 0 0 0 25 1.72zm0 14.92a.86.86 0 1 1 .86-.86.86.86 0 0 1-.86.87zm0-1.42a.56.56 0 1 0 .56.56.56.56 0 0 0-.56-.56zM14.94 13.8H1.42v-1.57A2.26 2.26 0 0 1 3.7 9.95h10.85v.86a10.54 10.54 0 0 0 .37 2.8zm-13.22-.3h12.83a10.9 10.9 0 0 1-.33-2.69v-.56H3.7a2 2 0 0 0-2 2zM25 13.1a.86.86 0 0 1-.85-.87V5.84a.85.85 0 0 1 .77-.84h.14a.86.86 0 0 1 .83.89v6.39a.87.87 0 0 1-.26.63.86.86 0 0 1-.63.19zm0-7.86a.56.56 0 0 0-.49.58v6.4a.56.56 0 0 0 .55.57.61.61 0 0 0 .4-.16.56.56 0 0 0 .17-.39v-6.4a.56.56 0 0 0-.63-.59z" fill="#378fdb"/></svg>