<svg xmlns="http://www.w3.org/2000/svg" width="32.05" height="42.23"><path d="M31.92 26.07a3.07 3.07 0 0 0-2.54-3 3.06 3.06 0 0 0-2.29-4.36A3.07 3.07 0 0 0 25 14.53L29.54 10a3.08 3.08 0 1 0-4.34-4.36l-9.95 9.95c-1.22 1.22-3.35 2.06-4.47 1.81a13.7 13.7 0 0 0-2.85-4.23 3.45 3.45 0 0 0-3.07-1 3.41 3.41 0 0 0-2.51 2 2.24 2.24 0 0 0 .26 2.27c.91 1.21 3 4.41 2.79 7.93v1l-5 5a.75.75 0 0 0-.19.34c0 .13-.82 3.34 3.6 7.77 3.21 3.21 5.79 3.68 7 3.68a3.19 3.19 0 0 0 .76-.08.75.75 0 0 0 .34-.19L17 36.76h.51A12 12 0 0 0 26 33.23l4.36-4.36.63-.63a3.05 3.05 0 0 0 .93-2.17zm-1.5 0a1.57 1.57 0 0 1-.42 1.11l-2.66 2.62a1.61 1.61 0 0 1-2.23 0 1.57 1.57 0 0 1 0-2.23L27.73 25a1.58 1.58 0 0 1 2.69 1.11zm-2.68-3.24l-2.62 2.62a1.61 1.61 0 0 1-2.23 0 1.58 1.58 0 0 1 0-2.23l2.62-2.62a1.61 1.61 0 0 1 2.23 0 1.58 1.58 0 0 1 0 2.23zm-2.38-6.43a1.58 1.58 0 0 1 0 2.23l-3.54 3.54a1.61 1.61 0 0 1-2.23 0 1.58 1.58 0 0 1 0-2.23l3.54-3.54a1.61 1.61 0 0 1 2.23 0zM11 40.6c-.64 0-3 0-6.16-3.23s-3.28-5.54-3.23-6.16l4-4a12.11 12.11 0 0 0 9.43 9.35zm6.46-5.32a10.51 10.51 0 0 1-5.62-1.62 3.88 3.88 0 0 0 1.07-.28 3.66 3.66 0 0 0 2.17-3.58.75.75 0 0 0-.75-.75.75.75 0 0 0-.75.75 2.2 2.2 0 0 1-1.23 2.2 3 3 0 0 1-3.13-.7 10.48 10.48 0 0 1-2.32-6.9c.25-4-2.08-7.56-3.09-8.9a.74.74 0 0 1-.09-.75 1.88 1.88 0 0 1 1.4-1.09 1.93 1.93 0 0 1 1.74.56A13.56 13.56 0 0 1 10.37 21a.75.75 0 0 0 1.46-.34c-.13-.55-.28-1.13-.47-1.72a8.13 8.13 0 0 0 5-2.28l9.9-9.96a1.61 1.61 0 0 1 2.23 0 1.57 1.57 0 0 1 0 2.23l-6.4 6.4-3.54 3.54a3.08 3.08 0 0 0 0 4.35 3.06 3.06 0 0 0 2.17.9h.24a3.06 3.06 0 0 0 .88 2.4 3.05 3.05 0 0 0 1.63.85 3.07 3.07 0 0 0 .6 3.5 3.05 3.05 0 0 0 1.42.8l-.5.5a10.52 10.52 0 0 1-7.51 3.1z" fill="#378fdb"/><path d="M10.8 42.23c-1.26 0-3.86-.48-7.09-3.71C-.76 34 0 30.77.08 30.63a.87.87 0 0 1 .23-.4l5-5v-.91c.21-3.49-1.86-6.64-2.77-7.83a2.36 2.36 0 0 1-.27-2.4 3.53 3.53 0 0 1 2.6-2 3.58 3.58 0 0 1 3.18 1 13.79 13.79 0 0 1 2.85 4.21 6 6 0 0 0 4.29-1.79l9.95-9.95a3.2 3.2 0 1 1 4.53 4.53l-4.39 4.39a3.2 3.2 0 0 1 2 4.11 3.17 3.17 0 0 1 1.62.87 3.2 3.2 0 0 1 .67 3.5 3.2 3.2 0 0 1 1.55 5.38l-5 5a12.13 12.13 0 0 1-8.64 3.58H17l-5 5a.88.88 0 0 1-.39.23 3.3 3.3 0 0 1-.81.08zm-5.33-30a3.32 3.32 0 0 0-.58.05 3.28 3.28 0 0 0-2.42 1.88 2.11 2.11 0 0 0 .24 2.14c.92 1.22 3 4.45 2.81 8v1.06l-.09.07-5 5a.62.62 0 0 0-.16.28c0 .13-.8 3.27 3.57 7.65C7.06 41.5 9.58 42 10.8 42a3.08 3.08 0 0 0 .73-.07.63.63 0 0 0 .28-.16l5.06-5.06v-.05h.58a11.89 11.89 0 0 0 8.46-3.5l5-5a2.95 2.95 0 0 0-1.57-5h-.16l.07-.15a2.93 2.93 0 0 0-2.19-4.19h-.16l.06-.15a2.95 2.95 0 0 0-2-4l-.21-.05 4.7-4.7a3 3 0 1 0-4.17-4.17l-9.95 9.95c-1.23 1.23-3.41 2.1-4.58 1.84h-.06v-.06a13.54 13.54 0 0 0-2.82-4.19 3.33 3.33 0 0 0-2.4-1.04zm5.34 28.48c-.87 0-3.1-.34-6-3.27-3.23-3.23-3.32-5.6-3.27-6.26l4.22-4.22v.23a12 12 0 0 0 9.33 9.25h.23l-4.26 4.26h-.27zm-9.06-9.45c0 .68.12 2.93 3.2 6s5.33 3.24 6 3.2l3.87-3.87a12.24 12.24 0 0 1-9.25-9.18zm15.73 4.14a10.66 10.66 0 0 1-5.69-1.64l-.3-.19h.35a3.76 3.76 0 0 0 1-.27A3.54 3.54 0 0 0 15 29.79a.63.63 0 1 0-1.25 0 2.32 2.32 0 0 1-1.34 2.31 3.17 3.17 0 0 1-3.27-.72 10.55 10.55 0 0 1-2.35-7c.24-4-2.06-7.49-3.06-8.82a.86.86 0 0 1-.1-.87 2 2 0 0 1 1.5-1.16 2.06 2.06 0 0 1 1.87.6A13.67 13.67 0 0 1 10.49 21a.63.63 0 0 0 .75.46.63.63 0 0 0 .46-.75c-.15-.63-.3-1.19-.47-1.72l-.05-.16h.17a8.05 8.05 0 0 0 4.87-2.25l9.95-9.95a1.71 1.71 0 0 1 1.2-.48A1.69 1.69 0 0 1 28.57 9l-9.94 10a2.95 2.95 0 0 0 2.31 5h.14v.14a2.92 2.92 0 0 0 2.4 3.12h.16l-.07.15a2.94 2.94 0 0 0 1.94 4.13l.21.05-.66.66a10.65 10.65 0 0 1-7.58 3.15zm-5.27-1.68a10.45 10.45 0 0 0 12.67-1.64l.35-.35a3.19 3.19 0 0 1-2-4.28 3.17 3.17 0 0 1-2.46-3.21 3.16 3.16 0 0 1-2.37-.93 3.2 3.2 0 0 1 0-4.53l10-9.94a1.44 1.44 0 0 0-1-2.46 1.45 1.45 0 0 0-1 .41l-10 9.95A8.29 8.29 0 0 1 11.52 19c.15.48.29 1 .43 1.58a.88.88 0 1 1-1.7.4 13.44 13.44 0 0 0-3.47-6.68 1.81 1.81 0 0 0-1.63-.52 1.76 1.76 0 0 0-1.31 1 .61.61 0 0 0 .07.62c1 1.35 3.36 4.93 3.12 9a10.29 10.29 0 0 0 2.28 6.8 2.91 2.91 0 0 0 3 .66 2.08 2.08 0 0 0 1.19-2.08.88.88 0 1 1 1.75 0 3.78 3.78 0 0 1-2.25 3.7 3.9 3.9 0 0 1-.78.24zm14-3.35A1.69 1.69 0 0 1 25 27.49l2.62-2.62a1.7 1.7 0 1 1 2.4 2.4l-2.62 2.62a1.7 1.7 0 0 1-1.18.48zm2.62-5.75a1.44 1.44 0 0 0-1 .42l-2.63 2.62a1.43 1.43 0 0 0 1 2.46 1.45 1.45 0 0 0 1-.41l2.62-2.62a1.45 1.45 0 0 0-1-2.48zM24 26a1.68 1.68 0 0 1-1.2-2.88l2.62-2.62a1.7 1.7 0 0 1 1.2-.48 1.69 1.69 0 0 1 1.2 2.89l-2.62 2.63A1.7 1.7 0 0 1 24 26zm2.62-5.74a1.45 1.45 0 0 0-1 .41L23 23.31a1.45 1.45 0 0 0 0 2.05 1.49 1.49 0 0 0 2.05 0l2.62-2.62a1.44 1.44 0 0 0-1-2.46zm-5.91 2.45a1.68 1.68 0 0 1-1.2-2.88L23 16.31a1.7 1.7 0 0 1 1.2-.48 1.7 1.7 0 0 1 1.2.48 1.7 1.7 0 0 1 0 2.4l-3.54 3.54a1.7 1.7 0 0 1-1.15.48zm3.54-6.66a1.45 1.45 0 0 0-1 .41L19.69 20a1.45 1.45 0 0 0 0 2.05 1.49 1.49 0 0 0 2.05 0l3.54-3.54a1.44 1.44 0 0 0-1-2.46z" fill="#378fdb"/><path d="M13.61 8.64a.75.75 0 0 0 .74.66h.09a.75.75 0 0 0 .65-.84L14.42 3a.75.75 0 0 0-1.49.19z" fill="#378fdb"/><path d="M14.35 9.42a.88.88 0 0 1-.87-.77l-.68-5.41a.87.87 0 0 1 .76-1 .88.88 0 0 1 1 .76l.68 5.41a.87.87 0 0 1-.76 1zm-.68-6.91h-.07a.62.62 0 0 0-.54.7l.68 5.41a.63.63 0 0 0 1.11.31.62.62 0 0 0 .15-.46l-.7-5.41a.63.63 0 0 0-.62-.55zm4.26 6.71a.75.75 0 0 0 1-.36l3.59-7.67a.75.75 0 0 0-1.36-.63l-3.59 7.67a.75.75 0 0 0 .36.99z" fill="#378fdb"/><path d="M18.25 9.42a.87.87 0 0 1-.37-.08.88.88 0 0 1-.42-1.16L21.05.5a.88.88 0 1 1 1.58.74L19 8.92a.88.88 0 0 1-.75.5zM18 9.11a.64.64 0 0 0 .83-.3l3.59-7.67a.63.63 0 1 0-1.14-.53l-3.6 7.67a.63.63 0 0 0 .3.83zm-7.38 3.32A.75.75 0 1 0 12 11.8L6.71.56a.75.75 0 0 0-1.36.64z" fill="#378fdb"/><path d="M11.3 13a.88.88 0 0 1-.79-.5L5.23 1.25A.88.88 0 0 1 6.82.5l5.27 11.24A.88.88 0 0 1 11.3 13zM6 .25a.62.62 0 0 0-.56.89l5.27 11.24a.64.64 0 0 0 .83.3.63.63 0 0 0 .3-.83L6.59.61A.63.63 0 0 0 6 .25z" fill="#378fdb"/></svg>