<svg xmlns="http://www.w3.org/2000/svg" width="51.3" height="51.3"><path d="M17.82 12.78a1 1 0 0 1-.35-.06 5.54 5.54 0 0 1-2-1.29 5.64 5.64 0 0 1 0-7.89A3.6 3.6 0 0 0 16.5 1a1 1 0 0 1 1.56-.83 5.63 5.63 0 0 1 1.52 7.74 5.14 5.14 0 0 0-.77 3.71 1 1 0 0 1-1 1.17zm.27-9.67a5.58 5.58 0 0 1-1.2 1.83 3.63 3.63 0 0 0-.1 5 7.1 7.1 0 0 1 1.13-3.11 3.64 3.64 0 0 0 .17-3.71z" fill="#378fdb"/><path d="M37 51.3H16.4a20.8 20.8 0 0 1-13.26-8.79A20.38 20.38 0 0 1 0 35.09a1 1 0 0 1 1.81-.76 9.55 9.55 0 0 0 6.6 4.12 17.35 17.35 0 0 1 5.29-22.87 1 1 0 0 1 1.49 1.21A17.9 17.9 0 0 0 14.43 28 16.57 16.57 0 0 1 20 21.74a10.12 10.12 0 0 0 2.78-14 1 1 0 0 1 1.39-1.39 25.52 25.52 0 0 1 10.94 16.33 9.3 9.3 0 0 1-.3 4.8 9.22 9.22 0 0 0 5.11-10.14 1 1 0 0 1 .21-.83 1 1 0 0 1 1.48-.07 12.07 12.07 0 0 1 0 17A10 10 0 0 0 39 38l.54.14a8.4 8.4 0 0 0 9.76-6.5 1 1 0 0 1 2 .21 20.76 20.76 0 0 1-14 19.43 1 1 0 0 1-.3.02zm-20.26-2h20.04a18.87 18.87 0 0 0 11.67-12.08A10.45 10.45 0 0 1 45 39.49a9.8 9.8 0 0 1-7.52.07 1 1 0 0 1-.62-1.11 12 12 0 0 1 3.33-6.38A10.07 10.07 0 0 0 42 20.37a11.23 11.23 0 0 1-9 9.76 1 1 0 0 1-1-1.54 7.31 7.31 0 0 0 1.1-5.53 23.51 23.51 0 0 0-7-12.63 12.13 12.13 0 0 1-5 13 14.57 14.57 0 0 0-5.82 7.81 1 1 0 0 1-1.88.09 19.92 19.92 0 0 1-1.12-11.92 15.38 15.38 0 0 0-1.61 18.95c.09.13.19.26.29.39l.16.21a1 1 0 0 1-.75 1.6 11.65 11.65 0 0 1-7.2-2 18.5 18.5 0 0 0 1.6 2.88 18.81 18.81 0 0 0 11.92 7.86z" fill="#378fdb"/><path d="M23.07 51.3h-2.75a1 1 0 0 1-.79-.38 10.51 10.51 0 0 0-2.42-2.25 9.72 9.72 0 0 1-2.68-13.47 1 1 0 0 1 1.75.17 7.68 7.68 0 0 0 2.4 3.13A14.86 14.86 0 0 1 24 26.92a11.48 11.48 0 0 1 5-2.26A1 1 0 0 1 30.14 26a19.25 19.25 0 0 0 .13 12.42 15.83 15.83 0 0 1 .86 4.16 16.08 16.08 0 0 0 2-5.17 1 1 0 0 1 1.9-.19 19.64 19.64 0 0 1 .6 13.41 1 1 0 0 1-1 .7H23.07zm-2.27-2h13.12a17.64 17.64 0 0 0 .21-8.3 18.06 18.06 0 0 1-3.34 5.36 1 1 0 0 1-1.74-.8 14.17 14.17 0 0 0-.67-6.5 21.24 21.24 0 0 1-.63-12 9.71 9.71 0 0 0-2.51 1.42 13.11 13.11 0 0 0-4.57 11.71 1 1 0 0 1-1.41 1 9.71 9.71 0 0 1-4-3.34A7.72 7.72 0 0 0 18.22 47a12.48 12.48 0 0 1 2.57 2.29z" fill="#378fdb"/></svg>