<svg xmlns="http://www.w3.org/2000/svg" width="48.48" height="45.15"><path d="M48.23 31.06a6.82 6.82 0 0 0-.66-2.89l-2.84-5.91.13-.23a3 3 0 0 0 .39-1.25 3 3 0 0 0-2.65-3.15l-6.17-.8-1.64-4.09a6.51 6.51 0 0 0-.37-.76L34 11.3l.78-.07a5.5 5.5 0 1 0-6-5c0 .16 0 .32.06.49l.1.59h-.64l-.15-.06A46.16 46.16 0 0 0 20.48 4l-.67-.21a2.91 2.91 0 0 0-3 .7L11.18 10a3 3 0 0 0-.18 4.14 2.94 2.94 0 0 0 4.13.28l.13-.12 4.36-4.3 2.66 1.43-3.55 5.44a7 7 0 0 0-.9 2.62v.18L11 25.83l-6.08-2.22a3.5 3.5 0 0 0-4.34 1.71 3.37 3.37 0 0 0-.07 2.75A3.42 3.42 0 0 0 2.5 30l8.13 3a3.37 3.37 0 0 0 1.17.21 3.38 3.38 0 0 0 2.2-.88l7.16-5.26 3.56 4.54L20.91 40a3.52 3.52 0 0 0 .84 4.13 3.42 3.42 0 0 0 1.45.72l.4.07a3.41 3.41 0 0 0 3.46-2l4.74-10.36a3.41 3.41 0 0 0-.31-3.38v-.05l-3.4-6.42 2.47-4.32 1.05 2.17a3 3 0 0 0 2 1.81 1.45 1.45 0 0 1 .26 0h.07l4.4.6-2.73 4.69A6.77 6.77 0 0 0 38.1 37a6.81 6.81 0 0 0 2.9.89h.49a6.78 6.78 0 0 0 6.74-6.83zM13 31.19a1.85 1.85 0 0 1-1.23.46 1.89 1.89 0 0 1-.44-.05l-.19-.06L3 28.57a1.92 1.92 0 0 1-1.1-1.07 1.88 1.88 0 0 1 0-1.56A2 2 0 0 1 4.43 25l6.49 2.37a.75.75 0 0 0 .76-.15l6.17-5.63.23.75a7 7 0 0 0 1.19 2.28l1 1.24zM34.25 20.9H34a1.42 1.42 0 0 1-1-.9v-.07l-1.7-3.5a.75.75 0 0 0-1.33 0l-3.38 5.9a.74.74 0 0 0 0 .72l3.65 6.9.07.11a1.87 1.87 0 0 1 .19 1.92l-4.79 10.31A1.92 1.92 0 0 1 24 43.4h-.38a2 2 0 0 1-.88-.44 2 2 0 0 1-.4-2.36l4-8.76a.75.75 0 0 0-.14-.84l-5.74-7.31a5.41 5.41 0 0 1-.46-6.1l4-6.1a.75.75 0 0 0-.22-1h-.06l-3.89-2a.75.75 0 0 0-.88.13l-4.78 4.72a1.44 1.44 0 0 1-2.1-.09 1.5 1.5 0 0 1 .16-2l5.65-5.6a1.41 1.41 0 0 1 1.44-.34l.67.21a44.66 44.66 0 0 1 7.42 3.17 2.24 2.24 0 0 0 2.71-.47 1.39 1.39 0 0 0 .32-1.31 4 4 0 0 1 .07-2.34 4 4 0 0 1 4.29-2.7 4 4 0 0 1 3.51 4.44 3.91 3.91 0 0 1-.08.45A4 4 0 0 1 34 9.72l-.46-.09a1.25 1.25 0 0 0-1.12 2.08 4.83 4.83 0 0 1 1 1.55l1.83 4.5a.75.75 0 0 0 .6.46l6.6.86a1.5 1.5 0 0 1 1.36 1.5 1.44 1.44 0 0 1-.53 1 1.39 1.39 0 0 1-1.1.3zm7.2 15.48a5.27 5.27 0 0 1-4.53-7.94L40 23.21l1.95.25a2.84 2.84 0 0 0 1.21-.08l.41-.12 2.64 5.58a5.26 5.26 0 0 1-4.75 7.55z" fill="#378fdb"/><path d="M24 45.15h-.39l-.42-.07a3.66 3.66 0 0 1-1.55-.78 3.77 3.77 0 0 1-.9-4.43l3.77-8.22-3.32-4.23-7 5.12a3.7 3.7 0 0 1-3.63.66l-8.13-3a3.68 3.68 0 0 1-2.15-2.04 3.62 3.62 0 0 1 .08-3A3.75 3.75 0 0 1 5 23.38l6 2.17 6.63-6v-.09a7.22 7.22 0 0 1 .93-2.72l3.4-5.22-2.26-1.22-4.26 4.2-.14.13a3.18 3.18 0 0 1-4.49-.3A3.26 3.26 0 0 1 11 9.86l5.68-5.59a3.15 3.15 0 0 1 3.2-.76l.67.21A46.44 46.44 0 0 1 28.27 7h.45l-.05-.29c0-.17-.05-.34-.07-.51a5.75 5.75 0 1 1 6.22 5.23h-.39l.19.34a6.81 6.81 0 0 1 .38.79l1.59 4 6 .78a3.29 3.29 0 0 1 2.87 3.41 3.21 3.21 0 0 1-.43 1.36l-.07.11 2.79 5.79a7.06 7.06 0 0 1 .69 3 7 7 0 0 1-7 7H41a7.07 7.07 0 0 1-3-.92 7 7 0 0 1-2.57-9.59l2.54-4.37-4-.55h-.31a3.18 3.18 0 0 1-2.26-2l-.84-1.72-2.16 3.79L31.7 29a3.65 3.65 0 0 1 .3 3.66L27.28 43A3.66 3.66 0 0 1 24 45.15zm-2.77-18.43L25 31.57l-3.9 8.5a3.27 3.27 0 0 0 .78 3.84 3.16 3.16 0 0 0 1.34.67l.37.06a3.16 3.16 0 0 0 3.21-1.82l4.74-10.35a3.16 3.16 0 0 0-.29-3.13v-.07l-3.49-6.57 2.77-4.85 1.26 2.59a2.7 2.7 0 0 0 1.88 1.68 1.35 1.35 0 0 1 .26 0l4.82.66-2.92 5a6.52 6.52 0 0 0 2.39 8.9 6.55 6.55 0 0 0 2.79.86h.47A6.53 6.53 0 0 0 48 31.06a6.57 6.57 0 0 0-.64-2.79l-2.9-6 .2-.34a2.7 2.7 0 0 0 .34-1.17 2.79 2.79 0 0 0-2.44-2.88l-6.31-.82-1.7-4.23a6.25 6.25 0 0 0-.35-.73l-.58-1 1.17-.1a5.25 5.25 0 1 0-5.69-4.8c0 .15 0 .31.06.46l.16.88H28.2l-.15-.06a46.1 46.1 0 0 0-7.65-3.26L19.74 4a2.66 2.66 0 0 0-2.7.64l-5.68 5.59a2.76 2.76 0 0 0-.2 3.75 2.68 2.68 0 0 0 3.78.25l.12-.11 4.52-4.46 3.07 1.65L19 17a6.71 6.71 0 0 0-.86 2.52v.27l-7 6.36-6.3-2.3a3.25 3.25 0 0 0-4 1.58A3.11 3.11 0 0 0 .74 28a3.18 3.18 0 0 0 1.84 1.77l8.13 3a3.18 3.18 0 0 0 3.15-.58zM24 43.65H23.58a2.21 2.21 0 0 1-1-.5 2.26 2.26 0 0 1-.46-2.66l4-8.75a.5.5 0 0 0-.06-.52l-5.74-7.31a5.66 5.66 0 0 1-.45-6.41l4-6.11a.5.5 0 0 0-.14-.69l-4.01-2.09a.5.5 0 0 0-.58.09l-4.78 4.72a1.69 1.69 0 0 1-2.47-.1 1.76 1.76 0 0 1 .18-2.39l5.64-5.59a1.67 1.67 0 0 1 1.69-.4l.67.21a44.92 44.92 0 0 1 7.46 3.18 2 2 0 0 0 2.41-.42 1.14 1.14 0 0 0 .26-1.08 4.24 4.24 0 0 1 .07-2.49 4.3 4.3 0 0 1 4.56-2.87 4.27 4.27 0 0 1-.9 8.53l-.48-.09a1 1 0 0 0-1.14.83 1 1 0 0 0 .25.84 5 5 0 0 1 1.06 1.63l1.83 4.5a.5.5 0 0 0 .4.31l6.6.86a1.74 1.74 0 0 1 1.55 1.7 1.69 1.69 0 0 1-.63 1.24 1.64 1.64 0 0 1-1.29.35l-7.82-1h-.33a1.67 1.67 0 0 1-1.21-1.06L31 16.55a.5.5 0 0 0-.88 0l-3.38 5.9a.49.49 0 0 0 0 .47l3.65 6.9v.08a2.12 2.12 0 0 1 .29 2.1l-4.75 10.39A2.18 2.18 0 0 1 24 43.65zM19.49 8a1 1 0 0 1 .47.12l3.89 2h.08a1 1 0 0 1 .29 1.38l-4 6.1a5.16 5.16 0 0 0 .42 5.83l5.74 7.31a1 1 0 0 1 .12 1l-4 8.76a1.76 1.76 0 0 0 .35 2.08 1.7 1.7 0 0 0 .76.37H24a1.68 1.68 0 0 0 1.52-1l4.75-10.35a1.62 1.62 0 0 0-.16-1.66L30 30l-3.65-6.9a1 1 0 0 1 0-1l3.38-5.9a1 1 0 0 1 1.77.06l1.7 3.5v.09a1.17 1.17 0 0 0 .85.74h.18l7.94 1a1.14 1.14 0 0 0 .9-.25 1.19 1.19 0 0 0 .45-.87 1.25 1.25 0 0 0-1.13-1.23l-6.61-.86a1 1 0 0 1-.8-.62l-1.83-4.5a4.57 4.57 0 0 0-1-1.47 1.5 1.5 0 0 1 1.34-2.5l.47.09a3.76 3.76 0 0 0 4-2.91 3.54 3.54 0 0 0 .07-.42A3.75 3.75 0 0 0 34.78 2a3.79 3.79 0 0 0-4 2.54 3.74 3.74 0 0 0-.06 2.19 1.64 1.64 0 0 1-.38 1.55 2.49 2.49 0 0 1-3 .52 44.41 44.41 0 0 0-7.38-3.15l-.67-.21a1.17 1.17 0 0 0-1.19.28l-5.65 5.6a1.25 1.25 0 0 0-.17 1.68 1.17 1.17 0 0 0 .62.37 1.2 1.2 0 0 0 1.1-.31l4.77-4.72a1 1 0 0 1 .72-.34zm22 28.59a5.52 5.52 0 0 1-4.75-8.32l3.15-5.38 2.11.27a2.61 2.61 0 0 0 1.11-.08l.62-.18 2.73 5.77a5.51 5.51 0 0 1-5 7.91zm-1.37-13.11l-3 5.09a5 5 0 1 0 8.84.37l-2.55-5.39-.21.06a3.12 3.12 0 0 1-1.32.09zM11.8 31.91a2.15 2.15 0 0 1-.5-.06l-.21-.06-8.17-3a2.17 2.17 0 0 1-1.25-1.19 2.13 2.13 0 0 1 .06-1.76 2.27 2.27 0 0 1 2.8-1L11 27.16a.5.5 0 0 0 .51-.1L18 21.17l.35 1.13a6.73 6.73 0 0 0 1.15 2.2l1.13 1.45-7.42 5.45a2.09 2.09 0 0 1-1.41.51zm-8.08-6.76a1.78 1.78 0 0 0-1.55.92 1.62 1.62 0 0 0 0 1.34 1.67 1.67 0 0 0 1 .93l8.34 3a1.65 1.65 0 0 0 .37 0 1.61 1.61 0 0 0 1.07-.4l7-5.15-.82-1a7.22 7.22 0 0 1-1.24-2.36l-.12-.38-5.88 5.37a1 1 0 0 1-1 .2l-6.54-2.36a1.72 1.72 0 0 0-.63-.11zM1 12.74h4.46a.75.75 0 0 0 0-1.5H1a.75.75 0 0 0 0 1.5z" fill="#378fdb"/><path d="M5.46 13H1a1 1 0 0 1 0-2h4.46a1 1 0 1 1 0 2zM1 11.49a.5.5 0 0 0 0 1h4.46a.5.5 0 1 0 0-1zm3.79-5.38h4.46a.75.75 0 1 0 0-1.5H4.79a.75.75 0 0 0 0 1.5z" fill="#378fdb"/><path d="M9.25 6.36H4.79a1 1 0 0 1 0-2h4.46a1 1 0 1 1 0 2zm-4.46-1.5a.5.5 0 0 0 0 1h4.46a.5.5 0 0 0 0-1zM4 18.61a.75.75 0 0 0 .75.75h4.5a.75.75 0 1 0 0-1.5H4.79a.75.75 0 0 0-.79.75z" fill="#378fdb"/><path d="M9.25 19.61H4.79a1 1 0 0 1 0-2h4.46a1 1 0 1 1 0 2zm-4.46-1.5a.5.5 0 1 0 0 1h4.46a.5.5 0 0 0 0-1z" fill="#378fdb"/></svg>