<svg xmlns="http://www.w3.org/2000/svg" width="46.21" height="50.85" viewBox="0 0 46.21 50.85"><title>water-leaks</title><path d="M6.66,33H5.06A12.84,12.84,0,0,0,17.89,45.79v-1.6A11.24,11.24,0,0,1,6.66,33Z" style="fill:#378fdb"/><path d="M18.14,46h-.25A13.09,13.09,0,0,1,4.81,33v-.25h2.1V33a11,11,0,0,0,11,11h.25ZM5.31,33.21A12.59,12.59,0,0,0,17.64,45.53v-1.1A11.49,11.49,0,0,1,6.42,33.21Z" style="fill:#378fdb"/><path d="M46,24.93C46,17.64,32.31.4,32.31.4S28.2,5.58,24.9,10.7c-3.28-4.77-7-9.5-7-9.5S.25,23.49.25,33a17.64,17.64,0,0,0,34.44,5.38A13.67,13.67,0,0,0,46,24.93ZM17.89,49a16.05,16.05,0,0,1-16-16c0-7.91,13-25.23,16-29.16,3,3.93,16,21.24,16,29.16A16.05,16.05,0,0,1,17.89,49ZM35.14,36.62A17.79,17.79,0,0,0,35.53,33c0-5.27-5-14-9.63-20.81,2.53-4,5.24-7.6,6.42-9.15,2.56,3.33,12,16.08,12,21.94A12,12,0,0,1,35.14,36.62Z" style="fill:#378fdb"/><path d="M17.89,50.85A17.91,17.91,0,0,1,0,33C0,29,3,22.4,8.85,13.4,13.22,6.71,17.64,1.1,17.68,1l.2-.25.2.25s3.63,4.58,6.82,9.2c3.23-5,7.18-10,7.22-10l.2-.25.2.25c.56.71,13.7,17.39,13.7,24.68A13.85,13.85,0,0,1,34.88,38.56,17.85,17.85,0,0,1,17.89,50.85Zm0-49.24C16,4.09.5,24.22.5,33a17.39,17.39,0,0,0,33.95,5.3l0-.14.15,0A13.35,13.35,0,0,0,45.71,24.93C45.71,18.28,34,3,32.31.81c-.86,1.1-4.35,5.61-7.2,10l-.2.32-.21-.31C21.88,6.75,18.69,2.65,17.88,1.61Zm0,47.64A16.31,16.31,0,0,1,1.6,33c0-7.85,12.32-24.42,16.09-29.31l.2-.26.2.26C21.86,8.54,34.18,25.12,34.18,33A16.31,16.31,0,0,1,17.89,49.25Zm0-45C14.82,8.21,2.1,25.25,2.1,33a15.79,15.79,0,1,0,31.57,0C33.68,25.25,21,8.21,17.89,4.21ZM34.81,37l.08-.39a17.58,17.58,0,0,0,.38-3.6c0-4.17-3.32-11.32-9.59-20.67l-.09-.14.09-.14C28,8.4,30.45,5,32.12,2.85l.2-.26.2.26C35.35,6.54,44.6,19,44.6,24.94a12.37,12.37,0,0,1-9.4,11.92ZM26.19,12.15c4.4,6.57,9.59,15.46,9.59,20.81a18,18,0,0,1-.31,3.31A11.87,11.87,0,0,0,44.1,24.94c0-5.72-9.4-18.4-11.78-21.53C30.68,5.56,28.36,8.74,26.19,12.15Z" style="fill:#378fdb"/></svg>