<svg xmlns="http://www.w3.org/2000/svg" width="46.21" height="50.85"><path d="M6.66 33h-1.6a12.84 12.84 0 0 0 12.83 12.79v-1.6A11.24 11.24 0 0 1 6.66 33z" fill="#378fdb"/><path d="M18.14 46h-.25A13.09 13.09 0 0 1 4.81 33v-.25h2.1V33a11 11 0 0 0 11 11h.25zM5.31 33.21a12.59 12.59 0 0 0 12.33 12.32v-1.1A11.49 11.49 0 0 1 6.42 33.21z" fill="#378fdb"/><path d="M46 24.93C46 17.64 32.31.4 32.31.4S28.2 5.58 24.9 10.7c-3.28-4.77-7-9.5-7-9.5S.25 23.49.25 33a17.64 17.64 0 0 0 34.44 5.38A13.67 13.67 0 0 0 46 24.93zM17.89 49a16.05 16.05 0 0 1-16-16c0-7.91 13-25.23 16-29.16 3 3.93 16 21.24 16 29.16a16.05 16.05 0 0 1-16 16zm17.25-12.38a17.79 17.79 0 0 0 .39-3.62c0-5.27-5-14-9.63-20.81 2.53-4 5.24-7.6 6.42-9.15 2.56 3.33 12 16.08 12 21.94a12 12 0 0 1-9.18 11.64z" fill="#378fdb"/><path d="M17.89 50.85A17.91 17.91 0 0 1 0 33c0-4 3-10.6 8.85-19.6C13.22 6.71 17.64 1.1 17.68 1l.2-.25.2.25s3.63 4.58 6.82 9.2c3.23-5 7.18-10 7.22-10l.2-.25.2.25c.56.71 13.7 17.39 13.7 24.68a13.85 13.85 0 0 1-11.34 13.68 17.85 17.85 0 0 1-16.99 12.29zm0-49.24C16 4.09.5 24.22.5 33a17.39 17.39 0 0 0 33.95 5.3v-.14h.15a13.35 13.35 0 0 0 11.11-13.23C45.71 18.28 34 3 32.31.81c-.86 1.1-4.35 5.61-7.2 10l-.2.32-.21-.31c-2.82-4.07-6.01-8.17-6.82-9.21zm0 47.64A16.31 16.31 0 0 1 1.6 33c0-7.85 12.32-24.42 16.09-29.31l.2-.26.2.26C21.86 8.54 34.18 25.12 34.18 33a16.31 16.31 0 0 1-16.29 16.25zm0-45C14.82 8.21 2.1 25.25 2.1 33a15.79 15.79 0 1 0 31.57 0C33.68 25.25 21 8.21 17.89 4.21zM34.81 37l.08-.39a17.58 17.58 0 0 0 .38-3.6c0-4.17-3.32-11.32-9.59-20.67l-.09-.14.09-.14C28 8.4 30.45 5 32.12 2.85l.2-.26.2.26C35.35 6.54 44.6 19 44.6 24.94a12.37 12.37 0 0 1-9.4 11.92zm-8.62-24.85c4.4 6.57 9.59 15.46 9.59 20.81a18 18 0 0 1-.31 3.31 11.87 11.87 0 0 0 8.63-11.33c0-5.72-9.4-18.4-11.78-21.53-1.64 2.15-3.96 5.33-6.13 8.74z" fill="#378fdb"/></svg>