<svg xmlns="http://www.w3.org/2000/svg" width="80.05" height="44.05" viewBox="0 0 80.05 44.05"><title>wind-rain</title><path d="M39.27,37.7a1,1,0,0,1-1-1.26l1.89-7.06a1,1,0,0,1,1.93.52L40.23,37A1,1,0,0,1,39.27,37.7Z" style="fill:#378fdb"/><path d="M37.57,43.8l-.19,0a.75.75,0,0,1-.53-.92l.62-2.32a.75.75,0,0,1,1.45.39l-.62,2.32A.75.75,0,0,1,37.57,43.8Z" style="fill:#3fa9f5"/><path d="M46.89,43.8l-.19,0a.75.75,0,0,1-.53-.92l.62-2.32a.75.75,0,0,1,1.45.39l-.62,2.32A.75.75,0,0,1,46.89,43.8Z" style="fill:#3fa9f5"/><path d="M42.23,44a1,1,0,0,1-1-1.26l3.59-13.41a1,1,0,0,1,1.93.52L43.19,43.3A1,1,0,0,1,42.23,44Z" style="fill:#378fdb"/><path d="M48.59,37.7a1,1,0,0,1-1-1.26l1.89-7.06a1,1,0,0,1,1.93.52L49.55,37A1,1,0,0,1,48.59,37.7Z" style="fill:#378fdb"/><path d="M51.55,44a1,1,0,0,1-1-1.26l3.59-13.41a1,1,0,1,1,1.93.52L52.51,43.3A1,1,0,0,1,51.55,44Z" style="fill:#378fdb"/><path d="M28.41,39.72A5.75,5.75,0,0,1,22.66,34a1,1,0,0,1,2,0,3.75,3.75,0,1,0,3.75-3.75,1,1,0,0,1,0-2,5.75,5.75,0,0,1,0,11.49Z" style="fill:#378fdb"/><path d="M28.41,30.23H7.21a1,1,0,0,1,0-2H28.41a1,1,0,0,1,0,2Z" style="fill:#378fdb"/><path d="M36.71,26.59H1a1,1,0,0,1,0-2H36.71a1,1,0,0,1,0,2Z" style="fill:#378fdb"/><path d="M36.71,26.59a1,1,0,0,1,0-2A3.75,3.75,0,1,0,33,20.84a1,1,0,1,1-2,0,5.75,5.75,0,1,1,5.75,5.75Z" style="fill:#378fdb"/><path d="M70.21,35H58.86a1,1,0,0,1,0-2H70.21a7.84,7.84,0,1,0-1.95-15.43A1,1,0,0,1,67,16.37,7.84,7.84,0,0,0,59.37,6.9a7.8,7.8,0,0,0-7.28,5,1,1,0,0,1-1.9-.11,13.2,13.2,0,0,0-25.93,3.45c0,.37,0,.76.05,1.15a1,1,0,0,1-1.17,1.07,7.8,7.8,0,0,0-8.57,4.67,1,1,0,0,1-1.84-.78,9.79,9.79,0,0,1,9.52-6s0-.08,0-.12A15.2,15.2,0,0,1,51.35,9a9.84,9.84,0,0,1,17.86,5.7q0,.31,0,.61a9.84,9.84,0,1,1,1,19.62Z" style="fill:#378fdb"/></svg>