<svg xmlns="http://www.w3.org/2000/svg" width="112.79" height="99.84"><path d="M56.48 42A12.49 12.49 0 1 0 44 29.53 12.56 12.56 0 0 0 56.48 42zm0-22.24a9.92 9.92 0 1 1-9.92 9.92 10 10 0 0 1 9.92-9.91z" fill="#378fdb"/><path d="M56.48 42.52a13 13 0 1 1 13-13 13.07 13.07 0 0 1-13 13zm0-25a12 12 0 1 0 12 12 12 12 0 0 0-12-11.99zm0 22.59A10.44 10.44 0 0 1 46.06 29.7a10.42 10.42 0 1 1 20.85 0 10.44 10.44 0 0 1-10.43 10.42zm0-19.85a9.54 9.54 0 0 0-9.42 9.44 9.42 9.42 0 1 0 9.42-9.44z" fill="#378fdb"/><path d="M32.87 50.74A12.79 12.79 0 0 0 31 56.9s-.86 8.21-1.2 16.08v1.37h53.55V73c-.34-7.87-1.2-15.91-1.2-15.91a13.39 13.39 0 0 0-1.88-6.33 10.1 10.1 0 0 0-5.65-4.62L65.89 43l-8 14.54h-2.78l-7.87-14.67L38.52 46a11.14 11.14 0 0 0-5.65 4.74zM46 46l7.53 14h5.82l7.53-14 6.67 2.4a7.46 7.46 0 0 1 4.28 3.59 10.71 10.71 0 0 1 1.54 5.13s.86 7.19 1.2 14.54h-6.8l-.51-8.9-2.57.17.51 8.73H41.77l.51-8.73-2.57-.17-.51 8.9h-6.84c.34-7.36 1.2-14.37 1.2-14.72a10 10 0 0 1 1.54-5 8.15 8.15 0 0 1 4.28-3.59z" fill="#378fdb"/><path d="M83.85 74.86H29.29V73c.34-7.82 1.19-16.05 1.2-16.14a13.3 13.3 0 0 1 1.94-6.35 11.56 11.56 0 0 1 5.89-5l9.16-3.23 7.93 14.83h2.14l8.11-14.66 9.13 3.22a10.55 10.55 0 0 1 5.92 4.85 13.76 13.76 0 0 1 1.94 6.57s.86 8.1 1.2 15.89zm-53.56-1h52.56V73c-.34-7.74-1.19-15.78-1.2-15.86A12.87 12.87 0 0 0 79.83 51a9.56 9.56 0 0 0-5.37-4.39l-8.33-2.94-8 14.43h-3.32L47 43.49l-8.32 2.94A10.56 10.56 0 0 0 33.31 51a12.34 12.34 0 0 0-1.81 5.91c0 .13-.86 8.34-1.2 16.11zm50.84-1.74h-7.84l-.51-8.87-1.57.1.51 8.76H41.24l.52-8.76-1.57-.1-.51 8.87h-7.85v-.52c.27-5.72.84-11.22 1.09-13.57.07-.63.11-1 .11-1.12a10.49 10.49 0 0 1 1.61-5.2 8.6 8.6 0 0 1 4.54-3.81l7.08-2.54 7.59 14.15h5.22l7.59-14.15 7.08 2.54a7.94 7.94 0 0 1 4.56 3.84 11 11 0 0 1 1.59 5.36s.86 7.23 1.2 14.52zm-6.9-1h5.85c-.35-7.07-1.16-13.92-1.17-14a10.34 10.34 0 0 0-1.48-4.94 7 7 0 0 0-4-3.37l-6.27-2.25-7.47 13.92h-6.41l-7.47-13.91-6.27 2.25a7.69 7.69 0 0 0-4 3.37 9.57 9.57 0 0 0-1.48 4.72c0 .08 0 .51-.12 1.22-.24 2.27-.78 7.49-1.06 13h5.85l.52-8.93 3.56.24-.51 8.69h28.37l-.51-8.69 3.56-.24z" fill="#378fdb"/><path d="M53.4 3.17A46.69 46.69 0 0 1 103 43.9l-7.36-5L94.3 41l10.61 7.19 7.19-10.61-2.1-1.38-4.62 6.67a49.22 49.22 0 0 0-16.6-30.29A49.9 49.9 0 0 0 52.89.61C29.1 2.32 9.43 21.83 7.37 46l2.57.17a47.25 47.25 0 0 1 43.46-43z" fill="#378fdb"/><path d="M105 48.87l-11.39-7.74 1.92-2.88 6.85 4.62a46.21 46.21 0 0 0-48.94-39.2 46.88 46.88 0 0 0-43 42.49v.49l-3.57-.24v-.51C8.95 21.54 28.72 1.85 52.85.11a50.26 50.26 0 0 1 36.3 12.1 49.36 49.36 0 0 1 16.57 29.35l4.19-6.05 2.88 1.92zm-10-8.02l9.78 6.63 6.62-9.78-1.23-.82-5.06 7.31-.18-1.26A48.39 48.39 0 0 0 88.5 13 49.28 49.28 0 0 0 52.92 1.11c-23.48 1.69-42.74 20.72-45 44.38l1.57.1A47.9 47.9 0 0 1 53.37 2.68a47.19 47.19 0 0 1 50.15 41.16l.13 1.08-7.85-5.29zM60.08 96.6A47 47 0 0 1 10.28 56l6.84 5.13 1.54-2.05L8.4 51.43.7 61.7l2.05 1.54 5-6.5a49.63 49.63 0 0 0 48.9 42.6 25.27 25.27 0 0 0 3.59-.17 49.76 49.76 0 0 0 45.86-46l-2.56-.17a47.33 47.33 0 0 1-43.46 43.6z" fill="#378fdb"/><path d="M56.65 99.84A49.21 49.21 0 0 1 24 87.57 49.55 49.55 0 0 1 7.4 58l-4.55 6L0 61.8l8.3-11.07L19.37 59l-2.14 2.85L11 57.18A46.55 46.55 0 0 0 60 96.1a46.92 46.92 0 0 0 43-43.17v-.5l3.56.24v.5a50.24 50.24 0 0 1-46.28 46.5 25.59 25.59 0 0 1-3.63.17zM8 55.48l.17 1.18a48 48 0 0 0 16.47 30.15 48.23 48.23 0 0 0 32 12 25 25 0 0 0 3.52-.17 49.25 49.25 0 0 0 45.41-45.04l-1.57-.1a47.93 47.93 0 0 1-43.89 43.6 47.53 47.53 0 0 1-50.32-41l-.16-1.18L17 60.48l1-1.25-9.5-7.1-7.1 9.46 1.26.94z" fill="#378fdb"/></svg>