<svg xmlns="http://www.w3.org/2000/svg" width="64.35" height="77.02"><path d="M11 77A11.06 11.06 0 0 1 0 66.12V22.73h6.76l.14-1.35C8.24 8.39 18.16 0 32.18 0s23.93 8.39 25.28 21.38l.14 1.35h6.76v44.09A11 11 0 0 1 53.29 77H11.14zM3.74 66.12c0 4.92 4.14 7.12 8.24 7.12h40.4c4.1 0 8.24-2.2 8.24-7.12V26.47H3.74zM32.18 3.74C20.12 3.74 12.1 10.2 10.72 21l-.21 1.69h43.34L53.63 21c-1.38-10.8-9.4-17.26-21.45-17.26z" fill="#378fdb"/><path d="M30.31 63.51v-8.26l-1-.35a10.32 10.32 0 0 1 .79-19.77 10.43 10.43 0 0 1 2.57-.32 10.32 10.32 0 0 1 2.53 20.33l-1.2.28v8.08zm.81-24.65a6.43 6.43 0 1 0 1.5-.21l-1.5.05z" fill="#378fdb"/></svg>