<svg xmlns="http://www.w3.org/2000/svg" width="64.35" height="77.02" viewBox="0 0 64.35 77.02"><title>data-security</title><path d="M11,77A11.06,11.06,0,0,1,0,66.12V22.73H6.76l.14-1.35C8.24,8.39,18.16,0,32.18,0S56.11,8.39,57.46,21.38l.14,1.35h6.76V66.11c0,.23,0,.47,0,.71A11,11,0,0,1,53.29,77h0q-.43,0-.87,0H11.89l-.75,0ZM3.74,66.12c0,4.92,4.14,7.12,8.24,7.12H52.38c4.1,0,8.24-2.2,8.24-7.12V26.47H3.74ZM32.18,3.74C20.12,3.74,12.1,10.2,10.72,21l-.21,1.69H53.85L53.63,21C52.25,10.2,44.23,3.74,32.18,3.74Z" style="fill:#378fdb"/><path d="M30.31,63.51V55.25l-1-.35a10.32,10.32,0,0,1,.79-19.77,10.43,10.43,0,0,1,2.57-.32,10.32,10.32,0,0,1,2.53,20.33L34,55.42v8.08Zm.81-24.65a6.43,6.43,0,1,0,1.5-.21l-1.5.05Z" style="fill:#378fdb"/></svg>