<svg xmlns="http://www.w3.org/2000/svg" width="102.6" height="102.6"><path d="M35.64 25.57a2 2 0 0 1-.69-.12 11.08 11.08 0 0 1-4-2.59 11.27 11.27 0 0 1 0-15.78A7.19 7.19 0 0 0 33 2 2 2 0 0 1 36.11.34a11.26 11.26 0 0 1 3 15.47 10.29 10.29 0 0 0-1.54 7.42 2 2 0 0 1-2 2.34zm.53-19.34a11.16 11.16 0 0 1-2.41 3.66 7.26 7.26 0 0 0-.21 9.94 14.21 14.21 0 0 1 2.26-6.21 7.27 7.27 0 0 0 .36-7.39z" fill="#378fdb"/><path d="M73.9 102.6H33.18a2 2 0 0 1-.39 0A41.61 41.61 0 0 1 6.29 85 40.77 40.77 0 0 1 0 70.18a2 2 0 0 1 3.62-1.52 19.09 19.09 0 0 0 13.23 8.24 34.71 34.71 0 0 1 10.57-45.74 2 2 0 0 1 3 2.41 35.8 35.8 0 0 0-1.55 22.53A33.14 33.14 0 0 1 40 43.48a20.24 20.24 0 0 0 5.57-28 2 2 0 0 1 2.77-2.77 51 51 0 0 1 21.87 32.64 18.6 18.6 0 0 1-.6 9.6 18.44 18.44 0 0 0 10.23-20.27 2 2 0 0 1 .41-1.68 2.07 2.07 0 0 1 3-.15 24.13 24.13 0 0 1 0 34.09 19.92 19.92 0 0 0-5.19 9c.38.11.74.2 1.09.27a16.81 16.81 0 0 0 19.53-13 2 2 0 0 1 4 .41 41.52 41.52 0 0 1-28 38.86 2 2 0 0 1-.78.12zm-40.52-4h40.18a37.73 37.73 0 0 0 23.35-24.15A20.9 20.9 0 0 1 90 79a19.61 19.61 0 0 1-15 .13 2 2 0 0 1-1.25-2.22 23.94 23.94 0 0 1 6.67-12.75 20.15 20.15 0 0 0 3.68-23.39 22.46 22.46 0 0 1-17.96 19.49 2 2 0 0 1-2.05-3.07 14.63 14.63 0 0 0 2.2-11.06 47 47 0 0 0-14-25.26A24.26 24.26 0 0 1 42.25 46.8a29.13 29.13 0 0 0-11.64 15.63 2 2 0 0 1-3.75.19 39.84 39.84 0 0 1-2.25-23.84 30.77 30.77 0 0 0-3.23 37.89c.18.27.38.53.58.78l.33.42a2 2 0 0 1-1.5 3.21A23.3 23.3 0 0 1 6.39 77a37 37 0 0 0 3.2 5.76A37.63 37.63 0 0 0 33.38 98.6z" fill="#378fdb"/><path d="M46.13 102.59h-5.5a2 2 0 0 1-1.57-.76 21 21 0 0 0-4.84-4.5 19.44 19.44 0 0 1-5.36-26.94 2 2 0 0 1 3.51.34 15.36 15.36 0 0 0 4.8 6.27c.11-9.25 4.08-17.89 10.83-23.16a23 23 0 0 1 10-4.51 2 2 0 0 1 2.25 2.59 38.51 38.51 0 0 0 .25 24.83 31.66 31.66 0 0 1 1.73 8.33 32.15 32.15 0 0 0 4-10.33 2 2 0 0 1 3.81-.38 39.27 39.27 0 0 1 1.2 26.83 2 2 0 0 1-1.91 1.4h-23.2zm-4.55-4h26.27A35.27 35.27 0 0 0 68.26 82a36.13 36.13 0 0 1-6.68 10.72 2 2 0 0 1-3.47-1.59 28.34 28.34 0 0 0-1.35-13 42.48 42.48 0 0 1-1.27-23.93 19.43 19.43 0 0 0-5 2.83c-6.6 5.15-10.1 14.13-9.14 23.43a2 2 0 0 1-2.83 2 19.41 19.41 0 0 1-7.92-6.68A15.45 15.45 0 0 0 36.45 94a25 25 0 0 1 5.14 4.59z" fill="#378fdb"/></svg>