<svg xmlns="http://www.w3.org/2000/svg" width="63.44" height="100.66"><path d="M32.13 77c-3.15 0-7.42-.86-9.07-3.29a56.61 56.61 0 0 1-6.54-13.18l-.25-.73-6 5.57a5.67 5.67 0 0 1-3.77 1.44H5.09a5.91 5.91 0 0 1-3.93-3.5 17.11 17.11 0 0 1 4.41-18.82 18.69 18.69 0 0 1 7.34-4.43l.34-.11v-.35c.3-14.13 6.31-27.45 17.37-38.51L31.72 0l1.09 1.09C43.87 12.15 49.87 25.47 50.18 39.6v.4l.34.11a18.67 18.67 0 0 1 7.33 4.42 17.12 17.12 0 0 1 4.42 18.83 5.91 5.91 0 0 1-3.93 3.5H57a5.7 5.7 0 0 1-3.79-1.42l-6-5.56-.25.71a62.51 62.51 0 0 1-7 13.8C38.23 76.75 34 77 32.23 77zm-12-15.7a56.31 56.31 0 0 0 5.61 10.81c.52.78 2.88 1.87 6.5 1.87h.1c3 0 4.58-.77 5-1.18a59.36 59.36 0 0 0 6-11.51l.43-1.1-1.09.46a27.95 27.95 0 0 1-21.87 0l-1.09-.46zm30.05-17.41a58.92 58.92 0 0 1-1 8.38l-1 4.39 7.12 6.48a2.56 2.56 0 0 0 2.3.63 2.66 2.66 0 0 0 1.79-1.53 14 14 0 0 0-3.62-15.41 19.42 19.42 0 0 0-4.86-3.38l-.68-.33zm-37.64-.42a19.47 19.47 0 0 0-4.87 3.38A14 14 0 0 0 4 62.23a2.66 2.66 0 0 0 1.79 1.54 2.58 2.58 0 0 0 .57.06 2.55 2.55 0 0 0 1.76-.7l7.12-6.48-1-4.1c-.48-2.84-.82-5.77-1-8.67v-.74zM21.89 18a51.36 51.36 0 0 0-4.47 34c.2 1.22.52 2.48.82 3.69v.2l.18.14A25 25 0 0 0 45 56l.17-.11 1-4.12A51.38 51.38 0 0 0 41.54 18l-.23-.45-.45.23A20.1 20.1 0 0 1 31.72 20a20.1 20.1 0 0 1-9.15-2.21l-.45-.23zm9.47-13.18A57.63 57.63 0 0 0 24 14.39l-.28.46.48.25a16.47 16.47 0 0 0 15.09 0l.48-.25-.28-.46a57.58 57.58 0 0 0-7.38-9.56l-.36-.38zm.36 95.84a1.56 1.56 0 0 1-1.56-1.56V86.27a1.56 1.56 0 1 1 3.12 0V99.1a1.56 1.56 0 0 1-1.56 1.56zm10.41-5.05a1.56 1.56 0 0 1-1.56-1.56v-9.84a1.56 1.56 0 1 1 3.12 0v9.84a1.56 1.56 0 0 1-1.56 1.56zm-20.82-1.13a1.56 1.56 0 0 1-1.56-1.56v-8.71a1.56 1.56 0 1 1 3.12 0v8.71a1.56 1.56 0 0 1-1.56 1.56z" fill="#378fdb"/><path d="M31.72 45.17a10.11 10.11 0 1 1 10.11-10.12 10.13 10.13 0 0 1-10.11 10.12zm0-17.11a7 7 0 1 0 7 7 7 7 0 0 0-7-7z" fill="#378fdb"/></svg>