<svg xmlns="http://www.w3.org/2000/svg" width="63.44" height="100.66" viewBox="0 0 63.44 100.66"><title>launch</title><path d="M32.13,77c-3.15,0-7.42-.86-9.07-3.29a56.61,56.61,0,0,1-6.54-13.18l-.25-.73-6,5.57A5.67,5.67,0,0,1,6.5,66.81H5.09a5.91,5.91,0,0,1-3.93-3.5A17.11,17.11,0,0,1,5.57,44.49a18.69,18.69,0,0,1,7.34-4.43l.34-.11V39.6c.3-14.13,6.31-27.45,17.37-38.51L31.72,0l1.09,1.09C43.87,12.15,49.87,25.47,50.18,39.6V40l.34.11a18.67,18.67,0,0,1,7.33,4.42,17.12,17.12,0,0,1,4.42,18.83,5.91,5.91,0,0,1-3.93,3.5H57a5.7,5.7,0,0,1-3.79-1.42l-6-5.56-.25.71a62.51,62.51,0,0,1-7,13.8C38.23,76.75,34,77,32.23,77Zm-12-15.7a56.31,56.31,0,0,0,5.61,10.81c.52.78,2.88,1.87,6.5,1.87h.1c3,0,4.58-.77,5-1.18a59.36,59.36,0,0,0,6-11.51l.43-1.1-1.09.46a27.95,27.95,0,0,1-21.87,0l-1.09-.46ZM50.18,43.89a58.92,58.92,0,0,1-1,8.38l-1,4.39,7.12,6.48a2.56,2.56,0,0,0,2.3.63,2.66,2.66,0,0,0,1.79-1.53,14,14,0,0,0-3.62-15.41,19.42,19.42,0,0,0-4.86-3.38l-.68-.33Zm-37.64-.42a19.47,19.47,0,0,0-4.87,3.38A14,14,0,0,0,4,62.23a2.66,2.66,0,0,0,1.79,1.54,2.58,2.58,0,0,0,.57.06,2.55,2.55,0,0,0,1.76-.7l7.12-6.48-1-4.1c-.48-2.84-.82-5.77-1-8.67l0-.74ZM21.89,18A51.36,51.36,0,0,0,17.42,52c.2,1.22.52,2.48.82,3.69l0,.2.18.14A25,25,0,0,0,45,56l.17-.11,1-4.12A51.38,51.38,0,0,0,41.54,18l-.23-.45-.45.23A20.1,20.1,0,0,1,31.72,20a20.1,20.1,0,0,1-9.15-2.21l-.45-.23ZM31.36,4.82A57.63,57.63,0,0,0,24,14.39l-.28.46.48.25a16.47,16.47,0,0,0,15.09,0l.48-.25-.28-.46a57.58,57.58,0,0,0-7.38-9.56l-.36-.38Z" style="fill:#378fdb"/><path d="M31.72,100.66a1.56,1.56,0,0,1-1.56-1.56V86.27a1.56,1.56,0,1,1,3.12,0V99.1A1.56,1.56,0,0,1,31.72,100.66Z" style="fill:#378fdb"/><path d="M42.13,95.61a1.56,1.56,0,0,1-1.56-1.56V84.21a1.56,1.56,0,1,1,3.12,0v9.84A1.56,1.56,0,0,1,42.13,95.61Z" style="fill:#378fdb"/><path d="M21.31,94.48a1.56,1.56,0,0,1-1.56-1.56V84.21a1.56,1.56,0,1,1,3.12,0v8.71A1.56,1.56,0,0,1,21.31,94.48Z" style="fill:#378fdb"/><path d="M31.72,45.17A10.11,10.11,0,1,1,41.83,35.05,10.13,10.13,0,0,1,31.72,45.17Zm0-17.11a7,7,0,1,0,7,7A7,7,0,0,0,31.72,28.06Z" style="fill:#378fdb"/></svg>