<svg xmlns="http://www.w3.org/2000/svg" width="115" height="28.73"><path d="M110.1 28.67h-3.33A17.58 17.58 0 0 0 89.2 11.1V7.77a20.92 20.92 0 0 1 20.9 20.9z" fill="#3e8ede"/><path d="M103.3 28.68H100a10.78 10.78 0 0 0-10.8-10.77v-3.33a14.12 14.12 0 0 1 14.1 14.1z" fill="#3e8ede"/><path d="M96.42 28.68h-3.34a3.89 3.89 0 0 0-3.88-3.88v-3.34a7.23 7.23 0 0 1 7.22 7.22z" fill="#3e8ede"/><path d="M66.5 16.95l-.23-.07L65 16.4l-.44-.15c-1.87-.71-2.67-1.23-2.73-2.39a2.35 2.35 0 0 1 .63-1.78 3.2 3.2 0 0 1 2.36-.88H65a5.8 5.8 0 0 1 4.19 2.12L71.81 11a9 9 0 0 0-6.6-3.25 7.06 7.06 0 0 0-5.54 2.09A5.58 5.58 0 0 0 58.09 14c.15 3.17 2.5 4.46 5.3 5.52l.23.07 1.29.46.44.15c1.87.71 2.67 1.23 2.73 2.39a2.36 2.36 0 0 1-.63 1.78 3.15 3.15 0 0 1-2.36.75h-.19c-2-.13-3.6-1.7-5.09-2.8l-2.63 2.29a10.87 10.87 0 0 0 7.51 4.05 7.06 7.06 0 0 0 5.55-2.09 5.58 5.58 0 0 0 1.57-4.16c-.15-3.11-2.51-4.41-5.31-5.46zM22.08 7.69a10.52 10.52 0 1 0 10.48 10.52A10.52 10.52 0 0 0 22.08 7.69zm0 17.91A7.26 7.26 0 0 1 15 18.21a7.26 7.26 0 0 1 7.11-7.39 7.26 7.26 0 0 1 7.11 7.39 7.26 7.26 0 0 1-7.14 7.39zM45 7.69a10.52 10.52 0 1 0 10.52 10.52A10.52 10.52 0 0 0 45 7.69zm0 17.91a7.26 7.26 0 0 1-7.11-7.39 7.12 7.12 0 1 1 14.23 0A7.26 7.26 0 0 1 45 25.6zM11.14 7.83H7.48A7.49 7.49 0 0 0 0 15.31v13.33h3.37V16.2a5 5 0 0 1 5-5h2.76zm74.63 3.29V7.75H78V0h-3.4v21.11a7.49 7.49 0 0 0 7.48 7.48h3.66v-3.37H83a5 5 0 0 1-5-5v-9.1z" fill="#0033a0" fill-rule="evenodd"/><path d="M112.62 26v1.86h.33v-.73h.26a.79.79 0 0 1 .36.06.45.45 0 0 1 .18.43v.25h.31a.28.28 0 0 1 0-.1v-.28a.51.51 0 0 0-.1-.29.45.45 0 0 0-.32-.18.71.71 0 0 0 .27-.09.41.41 0 0 0 .18-.37.46.46 0 0 0-.29-.47 1.41 1.41 0 0 0-.51-.07zm1.13.56a.29.29 0 0 1-.19.29.89.89 0 0 1-.31 0h-.3v-.65h.28a.85.85 0 0 1 .4.07.28.28 0 0 1 .12.27m1.25.37a1.69 1.69 0 0 0-3.38 0 1.65 1.65 0 0 0 .49 1.2 1.69 1.69 0 0 0 2.4 0 1.64 1.64 0 0 0 .5-1.2m-1.69-1.46a1.46 1.46 0 0 1 1.45 1.46 1.42 1.42 0 0 1-.42 1 1.45 1.45 0 0 1-2.06 0 1.43 1.43 0 0 1-.42-1 1.46 1.46 0 0 1 1.45-1.46" fill="#0033a0"/></svg>