<svg xmlns="http://www.w3.org/2000/svg" width="115" height="28.73" viewBox="0 0 115 28.73"><title>logo</title><path d="M110.1,28.67h-3.33A17.58,17.58,0,0,0,89.2,11.1V7.77A20.92,20.92,0,0,1,110.1,28.67Z" style="fill:#3e8ede"/><path d="M103.3,28.68H100A10.78,10.78,0,0,0,89.2,17.91V14.58A14.12,14.12,0,0,1,103.3,28.68Z" style="fill:#3e8ede"/><path d="M96.42,28.68H93.08A3.89,3.89,0,0,0,89.2,24.8V21.46A7.23,7.23,0,0,1,96.42,28.68Z" style="fill:#3e8ede"/><path d="M66.5,16.95h0l-.23-.07L65,16.4l-.44-.15c-1.87-.71-2.67-1.23-2.73-2.39a2.35,2.35,0,0,1,.63-1.78,3.2,3.2,0,0,1,2.36-.88H65a5.8,5.8,0,0,1,4.19,2.12L71.81,11a9,9,0,0,0-6.6-3.25,7.06,7.06,0,0,0-5.54,2.09A5.58,5.58,0,0,0,58.09,14c.15,3.17,2.5,4.46,5.3,5.52h0l.23.07,1.29.46.44.15c1.87.71,2.67,1.23,2.73,2.39a2.36,2.36,0,0,1-.63,1.78,3.15,3.15,0,0,1-2.36.75H64.9c-2-.13-3.6-1.7-5.09-2.8l-2.63,2.29a10.87,10.87,0,0,0,7.51,4.05,7.06,7.06,0,0,0,5.55-2.09,5.58,5.58,0,0,0,1.57-4.16C71.66,19.3,69.3,18,66.5,16.95Z" style="fill:#0033a0;fill-rule:evenodd"/><path d="M22.08,7.69A10.52,10.52,0,1,0,32.56,18.21,10.52,10.52,0,0,0,22.08,7.69Zm0,17.91A7.26,7.26,0,0,1,15,18.21a7.26,7.26,0,0,1,7.11-7.39,7.26,7.26,0,0,1,7.11,7.39A7.26,7.26,0,0,1,22.08,25.6Z" style="fill:#0033a0;fill-rule:evenodd"/><path d="M45,7.69A10.52,10.52,0,1,0,55.52,18.21,10.52,10.52,0,0,0,45,7.69ZM45,25.6a7.26,7.26,0,0,1-7.11-7.39,7.12,7.12,0,1,1,14.23,0A7.26,7.26,0,0,1,45,25.6Z" style="fill:#0033a0;fill-rule:evenodd"/><path d="M11.14,7.83H7.48A7.49,7.49,0,0,0,0,15.31V28.64H3.37V16.2a5,5,0,0,1,5-5h2.76Z" style="fill:#0033a0;fill-rule:evenodd"/><path d="M85.77,11.12V7.75H78V0H74.6V21.11a7.49,7.49,0,0,0,7.48,7.48h3.66V25.22H83a5,5,0,0,1-5-5v-9.1Z" style="fill:#0033a0;fill-rule:evenodd"/><path d="M112.62,26v1.86h.33v-.73h.26a.79.79,0,0,1,.36.06.45.45,0,0,1,.18.43v.25h.31v0a.28.28,0,0,1,0-.1s0-.1,0-.14v-.14a.51.51,0,0,0-.1-.29.45.45,0,0,0-.32-.18.71.71,0,0,0,.27-.09.41.41,0,0,0,.18-.37.46.46,0,0,0-.29-.47,1.41,1.41,0,0,0-.51-.07Zm1.13.56a.29.29,0,0,1-.19.29.89.89,0,0,1-.31,0h-.3V26.2h.28a.85.85,0,0,1,.4.07.28.28,0,0,1,.12.27m1.25.37a1.69,1.69,0,0,0-3.38,0,1.65,1.65,0,0,0,.49,1.2,1.69,1.69,0,0,0,2.4,0,1.64,1.64,0,0,0,.5-1.2m-1.69-1.46a1.46,1.46,0,0,1,1.45,1.46,1.42,1.42,0,0,1-.42,1,1.45,1.45,0,0,1-2.06,0,1.43,1.43,0,0,1-.42-1,1.46,1.46,0,0,1,1.45-1.46" style="fill:#0033a0"/></svg>