<svg xmlns="http://www.w3.org/2000/svg" width="96.5" height="96.53" viewBox="0 0 96.5 96.53"><title>proactive-communication</title><path d="M93.89,33h0A6.6,6.6,0,0,0,83,38V54.44L81.68,54a6.64,6.64,0,0,0-1.4-.31A6.47,6.47,0,0,0,75,55.57L56.42,74.07a12.78,12.78,0,0,0-3.71,9V94.78a1.5,1.5,0,0,0,3,0V83.11a9.79,9.79,0,0,1,2.83-6.92L77,57.7a3.66,3.66,0,0,1,5.05,0,3.58,3.58,0,0,1,0,5.05L71.37,73.47a1.51,1.51,0,0,0,.23,2.05,1.49,1.49,0,0,0,2,0L84.21,64.87a6.59,6.59,0,0,0,1.73-6.07l0-.16,0-.16a1.7,1.7,0,0,0,0-.3V38a3.6,3.6,0,1,1,7.21,0V66a11.63,11.63,0,0,1-3.41,8.23L75,89.13a1.49,1.49,0,0,0-.44,1.06v4.58a1.5,1.5,0,0,0,3,0V90.86L91.91,76.38A14.62,14.62,0,0,0,96.25,66V38A6.58,6.58,0,0,0,93.89,33Z" style="fill:#378fdb"/><path d="M76,96.53a1.75,1.75,0,0,1-1.75-1.75V90.2A1.74,1.74,0,0,1,74.78,89l14.76-14.9A11.38,11.38,0,0,0,92.88,66V38a3.35,3.35,0,1,0-6.71,0V58.18a1.85,1.85,0,0,1,0,.32v.12l0,.12a6.84,6.84,0,0,1-1.8,6.3L73.72,75.7a1.75,1.75,0,0,1-2.9-1.17,1.72,1.72,0,0,1,.35-1.21L81.91,62.58a3.32,3.32,0,0,0-4.7-4.7L58.72,76.37A9.53,9.53,0,0,0,56,83.11V94.78a1.75,1.75,0,0,1-3.5,0V83.1a13,13,0,0,1,3.78-9.21L74.78,55.39a6.72,6.72,0,0,1,5.52-2,6.89,6.89,0,0,1,1.45.32l1,.34V38a6.85,6.85,0,0,1,6.31-6.83,6.79,6.79,0,0,1,5,1.62l-.16.2.16-.19A6.83,6.83,0,0,1,96.5,38V66a14.88,14.88,0,0,1-4.41,10.53L77.77,91v3.81A1.75,1.75,0,0,1,76,96.53Zm13.5-62.38A3.86,3.86,0,0,1,93.38,38V66A11.88,11.88,0,0,1,89.9,74.4L75.14,89.31a1.25,1.25,0,0,0-.37.89v4.58a1.25,1.25,0,0,0,2.5,0v-4l.07-.07L91.73,76.21A14.38,14.38,0,0,0,96,66V38a6.33,6.33,0,0,0-2.27-4.86h0a6.35,6.35,0,0,0-9,.71A6.36,6.36,0,0,0,83.25,38v16.8l-1.65-.56a6.39,6.39,0,0,0-1.35-.3,6.23,6.23,0,0,0-5.11,1.82L56.59,74.24A12.52,12.52,0,0,0,53,83.1V94.78a1.25,1.25,0,0,0,2.5,0V83.11A10,10,0,0,1,58.36,76L76.86,57.52a3.82,3.82,0,1,1,5.41,5.41L71.54,73.65a1.23,1.23,0,0,0-.22.84,1.25,1.25,0,0,0,2.06.84L84,64.69a6.34,6.34,0,0,0,1.66-5.84l0-.19,0-.2a1.36,1.36,0,0,0,0-.25V38A3.86,3.86,0,0,1,89.52,34.14Z" style="fill:#378fdb"/><path d="M21.54,55.58a6.49,6.49,0,0,0-5.36-1.88,6.67,6.67,0,0,0-1.4.31l-1.32.45V38A6.6,6.6,0,1,0,.25,38V66A14.61,14.61,0,0,0,4.58,76.38L19,90.86v3.91a1.5,1.5,0,0,0,3,0V90.2a1.51,1.51,0,0,0-.47-1L6.7,74.25A11.61,11.61,0,0,1,3.25,66V38a3.6,3.6,0,1,1,7.21,0V58.18a1.42,1.42,0,0,0,0,.29l0,.16,0,.16a6.59,6.59,0,0,0,1.74,6.08L23,75.57a1.5,1.5,0,1,0,2.13-2.12L14.41,62.74a3.57,3.57,0,1,1,5.05-5.05L38,76.19a9.78,9.78,0,0,1,2.86,6.92V94.78a1.5,1.5,0,0,0,3,0V83.11a12.77,12.77,0,0,0-3.71-9Z" style="fill:#378fdb"/><path d="M42.32,96.53a1.75,1.75,0,0,1-1.75-1.75V83.11a9.52,9.52,0,0,0-2.79-6.74L19.29,57.87a3.32,3.32,0,1,0-4.7,4.7l10.72,10.7a1.75,1.75,0,0,1-1.24,3h0a1.74,1.74,0,0,1-1.24-.52L12,65a6.85,6.85,0,0,1-1.81-6.31l0-.12v-.12a1.79,1.79,0,0,1,0-.34V38A3.35,3.35,0,1,0,3.5,38V66a11.35,11.35,0,0,0,3.38,8L21.74,89a1.75,1.75,0,0,1,.54,1.22v4.58a1.75,1.75,0,0,1-3.5,0V91L4.41,76.55A14.86,14.86,0,0,1,0,66V38a6.85,6.85,0,1,1,13.71,0V54.11l1-.34a7,7,0,0,1,1.45-.32,6.75,6.75,0,0,1,5.57,2L40.29,73.89a13,13,0,0,1,3.78,9.22V94.78A1.75,1.75,0,0,1,42.32,96.53ZM16.94,56.39a3.8,3.8,0,0,1,2.7,1.12L38.13,76a10,10,0,0,1,2.94,7.1V94.78a1.25,1.25,0,0,0,2.5,0V83.11a12.52,12.52,0,0,0-3.63-8.87L21.37,55.75a6.24,6.24,0,0,0-5.16-1.81,6.41,6.41,0,0,0-1.35.3l-1.65.56V38A6.35,6.35,0,1,0,.5,38V66A14.35,14.35,0,0,0,4.76,76.2L19.28,90.76v4a1.25,1.25,0,0,0,2.5,0V90.2a1.26,1.26,0,0,0-.39-.86L6.53,74.43A11.85,11.85,0,0,1,3,66V38a3.85,3.85,0,1,1,7.71,0V58.18a1.24,1.24,0,0,0,0,.26l0,.2,0,.2a6.34,6.34,0,0,0,1.67,5.85l10.83,10.7a1.25,1.25,0,0,0,.89.37h0A1.25,1.25,0,0,0,25,73.62L14.24,62.92a3.82,3.82,0,0,1,2.7-6.53Z" style="fill:#378fdb"/><path d="M56.51,56.72A28.81,28.81,0,1,0,19.59,29.08v1A28.93,28.93,0,0,0,40.25,56.72l.39.12,4.2,7.6a4,4,0,0,0,3.52,2.09h0a4,4,0,0,0,3.52-2.09l4.2-7.61Zm-2.73-1.94-5.44,9.75L43,54.83a1.5,1.5,0,0,0-1-.73A25.8,25.8,0,1,1,73.79,24.74l.37-1,0,5.3A25.75,25.75,0,0,1,54.72,54,1.51,1.51,0,0,0,53.78,54.78Z" style="fill:#378fdb"/><path d="M48.39,66.78a4.27,4.27,0,0,1-3.77-2.22L40.48,57l-.3-.09A29.35,29.35,0,0,1,19.34,30.09v-1A29.22,29.22,0,0,1,40.22,1.19,29,29,0,0,1,73.89,43,28.86,28.86,0,0,1,56.58,57l-.3.09-4.15,7.52A4.25,4.25,0,0,1,48.39,66.78ZM48.44.5a28.61,28.61,0,0,0-28.6,28.58v1a28.84,28.84,0,0,0,20.49,26.4l.49.14,4.25,7.69a3.78,3.78,0,0,0,6.63,0l4.25-7.7.49-.14A28.59,28.59,0,0,0,75.8,21,28.6,28.6,0,0,0,48.44.5ZM48.33,65,42.76,55a1.25,1.25,0,0,0-.8-.61A26.05,26.05,0,1,1,73.88,23.83l.53-1.37,0,6.62A26,26,0,0,1,54.79,54.29a1.26,1.26,0,0,0-.79.61h0Zm0-61.5a25.55,25.55,0,0,0-6.29,50.32,1.75,1.75,0,0,1,1.12.85L48.34,64l5.22-9.35a1.76,1.76,0,0,1,1.11-.85A25.5,25.5,0,0,0,73.93,29.08v-4l-.22.56-.15-.89A25.57,25.57,0,0,0,48.36,3.54Z" style="fill:#378fdb"/><circle cx="48.25" cy="29.13" r="2.25" style="fill:#378fdb"/><circle cx="36.38" cy="29.13" r="2.25" style="fill:#378fdb"/><circle cx="60.12" cy="29.13" r="2.25" style="fill:#378fdb"/></svg>