<svg xmlns="http://www.w3.org/2000/svg" width="96.5" height="96.53"><path d="M93.89 33A6.6 6.6 0 0 0 83 38v16.44L81.68 54a6.64 6.64 0 0 0-1.4-.31A6.47 6.47 0 0 0 75 55.57l-18.58 18.5a12.78 12.78 0 0 0-3.71 9v11.71a1.5 1.5 0 0 0 3 0V83.11a9.79 9.79 0 0 1 2.83-6.92L77 57.7a3.66 3.66 0 0 1 5.05 0 3.58 3.58 0 0 1 0 5.05L71.37 73.47a1.51 1.51 0 0 0 .23 2.05 1.49 1.49 0 0 0 2 0l10.61-10.65a6.59 6.59 0 0 0 1.73-6.07v-.32a1.7 1.7 0 0 0 0-.3V38a3.6 3.6 0 1 1 7.21 0v28a11.63 11.63 0 0 1-3.41 8.23L75 89.13a1.49 1.49 0 0 0-.44 1.06v4.58a1.5 1.5 0 0 0 3 0v-3.91l14.35-14.48A14.62 14.62 0 0 0 96.25 66V38a6.58 6.58 0 0 0-2.36-5z" fill="#378fdb"/><path d="M76 96.53a1.75 1.75 0 0 1-1.75-1.75V90.2a1.74 1.74 0 0 1 .53-1.2l14.76-14.9a11.38 11.38 0 0 0 3.34-8.1V38a3.35 3.35 0 1 0-6.71 0v20.18a1.85 1.85 0 0 1 0 .32v.24a6.84 6.84 0 0 1-1.8 6.3L73.72 75.7a1.75 1.75 0 0 1-2.9-1.17 1.72 1.72 0 0 1 .35-1.21l10.74-10.74a3.32 3.32 0 0 0-4.7-4.7L58.72 76.37A9.53 9.53 0 0 0 56 83.11v11.67a1.75 1.75 0 0 1-3.5 0V83.1a13 13 0 0 1 3.78-9.21l18.5-18.5a6.72 6.72 0 0 1 5.52-2 6.89 6.89 0 0 1 1.45.32l1 .34V38a6.85 6.85 0 0 1 6.31-6.83 6.79 6.79 0 0 1 5 1.62l-.16.2.16-.19A6.83 6.83 0 0 1 96.5 38v28a14.88 14.88 0 0 1-4.41 10.53L77.77 91v3.81A1.75 1.75 0 0 1 76 96.53zm13.5-62.38A3.86 3.86 0 0 1 93.38 38v28a11.88 11.88 0 0 1-3.48 8.4L75.14 89.31a1.25 1.25 0 0 0-.37.89v4.58a1.25 1.25 0 0 0 2.5 0v-4l.07-.07 14.39-14.5A14.38 14.38 0 0 0 96 66V38a6.33 6.33 0 0 0-2.27-4.86 6.35 6.35 0 0 0-9 .71A6.36 6.36 0 0 0 83.25 38v16.8l-1.65-.56a6.39 6.39 0 0 0-1.35-.3 6.23 6.23 0 0 0-5.11 1.82L56.59 74.24A12.52 12.52 0 0 0 53 83.1v11.68a1.25 1.25 0 0 0 2.5 0V83.11A10 10 0 0 1 58.36 76l18.5-18.48a3.82 3.82 0 1 1 5.41 5.41L71.54 73.65a1.23 1.23 0 0 0-.22.84 1.25 1.25 0 0 0 2.06.84L84 64.69a6.34 6.34 0 0 0 1.66-5.84v-.39a1.36 1.36 0 0 0 0-.25V38a3.86 3.86 0 0 1 3.86-3.86zM21.54 55.58a6.49 6.49 0 0 0-5.36-1.88 6.67 6.67 0 0 0-1.4.31l-1.32.45V38A6.6 6.6 0 1 0 .25 38v28a14.61 14.61 0 0 0 4.33 10.38L19 90.86v3.91a1.5 1.5 0 0 0 3 0V90.2a1.51 1.51 0 0 0-.47-1L6.7 74.25A11.61 11.61 0 0 1 3.25 66V38a3.6 3.6 0 1 1 7.21 0v20.18a1.42 1.42 0 0 0 0 .29v.32a6.59 6.59 0 0 0 1.74 6.08L23 75.57a1.5 1.5 0 1 0 2.13-2.12L14.41 62.74a3.57 3.57 0 1 1 5.05-5.05L38 76.19a9.78 9.78 0 0 1 2.86 6.92v11.67a1.5 1.5 0 0 0 3 0V83.11a12.77 12.77 0 0 0-3.71-9z" fill="#378fdb"/><path d="M42.32 96.53a1.75 1.75 0 0 1-1.75-1.75V83.11a9.52 9.52 0 0 0-2.79-6.74l-18.49-18.5a3.32 3.32 0 1 0-4.7 4.7l10.72 10.7a1.75 1.75 0 0 1-1.24 3 1.74 1.74 0 0 1-1.24-.52L12 65a6.85 6.85 0 0 1-1.81-6.31v-.24a1.79 1.79 0 0 1 0-.34V38a3.35 3.35 0 1 0-6.69 0v28a11.35 11.35 0 0 0 3.38 8l14.86 15a1.75 1.75 0 0 1 .54 1.22v4.58a1.75 1.75 0 0 1-3.5 0V91L4.41 76.55A14.86 14.86 0 0 1 0 66V38a6.85 6.85 0 1 1 13.71 0v16.11l1-.34a7 7 0 0 1 1.45-.32 6.75 6.75 0 0 1 5.57 2l18.56 18.44a13 13 0 0 1 3.78 9.22v11.67a1.75 1.75 0 0 1-1.75 1.75zM16.94 56.39a3.8 3.8 0 0 1 2.7 1.12L38.13 76a10 10 0 0 1 2.94 7.1v11.68a1.25 1.25 0 0 0 2.5 0V83.11a12.52 12.52 0 0 0-3.63-8.87L21.37 55.75a6.24 6.24 0 0 0-5.16-1.81 6.41 6.41 0 0 0-1.35.3l-1.65.56V38A6.35 6.35 0 1 0 .5 38v28a14.35 14.35 0 0 0 4.26 10.2l14.52 14.56v4a1.25 1.25 0 0 0 2.5 0V90.2a1.26 1.26 0 0 0-.39-.86L6.53 74.43A11.85 11.85 0 0 1 3 66V38a3.85 3.85 0 1 1 7.71 0v20.18a1.24 1.24 0 0 0 0 .26v.4a6.34 6.34 0 0 0 1.67 5.85l10.83 10.7a1.25 1.25 0 0 0 .89.37 1.25 1.25 0 0 0 .9-2.14l-10.76-10.7a3.82 3.82 0 0 1 2.7-6.53zm39.57.33a28.81 28.81 0 1 0-36.92-27.64v1a28.93 28.93 0 0 0 20.66 26.64l.39.12 4.2 7.6a4 4 0 0 0 3.52 2.09 4 4 0 0 0 3.52-2.09l4.2-7.61zm-2.73-1.94l-5.44 9.75-5.34-9.7a1.5 1.5 0 0 0-1-.73 25.8 25.8 0 1 1 31.79-29.36l.37-1v5.3A25.75 25.75 0 0 1 54.72 54a1.51 1.51 0 0 0-.94.78z" fill="#378fdb"/><path d="M48.39 66.78a4.27 4.27 0 0 1-3.77-2.22L40.48 57l-.3-.09a29.35 29.35 0 0 1-20.84-26.82v-1a29.22 29.22 0 0 1 20.88-27.9A29 29 0 0 1 73.89 43a28.86 28.86 0 0 1-17.31 14l-.3.09-4.15 7.52a4.25 4.25 0 0 1-3.74 2.17zM48.44.5a28.61 28.61 0 0 0-28.6 28.58v1a28.84 28.84 0 0 0 20.49 26.4l.49.14 4.25 7.69a3.78 3.78 0 0 0 6.63 0l4.25-7.7.49-.14A28.59 28.59 0 0 0 75.8 21 28.6 28.6 0 0 0 48.44.5zM48.33 65l-5.57-10a1.25 1.25 0 0 0-.8-.61 26.05 26.05 0 1 1 31.92-30.56l.53-1.37v6.62a26 26 0 0 1-19.62 25.21 1.26 1.26 0 0 0-.79.61zm0-61.5a25.55 25.55 0 0 0-6.29 50.32 1.75 1.75 0 0 1 1.12.85L48.34 64l5.22-9.35a1.76 1.76 0 0 1 1.11-.85 25.5 25.5 0 0 0 19.26-24.72v-4l-.22.56-.15-.89a25.57 25.57 0 0 0-25.2-21.21z" fill="#378fdb"/><circle cx="48.25" cy="29.13" r="2.25" fill="#378fdb"/><circle cx="36.38" cy="29.13" r="2.25" fill="#378fdb"/><circle cx="60.12" cy="29.13" r="2.25" fill="#378fdb"/></svg>