<svg xmlns="http://www.w3.org/2000/svg" width="96.96" height="90.29"><path d="M96.46 62.11a13.63 13.63 0 0 0-1.32-5.78l-5.69-11.82.27-.46a5.9 5.9 0 0 0 .79-2.5 6.09 6.09 0 0 0-5.31-6.3l-12.34-1.6-3.29-8.18a13 13 0 0 0-.74-1.47l-.78-1.36 1.56-.13a11 11 0 1 0-11.91-10c0 .32.07.65.13 1L58 14.6h-1.4l-.29-.12A92.32 92.32 0 0 0 41 7.94l-1.34-.43a5.81 5.81 0 0 0-5.9 1.4l-11.4 11.18a6 6 0 0 0-.44 8.18 5.87 5.87 0 0 0 8.27.55l.26-.24 8.79-8.67 5.33 2.87-7.09 10.88a14 14 0 0 0-1.8 5.25v.36L22 51.66 9.85 47.23a7 7 0 0 0-8.68 3.41A6.74 6.74 0 0 0 1 56.13 6.85 6.85 0 0 0 5 60l16.24 5.9a6.74 6.74 0 0 0 2.34.42A6.75 6.75 0 0 0 28 64.65l14.37-10.52 7.13 9.07-7.68 16.71a7 7 0 0 0 1.68 8.26 6.84 6.84 0 0 0 2.89 1.44 6.63 6.63 0 0 0 .79.13 6.82 6.82 0 0 0 6.93-3.93l9.48-20.7a6.82 6.82 0 0 0-.59-6.76l-.07-.11-6.83-12.83 4.9-8.63 2.11 4.33a5.89 5.89 0 0 0 4.1 3.62 2.9 2.9 0 0 1 .51.09h.14l8.81 1.2-5.46 9.38a13.54 13.54 0 0 0 5 18.49A13.61 13.61 0 0 0 82 75.71h1a13.55 13.55 0 0 0 13.46-13.6zm-70.4.28a3.7 3.7 0 0 1-2.46.93 3.79 3.79 0 0 1-.88-.1l-.39-.12L6 57.15A3.84 3.84 0 0 1 3.8 55a3.75 3.75 0 0 1 .1-3.11 4 4 0 0 1 5-1.84l13 4.74a1.49 1.49 0 0 0 1.52-.3L35.7 43.23l.46 1.51a13.94 13.94 0 0 0 2.39 4.55l2 2.48zM68.5 41.81l-.24.07-.26-.06A2.85 2.85 0 0 1 65.94 40l-.06-.13-3.4-7a1.5 1.5 0 0 0-2.65-.08l-6.75 11.8a1.48 1.48 0 0 0 0 1.43l7.3 13.79a1.67 1.67 0 0 0 .14.22 3.74 3.74 0 0 1 .38 3.83l-9.49 20.7a3.85 3.85 0 0 1-3.49 2.23h-.38l-.37-.06a3.89 3.89 0 0 1-1.76-.88 4 4 0 0 1-.8-4.72l8-17.52a1.49 1.49 0 0 0-.19-1.56L40.93 47.43a10.82 10.82 0 0 1-.87-12.25L48 23a1.5 1.5 0 0 0-.43-2.08l-.12-.07-7.78-4.07a1.49 1.49 0 0 0-1.75.26l-9.55 9.43a2.88 2.88 0 0 1-4.2-.17 3 3 0 0 1 .33-4.08L35.8 11a2.83 2.83 0 0 1 2.87-.68l1.34.43a89.32 89.32 0 0 1 14.84 6.35 4.48 4.48 0 0 0 5.42-.93 2.77 2.77 0 0 0 .64-2.62A8 8 0 0 1 61 8.86a8.08 8.08 0 0 1 8.58-5.4 8 8 0 0 1 7 8.88 7.81 7.81 0 0 1-.16.89 8 8 0 0 1-8.57 6.21l-.85-.18a2.51 2.51 0 0 0-2.25 4.17 9.66 9.66 0 0 1 2 3.1l3.66 9a1.5 1.5 0 0 0 1.2.92l13.19 1.71a3 3 0 0 1 2.71 3 2.87 2.87 0 0 1-1.07 2.09 2.78 2.78 0 0 1-2.19.61zm14.41 31a10.53 10.53 0 0 1-9.07-15.88L80 46.42l3.9.5a5.69 5.69 0 0 0 2.43-.17l.82-.24 5.25 11.16a10.52 10.52 0 0 1-9.5 15.11z" fill="#378fdb"/><path d="M47.92 90.29a7.32 7.32 0 0 1-.79 0 7.12 7.12 0 0 1-.85-.14 7.32 7.32 0 0 1-3.1-1.55 7.54 7.54 0 0 1-1.81-8.86l7.54-16.43-6.64-8.45-13.93 10.2a7.39 7.39 0 0 1-7.27 1.31L4.82 60.43a7.36 7.36 0 0 1-4.27-4.1 7.23 7.23 0 0 1 .16-5.9A7.5 7.5 0 0 1 10 46.76l11.9 4.33L35.16 39v-.18A14.44 14.44 0 0 1 37 33.41L43.86 23l-4.52-2.43-8.52 8.41-.29.27a6.37 6.37 0 0 1-9-.6 6.53 6.53 0 0 1 .47-8.92L33.37 8.55A6.31 6.31 0 0 1 39.78 7l1.34.43A92.89 92.89 0 0 1 56.55 14l.15.06h.75l-.1-.59c-.06-.34-.1-.68-.13-1A11.5 11.5 0 1 1 69.66 23l-.78.07.39.68a13.61 13.61 0 0 1 .73 1.53l3.18 7.92 12 1.57A6.58 6.58 0 0 1 91 41.58a6.41 6.41 0 0 1-.85 2.72l-.13.23 5.57 11.58a14.12 14.12 0 0 1 1.37 6 14.05 14.05 0 0 1-14 14.1H82a14.14 14.14 0 0 1-6.05-1.85 14 14 0 0 1-5.15-19.17l5.09-8.74-8.07-1.1h-.16a2.61 2.61 0 0 0-.46-.09 6.37 6.37 0 0 1-4.53-3.94L61 37.85l-4.33 7.57 6.72 12.68a7.31 7.31 0 0 1 .61 7.23L54.57 86a7.31 7.31 0 0 1-6.65 4.29zm-5.46-36.85l7.61 9.69-7.8 17a6.54 6.54 0 0 0 1.56 7.68 6.31 6.31 0 0 0 2.67 1.33 6.16 6.16 0 0 0 .73.12 6.32 6.32 0 0 0 6.42-3.64l9.48-20.7a6.32 6.32 0 0 0-.58-6.27l-.08-.14-6.94-13.11 5.54-9.69 2.52 5.18a5.4 5.4 0 0 0 3.77 3.36 2.69 2.69 0 0 1 .52.09l9.63 1.32-5.84 10a13 13 0 0 0 4.78 17.84A13.11 13.11 0 0 0 82 75.21h1a13.05 13.05 0 0 0 13-13.1 13.13 13.13 0 0 0-1.27-5.57l-5.8-12.06.4-.69a5.41 5.41 0 0 0 .67-2.27 5.58 5.58 0 0 0-4.87-5.76l-12.62-1.65-3.4-8.45a12.51 12.51 0 0 0-.71-1.45l-1.17-2 2.34-.2a10.5 10.5 0 1 0-11.37-9.56c0 .31.07.62.12.93l.31 1.76H56.4l-.29-.12a92.19 92.19 0 0 0-15.3-6.61L39.47 8a5.32 5.32 0 0 0-5.4 1.28L22.71 20.45a5.52 5.52 0 0 0-.4 7.51 5.37 5.37 0 0 0 7.56.5l.24-.22 9-8.93 6.13 3.3-7.34 11.32a13.42 13.42 0 0 0-1.72 5l-.07.54-14 12.72L9.68 47.7a6.5 6.5 0 0 0-8.07 3.17 6.23 6.23 0 0 0-.13 5.08 6.35 6.35 0 0 0 3.69 3.54l16.25 5.94a6.35 6.35 0 0 0 6.3-1.15zm5.47 33.86h-.43l-.4-.06a4.43 4.43 0 0 1-2-1 4.52 4.52 0 0 1-.91-5.32l8-17.5a1 1 0 0 0-.12-1L40.53 47.74a11.31 11.31 0 0 1-.91-12.81l8-12.21a1 1 0 0 0-.29-1.38l-7.86-4.12a1 1 0 0 0-1.17.18l-9.55 9.43a3.38 3.38 0 0 1-4.93-.2 3.52 3.52 0 0 1 .37-4.77l11.26-11.2a3.33 3.33 0 0 1 3.38-.8l1.33.43a89.84 89.84 0 0 1 14.92 6.37 4 4 0 0 0 4.81-.83 2.27 2.27 0 0 0 .52-2.15 8.48 8.48 0 0 1 .14-5A8.59 8.59 0 0 1 69.67 3a8.54 8.54 0 0 1-1.81 17l-1-.18a2 2 0 0 0-2.28 1.66 2 2 0 0 0 .49 1.68 10.07 10.07 0 0 1 2.12 3.25l3.66 9a1 1 0 0 0 .8.62l13.19 1.71A3.48 3.48 0 0 1 88 41.16a3.38 3.38 0 0 1-1.26 2.48 3.27 3.27 0 0 1-2.58.71l-15.64-2-.26.08-.39-.09a3.34 3.34 0 0 1-2.42-2.11L62 33.1a1 1 0 0 0-1.73-.1l-6.76 11.84a1 1 0 0 0 0 .94l7.3 13.8a1.08 1.08 0 0 0 .1.16 4.25 4.25 0 0 1 .43 4.35l-9.48 20.69a4.36 4.36 0 0 1-3.93 2.52zM39 16.1a2 2 0 0 1 .93.23l7.78 4.07.17.1a2 2 0 0 1 .58 2.77l-8 12.19a10.31 10.31 0 0 0 .84 11.67l11.5 14.62a2 2 0 0 1 .2 2.07l-8 17.52a3.52 3.52 0 0 0 .69 4.15 3.4 3.4 0 0 0 1.52.75l.34.05h.31a3.36 3.36 0 0 0 3-1.94l9.49-20.7a3.25 3.25 0 0 0-.33-3.33 2.13 2.13 0 0 1-.18-.29l-7.3-13.8a2 2 0 0 1 0-1.91l6.75-11.8a2 2 0 0 1 3.53.11l3.4 7 .08.18a2.35 2.35 0 0 0 1.7 1.48h.13l.21-.07 15.87 2.06a2.27 2.27 0 0 0 1.81-.49 2.38 2.38 0 0 0 .98-1.66 2.51 2.51 0 0 0-2.25-2.46L71.55 37A2 2 0 0 1 70 35.72l-3.66-9a9.13 9.13 0 0 0-1.92-2.94 3 3 0 0 1 2.69-5l.93.18a7.52 7.52 0 0 0 8-5.83 7.09 7.09 0 0 0 .15-.84 7.5 7.5 0 0 0-6.58-8.32 7.58 7.58 0 0 0-8 5.07 7.47 7.47 0 0 0-.12 4.38 3.28 3.28 0 0 1-.75 3.1 5 5 0 0 1-6 1 88.81 88.81 0 0 0-14.76-6.3l-1.34-.43a2.34 2.34 0 0 0-2.37.56l-11.3 11.2a2.49 2.49 0 0 0-.4 3.45 2.34 2.34 0 0 0 1.25.74 2.39 2.39 0 0 0 2.18-.63l9.55-9.43A2 2 0 0 1 39 16.1zm43.91 57.17a11 11 0 0 1-9.5-16.64l6.3-10.75 4.23.55a5.22 5.22 0 0 0 2.22-.15l1.23-.36 5.47 11.54a11 11 0 0 1-10 15.82zM80.24 47l-6 10.18a10 10 0 1 0 17.76.71l-5.15-10.77-.41.12a6.25 6.25 0 0 1-2.64.18zM23.6 63.81a4.3 4.3 0 0 1-1-.12l-.41-.12-16.34-6a4.34 4.34 0 0 1-2.52-2.37 4.25 4.25 0 0 1 .11-3.52A4.54 4.54 0 0 1 9 49.59l13 4.74a1 1 0 0 0 1-.2l12.92-11.8.7 2.26A13.46 13.46 0 0 0 38.95 49l2.27 2.89-14.84 10.89a4.18 4.18 0 0 1-2.78 1.03zM7.44 50.29a3.56 3.56 0 0 0-3.11 1.84 3.24 3.24 0 0 0-.08 2.68 3.34 3.34 0 0 0 1.93 1.86l16.67 6.05a3.3 3.3 0 0 0 .74.08 3.22 3.22 0 0 0 2.13-.8l14-10.3-1.63-2.08a14.44 14.44 0 0 1-2.47-4.72l-.23-.75L23.7 54.87a2 2 0 0 1-2 .4l-13-4.74a3.45 3.45 0 0 0-1.26-.24zM2 25.48h8.92a1.5 1.5 0 0 0 0-3H2a1.5 1.5 0 1 0 0 3z" fill="#378fdb"/><path d="M10.92 26H2a2 2 0 1 1 0-4h8.92a2 2 0 1 1 0 4zM2 23a1 1 0 1 0 0 2h8.92a1 1 0 1 0 0-2zm7.58-10.77h8.92a1.5 1.5 0 1 0 0-3H9.58a1.5 1.5 0 1 0 0 3z" fill="#378fdb"/><path d="M18.5 12.73H9.58a2 2 0 1 1 0-4h8.92a2 2 0 1 1 0 4zm-8.92-3a1 1 0 1 0 0 2h8.92a1 1 0 1 0 0-2zm-1.5 27.5a1.5 1.5 0 0 0 1.5 1.5h8.92a1.5 1.5 0 0 0 0-3H9.58a1.5 1.5 0 0 0-1.5 1.5z" fill="#378fdb"/><path d="M18.5 39.23H9.58a2 2 0 0 1 0-4h8.92a2 2 0 0 1 0 4zm-8.92-3a1 1 0 1 0 0 2h8.92a1 1 0 0 0 0-2z" fill="#378fdb"/></svg>