<svg xmlns="http://www.w3.org/2000/svg" width="64.09" height="84.46"><path d="M63.84 52.14a6.14 6.14 0 0 0-5.08-6.05 6.11 6.11 0 0 0-4.57-8.73 6.14 6.14 0 0 0-4.19-8.3L59.09 20a6.15 6.15 0 1 0-8.7-8.7L30.5 31.17c-2.44 2.45-6.7 4.12-8.93 3.62a27.4 27.4 0 0 0-5.7-8.46 6.9 6.9 0 0 0-6.14-2 6.81 6.81 0 0 0-5 3.9 4.47 4.47 0 0 0 .51 4.54c1.83 2.42 6 8.81 5.58 15.85v1.94l-.1.06L.79 60.64a1.49 1.49 0 0 0-.39.68c-.07.27-1.64 6.68 7.2 15.53 6.42 6.42 11.57 7.35 14 7.35a6.38 6.38 0 0 0 1.52-.15 1.5 1.5 0 0 0 .68-.39l10.15-10.14h1a24 24 0 0 0 17.1-7.08l8.71-8.71L62 56.48a6.11 6.11 0 0 0 1.84-4.34zm-3 0a3.13 3.13 0 0 1-.92 2.23l-5.24 5.23a3.23 3.23 0 0 1-4.46 0 3.15 3.15 0 0 1 0-4.45l5.24-5.24a3.15 3.15 0 0 1 5.38 2.23zm-5.37-6.48l-5.24 5.24a3.23 3.23 0 0 1-4.46 0 3.15 3.15 0 0 1 0-4.45L51 41.2a3.23 3.23 0 0 1 4.46 0 3.16 3.16 0 0 1 .02 4.46zm-4.74-12.87a3.15 3.15 0 0 1 0 4.46l-7.08 7.08a3.23 3.23 0 0 1-4.46 0 3.16 3.16 0 0 1 0-4.46l7.08-7.08a3.23 3.23 0 0 1 4.46 0zM22 81.19c-1.27.1-5.93-.08-12.32-6.46S3.16 63.66 3.26 62.42l8-8a24.21 24.21 0 0 0 18.86 18.7zm13-10.65a21 21 0 0 1-11.25-3.25 7.75 7.75 0 0 0 2.15-.56c2.76-1.17 4.35-3.78 4.35-7.15a1.5 1.5 0 0 0-1.5-1.5 1.5 1.5 0 0 0-1.5 1.5A4.4 4.4 0 0 1 24.69 64a6.05 6.05 0 0 1-6.27-1.4 21 21 0 0 1-4.62-13.81c.49-8-4.15-15.12-6.18-17.8a1.47 1.47 0 0 1-.17-1.49 3.76 3.76 0 0 1 2.81-2.18 3.86 3.86 0 0 1 3.47 1.11 27.11 27.11 0 0 1 7 13.57 1.5 1.5 0 1 0 2.92-.69c-.26-1.11-.57-2.26-.94-3.45a16.26 16.26 0 0 0 9.91-4.56l19.89-19.9a3.22 3.22 0 0 1 4.46 0 3.15 3.15 0 0 1 0 4.45L44.16 30.67l-7.08 7.08a6.16 6.16 0 0 0 0 8.7 6.11 6.11 0 0 0 4.35 1.8h.47A6.11 6.11 0 0 0 43.65 53a6.11 6.11 0 0 0 3.25 1.7 6.13 6.13 0 0 0 1.19 7 6.1 6.1 0 0 0 2.85 1.61l-1 1A21 21 0 0 1 35 70.54z" fill="#378fdb"/><path d="M21.61 84.46c-2.52 0-7.72-1-14.18-7.43C-1.52 68.08.08 61.53.16 61.26a1.74 1.74 0 0 1 .45-.79l10-10V48.58C11 41.64 6.83 35.34 5 33a4.72 4.72 0 0 1-.54-4.79 7.06 7.06 0 0 1 5.2-4 7.15 7.15 0 0 1 6.36 2 27.57 27.57 0 0 1 5.7 8.42C24 35 28 33.31 30.32 31l19.89-19.9a6.4 6.4 0 1 1 9.05 9.05l-8.78 8.78a6.41 6.41 0 0 1 4.05 8.23 6.33 6.33 0 0 1 3.24 1.74 6.4 6.4 0 0 1 1.35 7 6.4 6.4 0 0 1 3.1 10.76l-10 10A24.27 24.27 0 0 1 35 73.79h-.92L24 83.84a1.75 1.75 0 0 1-.79.45 6.6 6.6 0 0 1-1.6.17zm-10.67-60a6.63 6.63 0 0 0-1.17.1 6.57 6.57 0 0 0-4.83 3.76 4.22 4.22 0 0 0 .48 4.29c1.84 2.44 6.09 8.89 5.63 16v2.07l-.18.14-9.87 10a1.24 1.24 0 0 0-.32.56c-.11.27-1.68 6.55 7.1 15.3C14.11 83 19.16 84 21.61 84a6.17 6.17 0 0 0 1.46-.14 1.26 1.26 0 0 0 .56-.32l10.12-10.17.06-.1H35a23.77 23.77 0 0 0 16.92-7l10-10a5.9 5.9 0 0 0-3.14-10l-.33-.06.14-.3a5.86 5.86 0 0 0-4.38-8.37h-.31l.12-.29a5.89 5.89 0 0 0-4-8l-.43-.11 9.39-9.39a5.9 5.9 0 1 0-8.34-8.34L30.68 31.35c-2.45 2.45-6.82 4.21-9.17 3.68h-.12l-.05-.12a27.08 27.08 0 0 0-5.65-8.39 6.66 6.66 0 0 0-4.75-2.01zm10.68 57c-1.74 0-6.2-.68-12.07-6.55C3.09 68.45 2.91 63.7 3 62.4v-.09l8.44-8.44.09.45a24 24 0 0 0 18.68 18.5l.46.09-8.52 8.52h-.09zM3.5 62.53c-.08 1.37.24 5.87 6.4 12s10.67 6.47 12 6.39l7.73-7.73a24.47 24.47 0 0 1-18.5-18.35zM35 70.79a21.32 21.32 0 0 1-11.38-3.29l-.6-.38.71-.08a7.52 7.52 0 0 0 2.08-.54c2.66-1.13 4.19-3.66 4.2-6.92a1.25 1.25 0 1 0-2.5 0c0 2.25-1 3.89-2.67 4.62a6.33 6.33 0 0 1-6.54-1.45 21.1 21.1 0 0 1-4.7-14c.49-8-4.12-15-6.13-17.64a1.72 1.72 0 0 1-.2-1.75 4 4 0 0 1 3-2.33 4.11 4.11 0 0 1 3.7 1.18A27.35 27.35 0 0 1 21 41.94a1.26 1.26 0 0 0 1.5.93 1.25 1.25 0 0 0 .93-1.5c-.3-1.26-.6-2.39-.94-3.43l-.1-.31h.33a16.11 16.11 0 0 0 9.74-4.49l19.88-19.91a3.41 3.41 0 0 1 2.4-1 3.38 3.38 0 0 1 2.4 5.77L37.25 37.93a5.9 5.9 0 0 0 4.63 10h.29v.29a5.84 5.84 0 0 0 4.8 6.23l.32.06-.14.3A5.89 5.89 0 0 0 51 63.09l.43.11-1.32 1.32A21.29 21.29 0 0 1 35 70.79zm-10.57-3.36a20.89 20.89 0 0 0 25.33-3.27l.71-.7a6.39 6.39 0 0 1-3.92-8.55 6.34 6.34 0 0 1-4.92-6.41 6.31 6.31 0 0 1-4.73-1.87 6.41 6.41 0 0 1 0-9.05l19.89-19.9a2.87 2.87 0 0 0-2-4.92 2.91 2.91 0 0 0-2.05.82L32.8 33.47a16.58 16.58 0 0 1-9.8 4.62c.3 1 .58 2 .85 3.16a1.75 1.75 0 1 1-3.41.8A26.88 26.88 0 0 0 13.5 28.6a3.61 3.61 0 0 0-3.25-1 3.52 3.52 0 0 0-2.62 2 1.22 1.22 0 0 0 .14 1.24c2 2.7 6.73 9.86 6.23 18a20.58 20.58 0 0 0 4.57 13.61 5.82 5.82 0 0 0 6 1.33 4.17 4.17 0 0 0 2.43-4.2 1.75 1.75 0 1 1 3.5 0c0 3.47-1.64 6.16-4.5 7.38a7.8 7.8 0 0 1-1.57.47zm28-6.69A3.38 3.38 0 0 1 50 55l5.24-5.24a3.4 3.4 0 1 1 4.81 4.81l-5.24 5.24a3.39 3.39 0 0 1-2.36.93zm5.24-11.51a2.88 2.88 0 0 0-2.05.85l-5.22 5.25a2.87 2.87 0 0 0 2 4.92 2.91 2.91 0 0 0 2-.82l5.24-5.24a2.9 2.9 0 0 0-2.05-5zM48 52a3.37 3.37 0 0 1-2.4-5.77L50.84 41a3.41 3.41 0 0 1 2.4-1 3.37 3.37 0 0 1 2.4 5.77l-5.24 5.31A3.4 3.4 0 0 1 48 52zm5.25-11.48a2.91 2.91 0 0 0-2 .82L46 46.59a2.9 2.9 0 0 0 0 4.1 3 3 0 0 0 4.1 0l5.25-5.25a2.87 2.87 0 0 0-2.05-4.92zm-11.82 4.9A3.36 3.36 0 0 1 39 39.69l7.08-7.08a3.41 3.41 0 0 1 2.4-1 3.41 3.41 0 0 1 2.4 1 3.4 3.4 0 0 1 0 4.81l-7.05 7.08a3.4 3.4 0 0 1-2.41.96zm7.07-13.27a2.9 2.9 0 0 0-2 .82L39.37 40a2.91 2.91 0 0 0 0 4.1 3 3 0 0 0 4.1 0l7.08-7.08a2.87 2.87 0 0 0-2.05-4.92z" fill="#378fdb"/><path d="M27.22 17.27a1.5 1.5 0 0 0 1.49 1.31h.19a1.5 1.5 0 0 0 1.3-1.67L28.84 6.08a1.5 1.5 0 0 0-3 .37z" fill="#378fdb"/><path d="M28.71 18.84A1.75 1.75 0 0 1 27 17.31L25.62 6.49a1.75 1.75 0 0 1 1.52-2 1.76 1.76 0 0 1 2 1.52l1.35 10.82a1.75 1.75 0 0 1-1.52 2zM27.35 5h-.15a1.25 1.25 0 0 0-1.08 1.4l1.35 10.82a1.25 1.25 0 0 0 2.23.61 1.24 1.24 0 0 0 .25-.92L28.59 6.12A1.25 1.25 0 0 0 27.35 5zm8.51 13.45a1.5 1.5 0 0 0 2-.72L45 2.39a1.5 1.5 0 0 0-2.72-1.27l-7.14 15.33a1.5 1.5 0 0 0 .72 2z" fill="#378fdb"/><path d="M36.5 18.84a1.74 1.74 0 0 1-.74-.17 1.75 1.75 0 0 1-.84-2.33L42.1 1a1.75 1.75 0 1 1 3.17 1.49l-7.19 15.34a1.76 1.76 0 0 1-1.58 1.01zm-.5-.62a1.28 1.28 0 0 0 1.66-.6l7.16-15.34a1.25 1.25 0 1 0-2.26-1.06l-7.2 15.34a1.25 1.25 0 0 0 .6 1.66zm-14.77 6.65a1.5 1.5 0 0 0 2.72-1.27L13.41 1.11a1.5 1.5 0 1 0-2.71 1.28z" fill="#378fdb"/><path d="M22.59 26A1.76 1.76 0 0 1 21 25L10.47 2.49A1.75 1.75 0 0 1 13.64 1l10.54 22.49A1.75 1.75 0 0 1 22.59 26zM12.05.5a1.25 1.25 0 0 0-1.13 1.78l10.54 22.48a1.28 1.28 0 0 0 1.66.6 1.25 1.25 0 0 0 .6-1.66L13.19 1.22A1.25 1.25 0 0 0 12.05.5z" fill="#378fdb"/></svg>