<svg xmlns="http://www.w3.org/2000/svg" width="64.09" height="84.46" viewBox="0 0 64.09 84.46"><title>user-friendly</title><path d="M63.84,52.14a6.14,6.14,0,0,0-5.08-6.05,6.11,6.11,0,0,0-4.57-8.73A6.14,6.14,0,0,0,50,29.06L59.09,20a6.15,6.15,0,1,0-8.7-8.7L30.5,31.17c-2.44,2.45-6.7,4.12-8.93,3.62a27.4,27.4,0,0,0-5.7-8.46,6.9,6.9,0,0,0-6.14-2,6.81,6.81,0,0,0-5,3.9,4.47,4.47,0,0,0,.51,4.54c1.83,2.42,6,8.81,5.58,15.85,0,0,0,0,0,0v0c0,.65,0,1.3,0,1.94l-.1.06L.79,60.64a1.49,1.49,0,0,0-.39.68C.33,61.59-1.24,68,7.6,76.85c6.42,6.42,11.57,7.35,14,7.35a6.38,6.38,0,0,0,1.52-.15,1.5,1.5,0,0,0,.68-.39L33.95,73.52h0l1,0a24,24,0,0,0,17.1-7.08l8.71-8.71h0L62,56.48A6.11,6.11,0,0,0,63.84,52.14Zm-3,0a3.13,3.13,0,0,1-.92,2.23L54.68,59.6a3.23,3.23,0,0,1-4.46,0h0a3.15,3.15,0,0,1,0-4.45l5.24-5.24a3.15,3.15,0,0,1,5.38,2.23Zm-5.37-6.48L50.23,50.9a3.23,3.23,0,0,1-4.46,0,3.15,3.15,0,0,1,0-4.45L51,41.2a3.23,3.23,0,0,1,4.46,0A3.16,3.16,0,0,1,55.48,45.66ZM50.73,32.79a3.15,3.15,0,0,1,0,4.46l-7.08,7.08a3.23,3.23,0,0,1-4.46,0,3.16,3.16,0,0,1,0-4.46l7.08-7.08A3.23,3.23,0,0,1,50.73,32.79ZM22,81.19c-1.27.1-5.93-.08-12.32-6.46S3.16,63.66,3.26,62.42l8-8a24.21,24.21,0,0,0,18.86,18.7ZM35,70.54a21,21,0,0,1-11.25-3.25,7.75,7.75,0,0,0,2.15-.56c2.76-1.17,4.35-3.78,4.35-7.15a1.5,1.5,0,0,0-1.5-1.5h0a1.5,1.5,0,0,0-1.5,1.5A4.4,4.4,0,0,1,24.69,64a6.05,6.05,0,0,1-6.27-1.4A21,21,0,0,1,13.8,48.79c.49-8-4.15-15.12-6.18-17.8a1.47,1.47,0,0,1-.17-1.49,3.76,3.76,0,0,1,2.81-2.18,3.86,3.86,0,0,1,3.47,1.11,27.11,27.11,0,0,1,7,13.57,1.5,1.5,0,1,0,2.92-.69c-.26-1.11-.57-2.26-.94-3.45a16.26,16.26,0,0,0,9.91-4.56L52.51,13.4a3.22,3.22,0,0,1,4.46,0,3.15,3.15,0,0,1,0,4.45L44.16,30.67h0l-7.08,7.08a6.16,6.16,0,0,0,0,8.7h0a6.11,6.11,0,0,0,4.35,1.8l.47,0A6.11,6.11,0,0,0,43.65,53h0a6.11,6.11,0,0,0,3.25,1.7,6.13,6.13,0,0,0,1.19,7h0a6.1,6.1,0,0,0,2.85,1.61l-1,1A21,21,0,0,1,35,70.54Z" style="fill:#378fdb"/><path d="M21.61,84.46c-2.52,0-7.72-1-14.18-7.43C-1.52,68.08.08,61.53.16,61.26a1.74,1.74,0,0,1,.45-.79l10-10c0-.67,0-1.27,0-1.82v-.07C11,41.64,6.83,35.34,5,33a4.72,4.72,0,0,1-.54-4.79,7.06,7.06,0,0,1,5.2-4,7.15,7.15,0,0,1,6.36,2,27.57,27.57,0,0,1,5.7,8.42C24,35,28,33.31,30.32,31L50.21,11.1a6.4,6.4,0,1,1,9.05,9.05l-8.78,8.78a6.41,6.41,0,0,1,4.05,8.23,6.33,6.33,0,0,1,3.24,1.74,6.4,6.4,0,0,1,1.35,7,6.4,6.4,0,0,1,3.1,10.76l-10,10A24.27,24.27,0,0,1,35,73.79l-.92,0L24,83.84a1.75,1.75,0,0,1-.79.45A6.6,6.6,0,0,1,21.61,84.46Zm-10.67-60a6.63,6.63,0,0,0-1.17.1,6.57,6.57,0,0,0-4.83,3.76,4.22,4.22,0,0,0,.48,4.29c1.84,2.44,6.09,8.89,5.63,16,0,.61,0,1.23,0,1.95v.12l-.18.14L1,60.82a1.24,1.24,0,0,0-.32.56C.57,61.65-1,67.93,7.78,76.68,14.11,83,19.16,84,21.61,84a6.17,6.17,0,0,0,1.46-.14,1.26,1.26,0,0,0,.56-.32L33.75,73.37l.06-.1H34l1,0a23.77,23.77,0,0,0,16.92-7l10-10a5.9,5.9,0,0,0-3.14-10l-.33-.06.14-.3a5.86,5.86,0,0,0-4.38-8.37l-.31,0,.12-.29a5.89,5.89,0,0,0-4-8l-.43-.11,9.39-9.39a5.9,5.9,0,1,0-8.34-8.34L30.68,31.35c-2.45,2.45-6.82,4.21-9.17,3.68l-.12,0-.05-.12a27.08,27.08,0,0,0-5.65-8.39A6.66,6.66,0,0,0,10.94,24.51Zm10.68,57c-1.74,0-6.2-.68-12.07-6.55C3.09,68.45,2.91,63.7,3,62.4v-.09l8.44-8.44.09.45A24,24,0,0,0,30.21,72.82l.46.09-8.52,8.52h-.09ZM3.5,62.53c-.08,1.37.24,5.87,6.4,12s10.67,6.47,12,6.39l7.73-7.73a24.47,24.47,0,0,1-18.5-18.35ZM35,70.79a21.32,21.32,0,0,1-11.38-3.29l-.6-.38.71-.08a7.52,7.52,0,0,0,2.08-.54c2.66-1.13,4.19-3.66,4.2-6.92a1.25,1.25,0,1,0-2.5,0c0,2.25-1,3.89-2.67,4.62a6.33,6.33,0,0,1-6.54-1.45,21.1,21.1,0,0,1-4.7-14c.49-8-4.12-15-6.13-17.64a1.72,1.72,0,0,1-.2-1.75,4,4,0,0,1,3-2.33,4.11,4.11,0,0,1,3.7,1.18A27.35,27.35,0,0,1,21,41.94a1.26,1.26,0,0,0,1.5.93,1.25,1.25,0,0,0,.93-1.5c-.3-1.26-.6-2.39-.94-3.43l-.1-.31h.33a16.11,16.11,0,0,0,9.74-4.49L52.34,13.23a3.41,3.41,0,0,1,2.4-1h0A3.38,3.38,0,0,1,57.14,18L37.25,37.93a5.9,5.9,0,0,0,4.63,10l.29,0,0,.29a5.84,5.84,0,0,0,4.8,6.23l.32.06-.14.3A5.89,5.89,0,0,0,51,63.09l.43.11-1.32,1.32A21.29,21.29,0,0,1,35,70.79ZM24.43,67.43a20.89,20.89,0,0,0,25.33-3.27l.71-.7a6.39,6.39,0,0,1-3.92-8.55,6.34,6.34,0,0,1-4.92-6.41,6.31,6.31,0,0,1-4.73-1.87,6.41,6.41,0,0,1,0-9.05L56.79,17.68a2.87,2.87,0,0,0-2-4.92h0a2.91,2.91,0,0,0-2.05.82L32.8,33.47A16.58,16.58,0,0,1,23,38.09c.3,1,.58,2,.85,3.16a1.75,1.75,0,1,1-3.41.8,26.88,26.88,0,0,0-6.94-13.45,3.61,3.61,0,0,0-3.25-1,3.52,3.52,0,0,0-2.62,2,1.22,1.22,0,0,0,.14,1.24c2,2.7,6.73,9.86,6.23,18a20.58,20.58,0,0,0,4.57,13.61,5.82,5.82,0,0,0,6,1.33A4.17,4.17,0,0,0,27,59.58a1.75,1.75,0,1,1,3.5,0c0,3.47-1.64,6.16-4.5,7.38A7.8,7.8,0,0,1,24.43,67.43Zm28-6.69A3.38,3.38,0,0,1,50,55l5.24-5.24a3.4,3.4,0,1,1,4.81,4.81l-5.24,5.24A3.39,3.39,0,0,1,52.45,60.74Zm5.24-11.51a2.88,2.88,0,0,0-2.05.85L50.4,55.33a2.87,2.87,0,0,0,2,4.92h0a2.91,2.91,0,0,0,2-.82l5.24-5.24a2.9,2.9,0,0,0-2.05-5ZM48,52a3.37,3.37,0,0,1-2.4-5.77L50.84,41a3.41,3.41,0,0,1,2.4-1h0a3.37,3.37,0,0,1,2.4,5.77L50.4,51.08A3.4,3.4,0,0,1,48,52Zm5.25-11.48a2.91,2.91,0,0,0-2,.82l-5.25,5.25a2.9,2.9,0,0,0,0,4.1,3,3,0,0,0,4.1,0l5.25-5.25a2.87,2.87,0,0,0-2.05-4.92Zm-11.82,4.9A3.36,3.36,0,0,1,39,39.69l7.08-7.08a3.41,3.41,0,0,1,2.4-1h0a3.41,3.41,0,0,1,2.4,1h0a3.4,3.4,0,0,1,0,4.81L43.83,44.5A3.4,3.4,0,0,1,41.42,45.46ZM48.5,32.15a2.9,2.9,0,0,0-2,.82L39.37,40a2.91,2.91,0,0,0,0,4.1,3,3,0,0,0,4.1,0l7.08-7.08a2.87,2.87,0,0,0-2.05-4.92Z" style="fill:#378fdb"/><path d="M27.22,17.27a1.5,1.5,0,0,0,1.49,1.31h.19a1.5,1.5,0,0,0,1.3-1.67L28.84,6.08a1.5,1.5,0,0,0-3,.37Z" style="fill:#378fdb"/><path d="M28.71,18.84A1.75,1.75,0,0,1,27,17.31L25.62,6.49a1.75,1.75,0,0,1,1.52-2,1.76,1.76,0,0,1,2,1.52l1.35,10.82a1.75,1.75,0,0,1-1.52,2ZM27.35,5H27.2a1.25,1.25,0,0,0-1.08,1.4l1.35,10.82a1.25,1.25,0,0,0,2.23.61,1.24,1.24,0,0,0,.25-.92L28.59,6.12A1.25,1.25,0,0,0,27.35,5Z" style="fill:#378fdb"/><path d="M35.86,18.45a1.5,1.5,0,0,0,2-.72L45,2.39a1.5,1.5,0,0,0-2.72-1.27L35.14,16.45A1.5,1.5,0,0,0,35.86,18.45Z" style="fill:#378fdb"/><path d="M36.5,18.84a1.74,1.74,0,0,1-.74-.17h0a1.75,1.75,0,0,1-.84-2.33L42.1,1a1.75,1.75,0,1,1,3.17,1.49L38.08,17.83A1.76,1.76,0,0,1,36.5,18.84ZM36,18.22a1.28,1.28,0,0,0,1.66-.6L44.82,2.28a1.25,1.25,0,1,0-2.26-1.06L35.36,16.56a1.25,1.25,0,0,0,.6,1.66Z" style="fill:#378fdb"/><path d="M21.23,24.87a1.5,1.5,0,0,0,2.72-1.27L13.41,1.11A1.5,1.5,0,1,0,10.7,2.39Z" style="fill:#378fdb"/><path d="M22.59,26A1.76,1.76,0,0,1,21,25L10.47,2.49A1.75,1.75,0,0,1,13.64,1L24.18,23.49A1.75,1.75,0,0,1,22.59,26ZM12.05.5a1.25,1.25,0,0,0-1.13,1.78L21.46,24.76a1.28,1.28,0,0,0,1.66.6,1.25,1.25,0,0,0,.6-1.66L13.19,1.22A1.25,1.25,0,0,0,12.05.5Z" style="fill:#378fdb"/></svg>