<svg xmlns="http://www.w3.org/2000/svg" width="160.09" height="88.09"><path d="M78.54 75.41a2 2 0 0 1-1.93-2.52l3.79-14.13a2 2 0 1 1 3.86 1l-3.79 14.17a2 2 0 0 1-1.93 1.48z" fill="#378fdb"/><path d="M75.14 87.59a1.5 1.5 0 0 1-1.45-1.89l1.25-4.64a1.5 1.5 0 0 1 2.9.78l-1.25 4.64a1.5 1.5 0 0 1-1.45 1.11zm18.63 0a1.48 1.48 0 0 1-.39-.05 1.5 1.5 0 0 1-1.06-1.84l1.24-4.64a1.5 1.5 0 0 1 2.9.78l-1.24 4.64a1.5 1.5 0 0 1-1.45 1.11z" fill="#3fa9f5"/><path d="M84.45 88.09a2 2 0 0 1-1.93-2.52l7.18-26.81a2 2 0 1 1 3.86 1l-7.18 26.85a2 2 0 0 1-1.93 1.48zm12.72-12.68a2 2 0 0 1-1.93-2.52L99 58.76a2 2 0 0 1 3.86 1L99.1 73.93a2 2 0 0 1-1.93 1.48zm5.92 12.68a2 2 0 0 1-1.93-2.52l7.18-26.81a2 2 0 1 1 3.86 1L105 86.61a2 2 0 0 1-1.91 1.48zm-46.28-8.66a11.5 11.5 0 0 1-11.49-11.49 2 2 0 0 1 4 0 7.49 7.49 0 1 0 7.49-7.49 2 2 0 0 1 0-4 11.49 11.49 0 0 1 0 23z" fill="#378fdb"/><path d="M56.81 60.45H14.42a2 2 0 1 1 0-4h42.39a2 2 0 0 1 0 4zm16.62-7.28H2a2 2 0 0 1 0-4h71.43a2 2 0 0 1 0 4z" fill="#378fdb"/><path d="M73.43 53.17a2 2 0 0 1 0-4 7.49 7.49 0 1 0-7.49-7.49 2 2 0 0 1-4 0 11.49 11.49 0 1 1 11.49 11.49z" fill="#378fdb"/><path d="M140.42 69.94h-22.7a2 2 0 1 1 0-4h22.7a15.67 15.67 0 1 0-3.89-30.85 2 2 0 0 1-2.45-2.35 15.67 15.67 0 0 0-15.33-18.93 15.59 15.59 0 0 0-14.57 9.9 2 2 0 0 1-3.79-.22 26.39 26.39 0 0 0-51.87 6.9c0 .74 0 1.52.1 2.31a2 2 0 0 1-2.33 2.14 15.6 15.6 0 0 0-17.13 9.33 2 2 0 1 1-3.68-1.56 19.58 19.58 0 0 1 19-12v-.24a30.39 30.39 0 0 1 58.22-12.29 19.68 19.68 0 0 1 35.71 11.39v1.23a19.67 19.67 0 1 1 2 39.23z" fill="#378fdb"/></svg>